<svg width="333" height="167" viewBox="0 0 333 167" fill="none" xmlns="http://www.w3.org/2000/svg">
<rect width="333" height="167" rx="83.5" fill="#7DA4D2"/>
<path d="M71.312 116V47.456H79.952V108.32H109.904V116H71.312ZM139.992 63.68C146.264 63.68 150.904 65.056 153.912 67.808C156.92 70.56 158.424 74.944 158.424 80.96V116H152.28L150.648 108.704H150.264C148.024 111.52 145.656 113.6 143.16 114.944C140.728 116.288 137.336 116.96 132.984 116.96C128.312 116.96 124.44 115.744 121.368 113.312C118.296 110.816 116.76 106.944 116.76 101.696C116.76 96.576 118.776 92.64 122.808 89.888C126.84 87.072 133.048 85.536 141.432 85.28L150.168 84.992V81.92C150.168 77.632 149.24 74.656 147.384 72.992C145.528 71.328 142.904 70.496 139.512 70.496C136.824 70.496 134.264 70.912 131.832 71.744C129.4 72.512 127.128 73.408 125.016 74.432L122.424 68.096C124.664 66.88 127.32 65.856 130.392 65.024C133.464 64.128 136.664 63.68 139.992 63.68ZM142.488 91.136C136.088 91.392 131.64 92.416 129.144 94.208C126.712 96 125.496 98.528 125.496 101.792C125.496 104.672 126.36 106.784 128.088 108.128C129.88 109.472 132.152 110.144 134.904 110.144C139.256 110.144 142.872 108.96 145.752 106.592C148.632 104.16 150.072 100.448 150.072 95.456V90.848L142.488 91.136ZM182.764 60.8C182.764 62.976 182.7 65.024 182.572 66.944C182.508 68.8 182.412 70.272 182.284 71.36H182.764C184.236 69.184 186.252 67.36 188.812 65.888C191.372 64.416 194.668 63.68 198.7 63.68C205.1 63.68 210.22 65.92 214.06 70.4C217.964 74.816 219.916 81.44 219.916 90.272C219.916 99.104 217.964 105.76 214.06 110.24C210.156 114.72 205.036 116.96 198.7 116.96C194.668 116.96 191.372 116.224 188.812 114.752C186.252 113.28 184.236 111.52 182.764 109.472H182.092L180.364 116H174.316V43.04H182.764V60.8ZM197.26 70.688C191.82 70.688 188.044 72.256 185.932 75.392C183.82 78.528 182.764 83.392 182.764 89.984V90.368C182.764 96.704 183.788 101.568 185.836 104.96C187.948 108.288 191.82 109.952 197.452 109.952C202.06 109.952 205.484 108.256 207.724 104.864C210.028 101.472 211.18 96.576 211.18 90.176C211.18 77.184 206.54 70.688 197.26 70.688ZM266.883 101.792C266.883 106.784 265.027 110.56 261.315 113.12C257.603 115.68 252.611 116.96 246.339 116.96C242.755 116.96 239.651 116.672 237.027 116.096C234.467 115.52 232.195 114.72 230.211 113.696V106.016C232.259 107.04 234.723 108 237.603 108.896C240.547 109.728 243.523 110.144 246.531 110.144C250.819 110.144 253.923 109.472 255.843 108.128C257.763 106.72 258.723 104.864 258.723 102.56C258.723 101.28 258.371 100.128 257.667 99.104C256.963 98.08 255.683 97.056 253.827 96.032C252.035 95.008 249.443 93.856 246.051 92.576C242.723 91.296 239.875 90.016 237.507 88.736C235.139 87.456 233.315 85.92 232.035 84.128C230.755 82.336 230.115 80.032 230.115 77.216C230.115 72.864 231.875 69.504 235.395 67.136C238.979 64.768 243.651 63.584 249.411 63.584C252.547 63.584 255.459 63.904 258.147 64.544C260.899 65.12 263.459 65.952 265.827 67.04L262.947 73.76C260.771 72.864 258.499 72.096 256.131 71.456C253.763 70.816 251.331 70.496 248.835 70.496C245.379 70.496 242.723 71.072 240.867 72.224C239.075 73.312 238.179 74.816 238.179 76.736C238.179 78.144 238.595 79.36 239.427 80.384C240.259 81.344 241.635 82.304 243.555 83.264C245.539 84.16 248.163 85.248 251.427 86.528C254.691 87.744 257.475 88.992 259.779 90.272C262.083 91.552 263.843 93.12 265.059 94.976C266.275 96.768 266.883 99.04 266.883 101.792Z" fill="#202020"/>
</svg>
