<svg width="950" height="250" viewBox="0 0 950 250" fill="none" xmlns="http://www.w3.org/2000/svg">
<rect width="950" height="250" fill="#E5E5E5"/>
<rect width="950" height="250" fill="white"/>
<path d="M865.614 138.686C866.147 138.686 866.61 138.803 867.003 139.037C867.396 139.266 867.697 139.597 867.908 140.03C868.119 140.464 868.225 140.971 868.225 141.551V145.805H868.945C869.145 145.805 869.285 145.852 869.367 145.945C869.455 146.033 869.499 146.186 869.499 146.402C869.499 146.619 869.455 146.774 869.367 146.868C869.285 146.956 869.145 147 868.945 147H866.098C865.898 147 865.755 146.956 865.667 146.868C865.585 146.774 865.544 146.619 865.544 146.402C865.544 146.186 865.585 146.033 865.667 145.945C865.755 145.852 865.898 145.805 866.098 145.805H866.906V141.683C866.906 141.161 866.786 140.748 866.546 140.443C866.306 140.139 865.951 139.986 865.482 139.986C864.984 139.986 864.519 140.13 864.085 140.417C863.657 140.704 863.314 141.1 863.057 141.604C862.799 142.107 862.67 142.67 862.67 143.291V145.805H863.479C863.678 145.805 863.818 145.852 863.9 145.945C863.988 146.033 864.032 146.186 864.032 146.402C864.032 146.619 863.988 146.774 863.9 146.868C863.818 146.956 863.678 147 863.479 147H860.631C860.432 147 860.288 146.956 860.2 146.868C860.118 146.774 860.077 146.619 860.077 146.402C860.077 146.186 860.118 146.033 860.2 145.945C860.288 145.852 860.432 145.805 860.631 145.805H861.352V140.074H860.455C860.256 140.074 860.112 140.03 860.024 139.942C859.942 139.849 859.901 139.693 859.901 139.477C859.901 139.26 859.942 139.107 860.024 139.02C860.112 138.926 860.256 138.879 860.455 138.879H862.028C862.228 138.879 862.368 138.926 862.45 139.02C862.538 139.107 862.582 139.26 862.582 139.477V140.531C862.969 139.934 863.42 139.477 863.936 139.16C864.457 138.844 865.017 138.686 865.614 138.686ZM878.244 138.879C878.443 138.879 878.584 138.926 878.666 139.02C878.754 139.107 878.798 139.26 878.798 139.477V145.805H879.519C879.718 145.805 879.858 145.852 879.94 145.945C880.028 146.033 880.072 146.186 880.072 146.402C880.072 146.619 880.028 146.774 879.94 146.868C879.858 146.956 879.718 147 879.519 147H878.121C877.922 147 877.778 146.956 877.69 146.868C877.608 146.78 877.567 146.628 877.567 146.411V145.348C877.181 145.945 876.727 146.402 876.205 146.719C875.689 147.035 875.133 147.193 874.535 147.193C874.002 147.193 873.539 147.079 873.146 146.851C872.754 146.616 872.452 146.282 872.241 145.849C872.03 145.415 871.925 144.908 871.925 144.328V140.074H871.204C871.005 140.074 870.861 140.03 870.773 139.942C870.691 139.849 870.65 139.693 870.65 139.477C870.65 139.26 870.691 139.107 870.773 139.02C870.861 138.926 871.005 138.879 871.204 138.879H872.689C872.889 138.879 873.029 138.926 873.111 139.02C873.199 139.107 873.243 139.26 873.243 139.477V144.196C873.243 144.718 873.363 145.131 873.604 145.436C873.844 145.74 874.198 145.893 874.667 145.893C875.165 145.893 875.628 145.749 876.056 145.462C876.489 145.175 876.835 144.779 877.093 144.275C877.351 143.771 877.479 143.209 877.479 142.588V140.074H876.231C876.032 140.074 875.889 140.03 875.801 139.942C875.719 139.849 875.678 139.693 875.678 139.477C875.678 139.26 875.719 139.107 875.801 139.02C875.889 138.926 876.032 138.879 876.231 138.879H878.244ZM886.436 135.469C886.635 135.469 886.775 135.516 886.857 135.609C886.945 135.697 886.989 135.85 886.989 136.066V145.805H889.811C890.01 145.805 890.15 145.852 890.232 145.945C890.32 146.033 890.364 146.186 890.364 146.402C890.364 146.619 890.32 146.774 890.232 146.868C890.15 146.956 890.01 147 889.811 147H882.92C882.721 147 882.577 146.956 882.489 146.868C882.407 146.774 882.366 146.619 882.366 146.402C882.366 146.186 882.407 146.033 882.489 145.945C882.577 145.852 882.721 145.805 882.92 145.805H885.671V136.664H883.271C883.072 136.664 882.929 136.62 882.841 136.532C882.759 136.438 882.718 136.283 882.718 136.066C882.718 135.85 882.759 135.697 882.841 135.609C882.929 135.516 883.072 135.469 883.271 135.469H886.436ZM897.229 135.469C897.428 135.469 897.568 135.516 897.65 135.609C897.738 135.697 897.782 135.85 897.782 136.066V145.805H900.604C900.803 145.805 900.943 145.852 901.025 145.945C901.113 146.033 901.157 146.186 901.157 146.402C901.157 146.619 901.113 146.774 901.025 146.868C900.943 146.956 900.803 147 900.604 147H893.713C893.514 147 893.37 146.956 893.282 146.868C893.2 146.774 893.159 146.619 893.159 146.402C893.159 146.186 893.2 146.033 893.282 145.945C893.37 145.852 893.514 145.805 893.713 145.805H896.464V136.664H894.064C893.865 136.664 893.722 136.62 893.634 136.532C893.552 136.438 893.511 136.283 893.511 136.066C893.511 135.85 893.552 135.697 893.634 135.609C893.722 135.516 893.865 135.469 894.064 135.469H897.229ZM908.276 138.686C909.003 138.686 909.653 138.858 910.228 139.204C910.802 139.544 911.253 140.036 911.581 140.681C911.909 141.319 912.073 142.072 912.073 142.939C912.073 143.807 911.909 144.562 911.581 145.207C911.253 145.846 910.802 146.338 910.228 146.684C909.653 147.023 909.003 147.193 908.276 147.193C907.175 147.193 906.246 146.71 905.49 145.743V149.215H907.002C907.201 149.215 907.342 149.259 907.424 149.347C907.512 149.44 907.556 149.596 907.556 149.812C907.556 150.029 907.512 150.182 907.424 150.27C907.342 150.363 907.201 150.41 907.002 150.41H903.275C903.076 150.41 902.933 150.363 902.845 150.27C902.763 150.182 902.722 150.029 902.722 149.812C902.722 149.596 902.763 149.44 902.845 149.347C902.933 149.259 903.076 149.215 903.275 149.215H904.172V140.074H903.451C903.252 140.074 903.108 140.03 903.021 139.942C902.938 139.849 902.897 139.693 902.897 139.477C902.897 139.26 902.938 139.107 903.021 139.02C903.108 138.926 903.252 138.879 903.451 138.879H904.849C905.048 138.879 905.188 138.926 905.271 139.02C905.358 139.107 905.402 139.26 905.402 139.477V140.18C905.771 139.699 906.199 139.33 906.686 139.072C907.172 138.814 907.702 138.686 908.276 138.686ZM908.188 139.986C907.667 139.986 907.201 140.104 906.791 140.338C906.387 140.572 906.067 140.912 905.833 141.357C905.604 141.803 905.49 142.33 905.49 142.939C905.49 143.549 905.604 144.076 905.833 144.521C906.067 144.967 906.387 145.307 906.791 145.541C907.201 145.775 907.667 145.893 908.188 145.893C908.71 145.893 909.158 145.77 909.533 145.523C909.908 145.271 910.192 144.923 910.386 144.478C910.585 144.032 910.685 143.52 910.685 142.939C910.685 142.359 910.585 141.847 910.386 141.401C910.192 140.956 909.908 140.61 909.533 140.364C909.158 140.112 908.71 139.986 908.188 139.986ZM917.215 136.374C917.455 136.374 917.625 136.418 917.725 136.506C917.824 136.594 917.874 136.74 917.874 136.945V139.582H921.486C921.686 139.582 921.826 139.629 921.908 139.723C921.996 139.811 922.04 139.963 922.04 140.18C922.04 140.396 921.996 140.552 921.908 140.646C921.826 140.733 921.686 140.777 921.486 140.777H917.874V143.977C917.874 144.645 917.988 145.134 918.217 145.444C918.451 145.755 918.855 145.91 919.43 145.91C919.822 145.91 920.235 145.831 920.669 145.673C921.103 145.515 921.521 145.304 921.926 145.04C922.008 144.981 922.099 144.952 922.198 144.952C922.397 144.952 922.567 145.087 922.708 145.356C922.784 145.509 922.822 145.641 922.822 145.752C922.822 145.939 922.726 146.092 922.532 146.209C922.075 146.496 921.565 146.733 921.003 146.921C920.44 147.103 919.916 147.193 919.43 147.193C918.434 147.193 917.704 146.936 917.241 146.42C916.784 145.898 916.556 145.122 916.556 144.091V140.777H914.771C914.572 140.777 914.429 140.733 914.341 140.646C914.259 140.552 914.218 140.396 914.218 140.18C914.218 139.963 914.259 139.811 914.341 139.723C914.429 139.629 914.572 139.582 914.771 139.582H916.556V136.945C916.556 136.74 916.605 136.594 916.705 136.506C916.805 136.418 916.975 136.374 917.215 136.374ZM932.068 138.686C932.525 138.686 932.953 138.803 933.352 139.037C933.586 139.178 933.703 139.359 933.703 139.582C933.703 139.688 933.677 139.811 933.624 139.951C933.501 140.285 933.331 140.452 933.114 140.452C933.026 140.452 932.944 140.429 932.868 140.382C932.581 140.224 932.273 140.145 931.945 140.145C931.418 140.145 930.888 140.329 930.354 140.698C929.821 141.062 929.382 141.548 929.036 142.157C928.696 142.767 928.526 143.414 928.526 144.1V145.805H931.488C931.688 145.805 931.828 145.852 931.91 145.945C931.998 146.033 932.042 146.186 932.042 146.402C932.042 146.619 931.998 146.774 931.91 146.868C931.828 146.956 931.688 147 931.488 147H925.828C925.629 147 925.485 146.956 925.397 146.868C925.315 146.774 925.274 146.619 925.274 146.402C925.274 146.186 925.315 146.033 925.397 145.945C925.485 145.852 925.629 145.805 925.828 145.805H927.208V140.074H926.092C925.893 140.074 925.749 140.03 925.661 139.942C925.579 139.849 925.538 139.693 925.538 139.477C925.538 139.26 925.579 139.107 925.661 139.02C925.749 138.926 925.893 138.879 926.092 138.879H927.885C928.084 138.879 928.225 138.926 928.307 139.02C928.395 139.107 928.438 139.26 928.438 139.477V141.252C928.72 140.736 929.06 140.285 929.458 139.898C929.856 139.512 930.281 139.213 930.732 139.002C931.184 138.791 931.629 138.686 932.068 138.686Z" fill="black"/>
<rect x="17" y="41" width="148" height="148" fill="white" stroke="black" stroke-width="2"/>
<path d="M45.2881 16.374C45.5283 16.374 45.6982 16.418 45.7979 16.5059C45.8975 16.5938 45.9473 16.7402 45.9473 16.9453V18.9668C45.9473 19.1719 45.8975 19.3184 45.7979 19.4062C45.6982 19.4941 45.5283 19.5381 45.2881 19.5381C45.0654 19.5381 44.9131 19.4619 44.8311 19.3096C44.5498 18.7764 44.1543 18.3721 43.6445 18.0967C43.1348 17.8154 42.5547 17.6748 41.9043 17.6748C41.2598 17.6748 40.7588 17.8242 40.4014 18.123C40.0498 18.4219 39.874 18.8232 39.874 19.3271C39.874 19.5674 39.9355 19.7695 40.0586 19.9336C40.1816 20.0977 40.3574 20.2383 40.5859 20.3555C40.791 20.4609 41.0312 20.5488 41.3066 20.6191C41.582 20.6836 41.9512 20.7598 42.4141 20.8477C42.918 20.9473 43.3164 21.0322 43.6094 21.1025C43.9082 21.167 44.2012 21.2578 44.4883 21.375C45.0742 21.6152 45.5312 21.9521 45.8594 22.3857C46.1934 22.8135 46.3604 23.3936 46.3604 24.126C46.3604 24.7354 46.2168 25.2715 45.9297 25.7344C45.6426 26.1914 45.2178 26.5488 44.6553 26.8066C44.0986 27.0645 43.4277 27.1934 42.6426 27.1934C42.0566 27.1934 41.5117 27.0879 41.0078 26.877C40.5098 26.6602 40.0762 26.3467 39.707 25.9365V26.6221C39.707 26.8271 39.6572 26.9736 39.5576 27.0615C39.458 27.1494 39.2881 27.1934 39.0479 27.1934C38.8076 27.1934 38.6377 27.1494 38.5381 27.0615C38.4385 26.9736 38.3887 26.8271 38.3887 26.6221V23.9854C38.3887 23.7803 38.4385 23.6338 38.5381 23.5459C38.6377 23.458 38.8076 23.4141 39.0479 23.4141C39.2998 23.4141 39.4697 23.5371 39.5576 23.7832C39.7979 24.4629 40.1787 24.9844 40.7002 25.3477C41.2275 25.7109 41.875 25.8926 42.6426 25.8926C43.3926 25.8926 43.9668 25.7314 44.3652 25.4092C44.7695 25.0869 44.9717 24.6592 44.9717 24.126C44.9717 23.7568 44.8779 23.458 44.6904 23.2295C44.5088 22.9951 44.2422 22.8018 43.8906 22.6494C43.668 22.5498 43.4248 22.4707 43.1611 22.4121C42.8975 22.3477 42.5371 22.2686 42.0801 22.1748C41.5996 22.0811 41.1953 21.9932 40.8672 21.9111C40.5449 21.8291 40.2461 21.7266 39.9707 21.6035C39.502 21.3926 39.1357 21.1084 38.8721 20.751C38.6143 20.3877 38.4854 19.9131 38.4854 19.3271C38.4854 18.7236 38.6289 18.1992 38.916 17.7539C39.209 17.3086 39.6133 16.9688 40.1289 16.7344C40.6504 16.4941 41.2422 16.374 41.9043 16.374C42.4199 16.374 42.918 16.4736 43.3984 16.6729C43.8789 16.8721 44.2891 17.1416 44.6289 17.4814V16.9453C44.6289 16.7402 44.6787 16.5938 44.7783 16.5059C44.8779 16.418 45.0479 16.374 45.2881 16.374ZM53.5059 18.8789C53.7051 18.8789 53.8457 18.9258 53.9277 19.0195C54.0156 19.1074 54.0596 19.2598 54.0596 19.4766V25.8047H56.8809C57.0801 25.8047 57.2207 25.8516 57.3027 25.9453C57.3906 26.0332 57.4346 26.1855 57.4346 26.4023C57.4346 26.6191 57.3906 26.7744 57.3027 26.8682C57.2207 26.9561 57.0801 27 56.8809 27H49.9902C49.791 27 49.6475 26.9561 49.5596 26.8682C49.4775 26.7744 49.4365 26.6191 49.4365 26.4023C49.4365 26.1855 49.4775 26.0332 49.5596 25.9453C49.6475 25.8516 49.791 25.8047 49.9902 25.8047H52.7412V20.0742H50.5176C50.3184 20.0742 50.1748 20.0303 50.0869 19.9424C50.0049 19.8486 49.9639 19.6934 49.9639 19.4766C49.9639 19.2598 50.0049 19.1074 50.0869 19.0195C50.1748 18.9258 50.3184 18.8789 50.5176 18.8789H53.5059ZM53.2246 15.0205C53.5469 15.0205 53.7666 15.0645 53.8838 15.1523C54.001 15.2344 54.0596 15.3809 54.0596 15.5918V16.7344C54.0596 16.9453 54.001 17.0947 53.8838 17.1826C53.7666 17.2646 53.5469 17.3057 53.2246 17.3057C52.9023 17.3057 52.6826 17.2646 52.5654 17.1826C52.4482 17.0947 52.3896 16.9453 52.3896 16.7344V15.5918C52.3896 15.3809 52.4482 15.2344 52.5654 15.1523C52.6826 15.0645 52.9023 15.0205 53.2246 15.0205ZM64.9756 18.6855C65.5088 18.6855 65.9717 18.8027 66.3643 19.0371C66.7568 19.2656 67.0586 19.5967 67.2695 20.0303C67.4805 20.4639 67.5859 20.9707 67.5859 21.5508V25.8047H68.3066C68.5059 25.8047 68.6465 25.8516 68.7285 25.9453C68.8164 26.0332 68.8604 26.1855 68.8604 26.4023C68.8604 26.6191 68.8164 26.7744 68.7285 26.8682C68.6465 26.9561 68.5059 27 68.3066 27H65.459C65.2598 27 65.1162 26.9561 65.0283 26.8682C64.9463 26.7744 64.9053 26.6191 64.9053 26.4023C64.9053 26.1855 64.9463 26.0332 65.0283 25.9453C65.1162 25.8516 65.2598 25.8047 65.459 25.8047H66.2676V21.6826C66.2676 21.1611 66.1475 20.748 65.9072 20.4434C65.667 20.1387 65.3125 19.9863 64.8438 19.9863C64.3457 19.9863 63.8799 20.1299 63.4463 20.417C63.0186 20.7041 62.6758 21.0996 62.418 21.6035C62.1602 22.1074 62.0312 22.6699 62.0312 23.291V25.8047H62.8398C63.0391 25.8047 63.1797 25.8516 63.2617 25.9453C63.3496 26.0332 63.3936 26.1855 63.3936 26.4023C63.3936 26.6191 63.3496 26.7744 63.2617 26.8682C63.1797 26.9561 63.0391 27 62.8398 27H59.9922C59.793 27 59.6494 26.9561 59.5615 26.8682C59.4795 26.7744 59.4385 26.6191 59.4385 26.4023C59.4385 26.1855 59.4795 26.0332 59.5615 25.9453C59.6494 25.8516 59.793 25.8047 59.9922 25.8047H60.7129V20.0742H59.8164C59.6172 20.0742 59.4736 20.0303 59.3857 19.9424C59.3037 19.8486 59.2627 19.6934 59.2627 19.4766C59.2627 19.2598 59.3037 19.1074 59.3857 19.0195C59.4736 18.9258 59.6172 18.8789 59.8164 18.8789H61.3896C61.5889 18.8789 61.7295 18.9258 61.8115 19.0195C61.8994 19.1074 61.9434 19.2598 61.9434 19.4766V20.5312C62.3301 19.9336 62.7812 19.4766 63.2969 19.1602C63.8184 18.8438 64.3779 18.6855 64.9756 18.6855ZM74.292 18.6855C74.8662 18.6855 75.3965 18.8145 75.8828 19.0723C76.3691 19.3301 76.7969 19.6992 77.166 20.1797V19.4766C77.166 19.2598 77.207 19.1074 77.2891 19.0195C77.377 18.9258 77.5205 18.8789 77.7197 18.8789H79.1172C79.3164 18.8789 79.457 18.9258 79.5391 19.0195C79.627 19.1074 79.6709 19.2598 79.6709 19.4766C79.6709 19.6934 79.627 19.8486 79.5391 19.9424C79.457 20.0303 79.3164 20.0742 79.1172 20.0742H78.3965V27.2637C78.3965 27.9609 78.2471 28.5586 77.9482 29.0566C77.6553 29.5605 77.2275 29.9443 76.665 30.208C76.1025 30.4717 75.4258 30.6035 74.6348 30.6035C74.0723 30.6035 73.5039 30.5537 72.9297 30.4541C72.3555 30.3604 71.8193 30.2227 71.3213 30.041C71.0928 29.959 70.9785 29.8037 70.9785 29.5752C70.9785 29.4814 71.002 29.3643 71.0488 29.2236C71.1543 28.9014 71.3213 28.7402 71.5498 28.7402C71.6143 28.7402 71.6787 28.752 71.7432 28.7754C72.2002 28.9395 72.6807 29.0684 73.1846 29.1621C73.6885 29.2559 74.1719 29.3027 74.6348 29.3027C75.4434 29.3027 76.0527 29.1094 76.4629 28.7227C76.873 28.3418 77.0781 27.8174 77.0781 27.1494V25.3828C76.3516 26.2969 75.4229 26.7539 74.292 26.7539C73.5654 26.7539 72.915 26.5928 72.3408 26.2705C71.7666 25.9424 71.3154 25.4736 70.9873 24.8643C70.6592 24.2549 70.4951 23.54 70.4951 22.7197C70.4951 21.8994 70.6592 21.1846 70.9873 20.5752C71.3154 19.9658 71.7666 19.5 72.3408 19.1777C72.915 18.8496 73.5654 18.6855 74.292 18.6855ZM74.3799 19.9863C73.8584 19.9863 73.4102 20.1035 73.0352 20.3379C72.6602 20.5664 72.373 20.8887 72.1738 21.3047C71.9805 21.7148 71.8838 22.1865 71.8838 22.7197C71.8838 23.2529 71.9805 23.7275 72.1738 24.1436C72.373 24.5537 72.6602 24.876 73.0352 25.1104C73.4102 25.3389 73.8584 25.4531 74.3799 25.4531C74.9014 25.4531 75.3643 25.3447 75.7686 25.1279C76.1787 24.9111 76.498 24.5977 76.7266 24.1875C76.9609 23.7715 77.0781 23.2822 77.0781 22.7197C77.0781 22.1572 76.9609 21.6709 76.7266 21.2607C76.498 20.8447 76.1787 20.5283 75.7686 20.3115C75.3643 20.0947 74.9014 19.9863 74.3799 19.9863ZM85.7969 15.4688C85.9961 15.4688 86.1367 15.5156 86.2188 15.6094C86.3066 15.6973 86.3506 15.8496 86.3506 16.0664V25.8047H89.1719C89.3711 25.8047 89.5117 25.8516 89.5938 25.9453C89.6816 26.0332 89.7256 26.1855 89.7256 26.4023C89.7256 26.6191 89.6816 26.7744 89.5938 26.8682C89.5117 26.9561 89.3711 27 89.1719 27H82.2812C82.082 27 81.9385 26.9561 81.8506 26.8682C81.7686 26.7744 81.7275 26.6191 81.7275 26.4023C81.7275 26.1855 81.7686 26.0332 81.8506 25.9453C81.9385 25.8516 82.082 25.8047 82.2812 25.8047H85.0322V16.6641H82.6328C82.4336 16.6641 82.29 16.6201 82.2021 16.5322C82.1201 16.4385 82.0791 16.2832 82.0791 16.0664C82.0791 15.8496 82.1201 15.6973 82.2021 15.6094C82.29 15.5156 82.4336 15.4688 82.6328 15.4688H85.7969ZM96.4404 18.6855C97.29 18.6855 98.0137 18.8584 98.6113 19.2041C99.2148 19.5439 99.6777 20.0186 100 20.6279C100.322 21.2314 100.507 21.9287 100.554 22.7197C100.554 22.9189 100.51 23.0596 100.422 23.1416C100.34 23.2236 100.199 23.2646 100 23.2646H93.6367C93.6777 24.1377 93.9355 24.7998 94.4102 25.251C94.8906 25.6963 95.5674 25.9189 96.4404 25.9189C96.9795 25.9189 97.5127 25.8516 98.04 25.7168C98.5674 25.5762 99.0303 25.3916 99.4287 25.1631C99.5283 25.1104 99.6191 25.084 99.7012 25.084C99.9062 25.084 100.073 25.2393 100.202 25.5498C100.255 25.6729 100.281 25.7842 100.281 25.8838C100.281 26.1182 100.152 26.2998 99.8945 26.4287C99.4434 26.6572 98.9102 26.8418 98.2949 26.9824C97.6797 27.123 97.0615 27.1934 96.4404 27.1934C95.5557 27.1934 94.7998 27.0234 94.1729 26.6836C93.5459 26.3438 93.0684 25.8545 92.7402 25.2158C92.4121 24.5771 92.248 23.8184 92.248 22.9395C92.248 22.1016 92.4268 21.3604 92.7842 20.7158C93.1416 20.0713 93.6367 19.5732 94.2695 19.2217C94.9023 18.8643 95.626 18.6855 96.4404 18.6855ZM96.4404 19.96C95.7197 19.96 95.1221 20.1445 94.6475 20.5137C94.1787 20.877 93.8711 21.3838 93.7246 22.0342H99.0947C98.9717 21.3604 98.6875 20.8477 98.2422 20.4961C97.8027 20.1387 97.2021 19.96 96.4404 19.96ZM107.884 16.5674C108.083 16.5674 108.224 16.6143 108.306 16.708C108.394 16.7959 108.438 16.9482 108.438 17.165C108.438 17.3818 108.394 17.5371 108.306 17.6309C108.224 17.7188 108.083 17.7627 107.884 17.7627H105.757V25.8047H110.107V22.9131C110.107 22.708 110.157 22.5615 110.257 22.4736C110.356 22.3857 110.526 22.3418 110.767 22.3418C111.007 22.3418 111.177 22.3857 111.276 22.4736C111.376 22.5615 111.426 22.708 111.426 22.9131V26.4023C111.426 26.6191 111.382 26.7744 111.294 26.8682C111.212 26.9561 111.071 27 110.872 27H103.015C102.815 27 102.672 26.9561 102.584 26.8682C102.502 26.7744 102.461 26.6191 102.461 26.4023C102.461 26.1855 102.502 26.0332 102.584 25.9453C102.672 25.8516 102.815 25.8047 103.015 25.8047H104.438V17.7627H103.015C102.815 17.7627 102.672 17.7188 102.584 17.6309C102.502 17.5371 102.461 17.3818 102.461 17.165C102.461 16.9482 102.502 16.7959 102.584 16.708C102.672 16.6143 102.815 16.5674 103.015 16.5674H107.884ZM118.264 18.8789C118.463 18.8789 118.604 18.9258 118.686 19.0195C118.773 19.1074 118.817 19.2598 118.817 19.4766V25.8047H121.639C121.838 25.8047 121.979 25.8516 122.061 25.9453C122.148 26.0332 122.192 26.1855 122.192 26.4023C122.192 26.6191 122.148 26.7744 122.061 26.8682C121.979 26.9561 121.838 27 121.639 27H114.748C114.549 27 114.405 26.9561 114.317 26.8682C114.235 26.7744 114.194 26.6191 114.194 26.4023C114.194 26.1855 114.235 26.0332 114.317 25.9453C114.405 25.8516 114.549 25.8047 114.748 25.8047H117.499V20.0742H115.275C115.076 20.0742 114.933 20.0303 114.845 19.9424C114.763 19.8486 114.722 19.6934 114.722 19.4766C114.722 19.2598 114.763 19.1074 114.845 19.0195C114.933 18.9258 115.076 18.8789 115.275 18.8789H118.264ZM117.982 15.0205C118.305 15.0205 118.524 15.0645 118.642 15.1523C118.759 15.2344 118.817 15.3809 118.817 15.5918V16.7344C118.817 16.9453 118.759 17.0947 118.642 17.1826C118.524 17.2646 118.305 17.3057 117.982 17.3057C117.66 17.3057 117.44 17.2646 117.323 17.1826C117.206 17.0947 117.147 16.9453 117.147 16.7344V15.5918C117.147 15.3809 117.206 15.2344 117.323 15.1523C117.44 15.0645 117.66 15.0205 117.982 15.0205ZM129.733 18.6855C130.267 18.6855 130.729 18.8027 131.122 19.0371C131.515 19.2656 131.816 19.5967 132.027 20.0303C132.238 20.4639 132.344 20.9707 132.344 21.5508V25.8047H133.064C133.264 25.8047 133.404 25.8516 133.486 25.9453C133.574 26.0332 133.618 26.1855 133.618 26.4023C133.618 26.6191 133.574 26.7744 133.486 26.8682C133.404 26.9561 133.264 27 133.064 27H130.217C130.018 27 129.874 26.9561 129.786 26.8682C129.704 26.7744 129.663 26.6191 129.663 26.4023C129.663 26.1855 129.704 26.0332 129.786 25.9453C129.874 25.8516 130.018 25.8047 130.217 25.8047H131.025V21.6826C131.025 21.1611 130.905 20.748 130.665 20.4434C130.425 20.1387 130.07 19.9863 129.602 19.9863C129.104 19.9863 128.638 20.1299 128.204 20.417C127.776 20.7041 127.434 21.0996 127.176 21.6035C126.918 22.1074 126.789 22.6699 126.789 23.291V25.8047H127.598C127.797 25.8047 127.938 25.8516 128.02 25.9453C128.107 26.0332 128.151 26.1855 128.151 26.4023C128.151 26.6191 128.107 26.7744 128.02 26.8682C127.938 26.9561 127.797 27 127.598 27H124.75C124.551 27 124.407 26.9561 124.319 26.8682C124.237 26.7744 124.196 26.6191 124.196 26.4023C124.196 26.1855 124.237 26.0332 124.319 25.9453C124.407 25.8516 124.551 25.8047 124.75 25.8047H125.471V20.0742H124.574C124.375 20.0742 124.231 20.0303 124.144 19.9424C124.062 19.8486 124.021 19.6934 124.021 19.4766C124.021 19.2598 124.062 19.1074 124.144 19.0195C124.231 18.9258 124.375 18.8789 124.574 18.8789H126.147C126.347 18.8789 126.487 18.9258 126.569 19.0195C126.657 19.1074 126.701 19.2598 126.701 19.4766V20.5312C127.088 19.9336 127.539 19.4766 128.055 19.1602C128.576 18.8438 129.136 18.6855 129.733 18.6855ZM143.77 25.8047C143.969 25.8047 144.109 25.8516 144.191 25.9453C144.279 26.0332 144.323 26.1855 144.323 26.4023C144.323 26.6191 144.279 26.7744 144.191 26.8682C144.109 26.9561 143.969 27 143.77 27H140.922C140.723 27 140.579 26.9561 140.491 26.8682C140.409 26.7744 140.368 26.6191 140.368 26.4023C140.368 26.1855 140.409 26.0332 140.491 25.9453C140.579 25.8516 140.723 25.8047 140.922 25.8047H141.555L139.349 23.1855L137.749 24.5918V25.8047H138.391C138.59 25.8047 138.73 25.8516 138.812 25.9453C138.9 26.0332 138.944 26.1855 138.944 26.4023C138.944 26.6191 138.9 26.7744 138.812 26.8682C138.73 26.9561 138.59 27 138.391 27H135.455C135.256 27 135.112 26.9561 135.024 26.8682C134.942 26.7744 134.901 26.6191 134.901 26.4023C134.901 26.1855 134.942 26.0332 135.024 25.9453C135.112 25.8516 135.256 25.8047 135.455 25.8047H136.431V16.6641H135.279C135.08 16.6641 134.937 16.6201 134.849 16.5322C134.767 16.4385 134.726 16.2832 134.726 16.0664C134.726 15.8496 134.767 15.6973 134.849 15.6094C134.937 15.5156 135.08 15.4688 135.279 15.4688H137.195C137.395 15.4688 137.535 15.5156 137.617 15.6094C137.705 15.6973 137.749 15.8496 137.749 16.0664V23.0273L141.098 20.0742H140.474C140.274 20.0742 140.131 20.0303 140.043 19.9424C139.961 19.8486 139.92 19.6934 139.92 19.4766C139.92 19.2598 139.961 19.1074 140.043 19.0195C140.131 18.9258 140.274 18.8789 140.474 18.8789H143.409C143.608 18.8789 143.749 18.9258 143.831 19.0195C143.919 19.1074 143.963 19.2598 143.963 19.4766C143.963 19.6934 143.919 19.8486 143.831 19.9424C143.749 20.0303 143.608 20.0742 143.409 20.0742H142.891L140.307 22.3506L143.26 25.8047H143.77Z" fill="black"/>
<path d="M71.8037 75.4688C72.0029 75.4688 72.1436 75.5156 72.2256 75.6094C72.3135 75.6973 72.3574 75.8496 72.3574 76.0664V80.4434C72.7383 79.875 73.1777 79.4414 73.6758 79.1426C74.1797 78.8379 74.7217 78.6855 75.3018 78.6855C75.835 78.6855 76.2979 78.8027 76.6904 79.0371C77.083 79.2656 77.3848 79.5967 77.5957 80.0303C77.8066 80.4639 77.9121 80.9707 77.9121 81.5508V85.8047H78.6328C78.832 85.8047 78.9727 85.8516 79.0547 85.9453C79.1426 86.0332 79.1865 86.1855 79.1865 86.4023C79.1865 86.6191 79.1426 86.7744 79.0547 86.8682C78.9727 86.9561 78.832 87 78.6328 87H75.7852C75.5859 87 75.4424 86.9561 75.3545 86.8682C75.2725 86.7744 75.2314 86.6191 75.2314 86.4023C75.2314 86.1855 75.2725 86.0332 75.3545 85.9453C75.4424 85.8516 75.5859 85.8047 75.7852 85.8047H76.5938V81.6826C76.5938 81.1611 76.4736 80.748 76.2334 80.4434C75.9932 80.1387 75.6387 79.9863 75.1699 79.9863C74.6719 79.9863 74.2061 80.1299 73.7725 80.417C73.3447 80.7041 73.002 81.0996 72.7441 81.6035C72.4863 82.1074 72.3574 82.6699 72.3574 83.291V85.8047H73.166C73.3652 85.8047 73.5059 85.8516 73.5879 85.9453C73.6758 86.0332 73.7197 86.1855 73.7197 86.4023C73.7197 86.6191 73.6758 86.7744 73.5879 86.8682C73.5059 86.9561 73.3652 87 73.166 87H70.3184C70.1191 87 69.9756 86.9561 69.8877 86.8682C69.8057 86.7744 69.7646 86.6191 69.7646 86.4023C69.7646 86.1855 69.8057 86.0332 69.8877 85.9453C69.9756 85.8516 70.1191 85.8047 70.3184 85.8047H71.0391V76.6641H70.2305C70.0312 76.6641 69.8877 76.6201 69.7998 76.5322C69.7178 76.4385 69.6768 76.2832 69.6768 76.0664C69.6768 75.8496 69.7178 75.6973 69.7998 75.6094C69.8877 75.5156 70.0312 75.4688 70.2305 75.4688H71.8037ZM85.2686 78.6855C86.1182 78.6855 86.8418 78.8584 87.4395 79.2041C88.043 79.5439 88.5059 80.0186 88.8281 80.6279C89.1504 81.2314 89.335 81.9287 89.3818 82.7197C89.3818 82.9189 89.3379 83.0596 89.25 83.1416C89.168 83.2236 89.0273 83.2646 88.8281 83.2646H82.4648C82.5059 84.1377 82.7637 84.7998 83.2383 85.251C83.7188 85.6963 84.3955 85.9189 85.2686 85.9189C85.8076 85.9189 86.3408 85.8516 86.8682 85.7168C87.3955 85.5762 87.8584 85.3916 88.2568 85.1631C88.3564 85.1104 88.4473 85.084 88.5293 85.084C88.7344 85.084 88.9014 85.2393 89.0303 85.5498C89.083 85.6729 89.1094 85.7842 89.1094 85.8838C89.1094 86.1182 88.9805 86.2998 88.7227 86.4287C88.2715 86.6572 87.7383 86.8418 87.123 86.9824C86.5078 87.123 85.8896 87.1934 85.2686 87.1934C84.3838 87.1934 83.6279 87.0234 83.001 86.6836C82.374 86.3438 81.8965 85.8545 81.5684 85.2158C81.2402 84.5771 81.0762 83.8184 81.0762 82.9395C81.0762 82.1016 81.2549 81.3604 81.6123 80.7158C81.9697 80.0713 82.4648 79.5732 83.0977 79.2217C83.7305 78.8643 84.4541 78.6855 85.2686 78.6855ZM85.2686 79.96C84.5479 79.96 83.9502 80.1445 83.4756 80.5137C83.0068 80.877 82.6992 81.3838 82.5527 82.0342H87.9229C87.7998 81.3604 87.5156 80.8477 87.0703 80.4961C86.6309 80.1387 86.0303 79.96 85.2686 79.96ZM96.0176 78.6855C97.1191 78.6855 97.9453 78.9316 98.4961 79.4238C99.0469 79.916 99.3223 80.6455 99.3223 81.6123V85.1104C99.3223 85.5732 99.5156 85.8047 99.9023 85.8047H100.21C100.409 85.8047 100.55 85.8516 100.632 85.9453C100.72 86.0332 100.764 86.1855 100.764 86.4023C100.764 86.6191 100.72 86.7744 100.632 86.8682C100.55 86.9561 100.409 87 100.21 87H99.6475C99.2666 87 98.9385 86.9062 98.6631 86.7188C98.3936 86.5254 98.2178 86.2441 98.1357 85.875C97.6553 86.2969 97.1338 86.6221 96.5713 86.8506C96.0146 87.0791 95.4229 87.1934 94.7959 87.1934C94.2041 87.1934 93.6797 87.0938 93.2227 86.8945C92.7715 86.6895 92.417 86.3936 92.1592 86.0068C91.9014 85.6201 91.7725 85.1602 91.7725 84.627C91.7725 83.7012 92.1035 83.0186 92.7656 82.5791C93.4277 82.1338 94.2832 81.9111 95.332 81.9111C96.2637 81.9111 97.1543 82.0605 98.0039 82.3594V81.6123C98.0039 81.0439 97.8428 80.6279 97.5205 80.3643C97.2041 80.0947 96.6914 79.96 95.9824 79.96C95.543 79.96 95.0859 80.0215 94.6113 80.1445C94.1367 80.2676 93.6855 80.4375 93.2578 80.6543C93.1582 80.707 93.0674 80.7334 92.9854 80.7334C92.792 80.7334 92.6309 80.5928 92.502 80.3115C92.4375 80.1709 92.4053 80.0537 92.4053 79.96C92.4053 79.7549 92.5137 79.5967 92.7305 79.4854C93.2227 79.2275 93.75 79.0312 94.3125 78.8965C94.8809 78.7559 95.4492 78.6855 96.0176 78.6855ZM95.3408 83.1504C94.667 83.1504 94.1338 83.2676 93.7412 83.502C93.3545 83.7305 93.1611 84.0967 93.1611 84.6006C93.1611 85.0283 93.3076 85.3623 93.6006 85.6025C93.8994 85.8369 94.3154 85.9541 94.8486 85.9541C96.0146 85.9541 97.0664 85.4707 98.0039 84.5039V83.5459C97.6055 83.417 97.1777 83.3203 96.7207 83.2559C96.2637 83.1855 95.8037 83.1504 95.3408 83.1504ZM109.843 75.4688C110.042 75.4688 110.183 75.5156 110.265 75.6094C110.353 75.6973 110.396 75.8496 110.396 76.0664V85.8047H111.117C111.316 85.8047 111.457 85.8516 111.539 85.9453C111.627 86.0332 111.671 86.1855 111.671 86.4023C111.671 86.6191 111.627 86.7744 111.539 86.8682C111.457 86.9561 111.316 87 111.117 87H109.72C109.521 87 109.377 86.9561 109.289 86.8682C109.207 86.7744 109.166 86.6191 109.166 86.4023V85.6992C108.797 86.1797 108.369 86.5488 107.883 86.8066C107.396 87.0645 106.866 87.1934 106.292 87.1934C105.565 87.1934 104.915 87.0234 104.341 86.6836C103.767 86.3379 103.315 85.8457 102.987 85.207C102.659 84.5625 102.495 83.8066 102.495 82.9395C102.495 82.0723 102.659 81.3193 102.987 80.6807C103.315 80.0361 103.767 79.5439 104.341 79.2041C104.915 78.8584 105.565 78.6855 106.292 78.6855C107.394 78.6855 108.322 79.1689 109.078 80.1357V76.6641H107.654C107.455 76.6641 107.312 76.6201 107.224 76.5322C107.142 76.4385 107.101 76.2832 107.101 76.0664C107.101 75.8496 107.142 75.6973 107.224 75.6094C107.312 75.5156 107.455 75.4688 107.654 75.4688H109.843ZM106.38 79.9863C105.858 79.9863 105.41 80.1123 105.035 80.3643C104.66 80.6104 104.373 80.9561 104.174 81.4014C103.98 81.8467 103.884 82.3594 103.884 82.9395C103.884 83.5195 103.98 84.0322 104.174 84.4775C104.373 84.9229 104.66 85.2715 105.035 85.5234C105.41 85.7695 105.858 85.8926 106.38 85.8926C106.901 85.8926 107.364 85.7754 107.769 85.541C108.179 85.3066 108.498 84.9668 108.727 84.5215C108.961 84.0762 109.078 83.5488 109.078 82.9395C109.078 82.3301 108.961 81.8027 108.727 81.3574C108.498 80.9121 108.179 80.5723 107.769 80.3379C107.364 80.1035 106.901 79.9863 106.38 79.9863Z" fill="black"/>
<path d="M73.0254 136.374C73.2656 136.374 73.4355 136.418 73.5352 136.506C73.6348 136.594 73.6846 136.74 73.6846 136.945V139.582H77.2969C77.4961 139.582 77.6367 139.629 77.7188 139.723C77.8066 139.811 77.8506 139.963 77.8506 140.18C77.8506 140.396 77.8066 140.552 77.7188 140.646C77.6367 140.733 77.4961 140.777 77.2969 140.777H73.6846V143.977C73.6846 144.645 73.7988 145.134 74.0273 145.444C74.2617 145.755 74.666 145.91 75.2402 145.91C75.6328 145.91 76.0459 145.831 76.4795 145.673C76.9131 145.515 77.332 145.304 77.7363 145.04C77.8184 144.981 77.9092 144.952 78.0088 144.952C78.208 144.952 78.3779 145.087 78.5186 145.356C78.5947 145.509 78.6328 145.641 78.6328 145.752C78.6328 145.939 78.5361 146.092 78.3428 146.209C77.8857 146.496 77.376 146.733 76.8135 146.921C76.251 147.103 75.7266 147.193 75.2402 147.193C74.2441 147.193 73.5146 146.936 73.0518 146.42C72.5947 145.898 72.3662 145.122 72.3662 144.091V140.777H70.582C70.3828 140.777 70.2393 140.733 70.1514 140.646C70.0693 140.552 70.0283 140.396 70.0283 140.18C70.0283 139.963 70.0693 139.811 70.1514 139.723C70.2393 139.629 70.3828 139.582 70.582 139.582H72.3662V136.945C72.3662 136.74 72.416 136.594 72.5156 136.506C72.6152 136.418 72.7852 136.374 73.0254 136.374ZM85.2246 138.686C86.3262 138.686 87.1523 138.932 87.7031 139.424C88.2539 139.916 88.5293 140.646 88.5293 141.612V145.11C88.5293 145.573 88.7227 145.805 89.1094 145.805H89.417C89.6162 145.805 89.7568 145.852 89.8389 145.945C89.9268 146.033 89.9707 146.186 89.9707 146.402C89.9707 146.619 89.9268 146.774 89.8389 146.868C89.7568 146.956 89.6162 147 89.417 147H88.8545C88.4736 147 88.1455 146.906 87.8701 146.719C87.6006 146.525 87.4248 146.244 87.3428 145.875C86.8623 146.297 86.3408 146.622 85.7783 146.851C85.2217 147.079 84.6299 147.193 84.0029 147.193C83.4111 147.193 82.8867 147.094 82.4297 146.895C81.9785 146.689 81.624 146.394 81.3662 146.007C81.1084 145.62 80.9795 145.16 80.9795 144.627C80.9795 143.701 81.3105 143.019 81.9727 142.579C82.6348 142.134 83.4902 141.911 84.5391 141.911C85.4707 141.911 86.3613 142.061 87.2109 142.359V141.612C87.2109 141.044 87.0498 140.628 86.7275 140.364C86.4111 140.095 85.8984 139.96 85.1895 139.96C84.75 139.96 84.293 140.021 83.8184 140.145C83.3438 140.268 82.8926 140.438 82.4648 140.654C82.3652 140.707 82.2744 140.733 82.1924 140.733C81.999 140.733 81.8379 140.593 81.709 140.312C81.6445 140.171 81.6123 140.054 81.6123 139.96C81.6123 139.755 81.7207 139.597 81.9375 139.485C82.4297 139.228 82.957 139.031 83.5195 138.896C84.0879 138.756 84.6562 138.686 85.2246 138.686ZM84.5479 143.15C83.874 143.15 83.3408 143.268 82.9482 143.502C82.5615 143.73 82.3682 144.097 82.3682 144.601C82.3682 145.028 82.5146 145.362 82.8076 145.603C83.1064 145.837 83.5225 145.954 84.0557 145.954C85.2217 145.954 86.2734 145.471 87.2109 144.504V143.546C86.8125 143.417 86.3848 143.32 85.9277 143.256C85.4707 143.186 85.0107 143.15 84.5479 143.15ZM96.2988 138.879C96.498 138.879 96.6387 138.926 96.7207 139.02C96.8086 139.107 96.8525 139.26 96.8525 139.477V145.805H99.6738C99.873 145.805 100.014 145.852 100.096 145.945C100.184 146.033 100.228 146.186 100.228 146.402C100.228 146.619 100.184 146.774 100.096 146.868C100.014 146.956 99.873 147 99.6738 147H92.7832C92.584 147 92.4404 146.956 92.3525 146.868C92.2705 146.774 92.2295 146.619 92.2295 146.402C92.2295 146.186 92.2705 146.033 92.3525 145.945C92.4404 145.852 92.584 145.805 92.7832 145.805H95.5342V140.074H93.3105C93.1113 140.074 92.9678 140.03 92.8799 139.942C92.7979 139.849 92.7568 139.693 92.7568 139.477C92.7568 139.26 92.7979 139.107 92.8799 139.02C92.9678 138.926 93.1113 138.879 93.3105 138.879H96.2988ZM96.0176 135.021C96.3398 135.021 96.5596 135.064 96.6768 135.152C96.7939 135.234 96.8525 135.381 96.8525 135.592V136.734C96.8525 136.945 96.7939 137.095 96.6768 137.183C96.5596 137.265 96.3398 137.306 96.0176 137.306C95.6953 137.306 95.4756 137.265 95.3584 137.183C95.2412 137.095 95.1826 136.945 95.1826 136.734V135.592C95.1826 135.381 95.2412 135.234 95.3584 135.152C95.4756 135.064 95.6953 135.021 96.0176 135.021ZM107.004 135.469C107.203 135.469 107.344 135.516 107.426 135.609C107.514 135.697 107.558 135.85 107.558 136.066V145.805H110.379C110.578 145.805 110.719 145.852 110.801 145.945C110.889 146.033 110.933 146.186 110.933 146.402C110.933 146.619 110.889 146.774 110.801 146.868C110.719 146.956 110.578 147 110.379 147H103.488C103.289 147 103.146 146.956 103.058 146.868C102.976 146.774 102.935 146.619 102.935 146.402C102.935 146.186 102.976 146.033 103.058 145.945C103.146 145.852 103.289 145.805 103.488 145.805H106.239V136.664H103.84C103.641 136.664 103.497 136.62 103.409 136.532C103.327 136.438 103.286 136.283 103.286 136.066C103.286 135.85 103.327 135.697 103.409 135.609C103.497 135.516 103.641 135.469 103.84 135.469H107.004Z" fill="black"/>
<rect x="647" y="41" width="148" height="148" fill="white" stroke="black" stroke-width="2"/>
<path d="M709.038 16.5674C709.237 16.5674 709.378 16.6143 709.46 16.708C709.548 16.7959 709.592 16.9482 709.592 17.165C709.592 17.3818 709.548 17.5371 709.46 17.6309C709.378 17.7188 709.237 17.7627 709.038 17.7627H708.537V26.6748C708.537 26.833 708.481 26.959 708.37 27.0527C708.265 27.1465 708.101 27.1934 707.878 27.1934C707.567 27.1934 707.321 27.0322 707.14 26.71L702.578 18.5625H702.543V25.8047H703.782C703.981 25.8047 704.122 25.8516 704.204 25.9453C704.292 26.0332 704.336 26.1855 704.336 26.4023C704.336 26.6191 704.292 26.7744 704.204 26.8682C704.122 26.9561 703.981 27 703.782 27H700.671C700.472 27 700.328 26.9561 700.24 26.8682C700.158 26.7744 700.117 26.6191 700.117 26.4023C700.117 26.1855 700.158 26.0332 700.24 25.9453C700.328 25.8516 700.472 25.8047 700.671 25.8047H701.26V17.7627H700.583C700.384 17.7627 700.24 17.7188 700.152 17.6309C700.07 17.5371 700.029 17.3818 700.029 17.165C700.029 16.9482 700.07 16.7959 700.152 16.708C700.24 16.6143 700.384 16.5674 700.583 16.5674H702.552C702.681 16.5674 702.783 16.5879 702.859 16.6289C702.941 16.6699 703.006 16.7314 703.053 16.8135L707.219 24.2666H707.254V17.7627H706.19C705.991 17.7627 705.848 17.7188 705.76 17.6309C705.678 17.5371 705.637 17.3818 705.637 17.165C705.637 16.9482 705.678 16.7959 705.76 16.708C705.848 16.6143 705.991 16.5674 706.19 16.5674H709.038ZM715.604 18.6855C716.406 18.6855 717.13 18.8672 717.774 19.2305C718.419 19.5938 718.923 20.1006 719.286 20.751C719.655 21.3955 719.84 22.125 719.84 22.9395C719.84 23.7539 719.655 24.4863 719.286 25.1367C718.923 25.7812 718.419 26.2852 717.774 26.6484C717.13 27.0117 716.406 27.1934 715.604 27.1934C714.801 27.1934 714.077 27.0117 713.433 26.6484C712.788 26.2852 712.281 25.7812 711.912 25.1367C711.549 24.4863 711.367 23.7539 711.367 22.9395C711.367 22.125 711.549 21.3955 711.912 20.751C712.281 20.1006 712.788 19.5938 713.433 19.2305C714.077 18.8672 714.801 18.6855 715.604 18.6855ZM715.604 19.9863C715.035 19.9863 714.534 20.1123 714.101 20.3643C713.673 20.6104 713.342 20.959 713.107 21.4102C712.873 21.8555 712.756 22.3652 712.756 22.9395C712.756 23.5137 712.873 24.0264 713.107 24.4775C713.342 24.9229 713.673 25.2715 714.101 25.5234C714.534 25.7695 715.035 25.8926 715.604 25.8926C716.172 25.8926 716.67 25.7695 717.098 25.5234C717.531 25.2715 717.865 24.9229 718.1 24.4775C718.334 24.0264 718.451 23.5137 718.451 22.9395C718.451 22.3652 718.334 21.8555 718.1 21.4102C717.865 20.959 717.531 20.6104 717.098 20.3643C716.67 20.1123 716.172 19.9863 715.604 19.9863ZM729.464 15.4688C729.663 15.4688 729.804 15.5156 729.886 15.6094C729.974 15.6973 730.018 15.8496 730.018 16.0664V25.8047H730.738C730.938 25.8047 731.078 25.8516 731.16 25.9453C731.248 26.0332 731.292 26.1855 731.292 26.4023C731.292 26.6191 731.248 26.7744 731.16 26.8682C731.078 26.9561 730.938 27 730.738 27H729.341C729.142 27 728.998 26.9561 728.91 26.8682C728.828 26.7744 728.787 26.6191 728.787 26.4023V25.6992C728.418 26.1797 727.99 26.5488 727.504 26.8066C727.018 27.0645 726.487 27.1934 725.913 27.1934C725.187 27.1934 724.536 27.0234 723.962 26.6836C723.388 26.3379 722.937 25.8457 722.608 25.207C722.28 24.5625 722.116 23.8066 722.116 22.9395C722.116 22.0723 722.28 21.3193 722.608 20.6807C722.937 20.0361 723.388 19.5439 723.962 19.2041C724.536 18.8584 725.187 18.6855 725.913 18.6855C727.015 18.6855 727.943 19.1689 728.699 20.1357V16.6641H727.275C727.076 16.6641 726.933 16.6201 726.845 16.5322C726.763 16.4385 726.722 16.2832 726.722 16.0664C726.722 15.8496 726.763 15.6973 726.845 15.6094C726.933 15.5156 727.076 15.4688 727.275 15.4688H729.464ZM726.001 19.9863C725.479 19.9863 725.031 20.1123 724.656 20.3643C724.281 20.6104 723.994 20.9561 723.795 21.4014C723.602 21.8467 723.505 22.3594 723.505 22.9395C723.505 23.5195 723.602 24.0322 723.795 24.4775C723.994 24.9229 724.281 25.2715 724.656 25.5234C725.031 25.7695 725.479 25.8926 726.001 25.8926C726.522 25.8926 726.985 25.7754 727.39 25.541C727.8 25.3066 728.119 24.9668 728.348 24.5215C728.582 24.0762 728.699 23.5488 728.699 22.9395C728.699 22.3301 728.582 21.8027 728.348 21.3574C728.119 20.9121 727.8 20.5723 727.39 20.3379C726.985 20.1035 726.522 19.9863 726.001 19.9863ZM737.269 18.6855C738.118 18.6855 738.842 18.8584 739.439 19.2041C740.043 19.5439 740.506 20.0186 740.828 20.6279C741.15 21.2314 741.335 21.9287 741.382 22.7197C741.382 22.9189 741.338 23.0596 741.25 23.1416C741.168 23.2236 741.027 23.2646 740.828 23.2646H734.465C734.506 24.1377 734.764 24.7998 735.238 25.251C735.719 25.6963 736.396 25.9189 737.269 25.9189C737.808 25.9189 738.341 25.8516 738.868 25.7168C739.396 25.5762 739.858 25.3916 740.257 25.1631C740.356 25.1104 740.447 25.084 740.529 25.084C740.734 25.084 740.901 25.2393 741.03 25.5498C741.083 25.6729 741.109 25.7842 741.109 25.8838C741.109 26.1182 740.98 26.2998 740.723 26.4287C740.271 26.6572 739.738 26.8418 739.123 26.9824C738.508 27.123 737.89 27.1934 737.269 27.1934C736.384 27.1934 735.628 27.0234 735.001 26.6836C734.374 26.3438 733.896 25.8545 733.568 25.2158C733.24 24.5771 733.076 23.8184 733.076 22.9395C733.076 22.1016 733.255 21.3604 733.612 20.7158C733.97 20.0713 734.465 19.5732 735.098 19.2217C735.73 18.8643 736.454 18.6855 737.269 18.6855ZM737.269 19.96C736.548 19.96 735.95 20.1445 735.476 20.5137C735.007 20.877 734.699 21.3838 734.553 22.0342H739.923C739.8 21.3604 739.516 20.8477 739.07 20.4961C738.631 20.1387 738.03 19.96 737.269 19.96Z" fill="black"/>
<path d="M691.688 75.4688C691.888 75.4688 692.028 75.5156 692.11 75.6094C692.198 75.6973 692.242 75.8496 692.242 76.0664V85.8047H692.963C693.162 85.8047 693.303 85.8516 693.385 85.9453C693.473 86.0332 693.517 86.1855 693.517 86.4023C693.517 86.6191 693.473 86.7744 693.385 86.8682C693.303 86.9561 693.162 87 692.963 87H691.565C691.366 87 691.223 86.9561 691.135 86.8682C691.053 86.7744 691.012 86.6191 691.012 86.4023V85.6992C690.643 86.1797 690.215 86.5488 689.729 86.8066C689.242 87.0645 688.712 87.1934 688.138 87.1934C687.411 87.1934 686.761 87.0234 686.187 86.6836C685.612 86.3379 685.161 85.8457 684.833 85.207C684.505 84.5625 684.341 83.8066 684.341 82.9395C684.341 82.0723 684.505 81.3193 684.833 80.6807C685.161 80.0361 685.612 79.5439 686.187 79.2041C686.761 78.8584 687.411 78.6855 688.138 78.6855C689.239 78.6855 690.168 79.1689 690.924 80.1357V76.6641H689.5C689.301 76.6641 689.157 76.6201 689.069 76.5322C688.987 76.4385 688.946 76.2832 688.946 76.0664C688.946 75.8496 688.987 75.6973 689.069 75.6094C689.157 75.5156 689.301 75.4688 689.5 75.4688H691.688ZM688.226 79.9863C687.704 79.9863 687.256 80.1123 686.881 80.3643C686.506 80.6104 686.219 80.9561 686.02 81.4014C685.826 81.8467 685.729 82.3594 685.729 82.9395C685.729 83.5195 685.826 84.0322 686.02 84.4775C686.219 84.9229 686.506 85.2715 686.881 85.5234C687.256 85.7695 687.704 85.8926 688.226 85.8926C688.747 85.8926 689.21 85.7754 689.614 85.541C690.024 85.3066 690.344 84.9668 690.572 84.5215C690.807 84.0762 690.924 83.5488 690.924 82.9395C690.924 82.3301 690.807 81.8027 690.572 81.3574C690.344 80.9121 690.024 80.5723 689.614 80.3379C689.21 80.1035 688.747 79.9863 688.226 79.9863ZM699.449 78.6855C700.551 78.6855 701.377 78.9316 701.928 79.4238C702.479 79.916 702.754 80.6455 702.754 81.6123V85.1104C702.754 85.5732 702.947 85.8047 703.334 85.8047H703.642C703.841 85.8047 703.981 85.8516 704.063 85.9453C704.151 86.0332 704.195 86.1855 704.195 86.4023C704.195 86.6191 704.151 86.7744 704.063 86.8682C703.981 86.9561 703.841 87 703.642 87H703.079C702.698 87 702.37 86.9062 702.095 86.7188C701.825 86.5254 701.649 86.2441 701.567 85.875C701.087 86.2969 700.565 86.6221 700.003 86.8506C699.446 87.0791 698.854 87.1934 698.228 87.1934C697.636 87.1934 697.111 87.0938 696.654 86.8945C696.203 86.6895 695.849 86.3936 695.591 86.0068C695.333 85.6201 695.204 85.1602 695.204 84.627C695.204 83.7012 695.535 83.0186 696.197 82.5791C696.859 82.1338 697.715 81.9111 698.764 81.9111C699.695 81.9111 700.586 82.0605 701.436 82.3594V81.6123C701.436 81.0439 701.274 80.6279 700.952 80.3643C700.636 80.0947 700.123 79.96 699.414 79.96C698.975 79.96 698.518 80.0215 698.043 80.1445C697.568 80.2676 697.117 80.4375 696.689 80.6543C696.59 80.707 696.499 80.7334 696.417 80.7334C696.224 80.7334 696.062 80.5928 695.934 80.3115C695.869 80.1709 695.837 80.0537 695.837 79.96C695.837 79.7549 695.945 79.5967 696.162 79.4854C696.654 79.2275 697.182 79.0312 697.744 78.8965C698.312 78.7559 698.881 78.6855 699.449 78.6855ZM698.772 83.1504C698.099 83.1504 697.565 83.2676 697.173 83.502C696.786 83.7305 696.593 84.0967 696.593 84.6006C696.593 85.0283 696.739 85.3623 697.032 85.6025C697.331 85.8369 697.747 85.9541 698.28 85.9541C699.446 85.9541 700.498 85.4707 701.436 84.5039V83.5459C701.037 83.417 700.609 83.3203 700.152 83.2559C699.695 83.1855 699.235 83.1504 698.772 83.1504ZM708.836 76.374C709.076 76.374 709.246 76.418 709.346 76.5059C709.445 76.5938 709.495 76.7402 709.495 76.9453V79.582H713.107C713.307 79.582 713.447 79.6289 713.529 79.7227C713.617 79.8105 713.661 79.9629 713.661 80.1797C713.661 80.3965 713.617 80.5518 713.529 80.6455C713.447 80.7334 713.307 80.7773 713.107 80.7773H709.495V83.9766C709.495 84.6445 709.609 85.1338 709.838 85.4443C710.072 85.7549 710.477 85.9102 711.051 85.9102C711.443 85.9102 711.856 85.8311 712.29 85.6729C712.724 85.5146 713.143 85.3037 713.547 85.04C713.629 84.9814 713.72 84.9521 713.819 84.9521C714.019 84.9521 714.188 85.0869 714.329 85.3564C714.405 85.5088 714.443 85.6406 714.443 85.752C714.443 85.9395 714.347 86.0918 714.153 86.209C713.696 86.4961 713.187 86.7334 712.624 86.9209C712.062 87.1025 711.537 87.1934 711.051 87.1934C710.055 87.1934 709.325 86.9355 708.862 86.4199C708.405 85.8984 708.177 85.1221 708.177 84.0908V80.7773H706.393C706.193 80.7773 706.05 80.7334 705.962 80.6455C705.88 80.5518 705.839 80.3965 705.839 80.1797C705.839 79.9629 705.88 79.8105 705.962 79.7227C706.05 79.6289 706.193 79.582 706.393 79.582H708.177V76.9453C708.177 76.7402 708.227 76.5938 708.326 76.5059C708.426 76.418 708.596 76.374 708.836 76.374ZM721.035 78.6855C722.137 78.6855 722.963 78.9316 723.514 79.4238C724.064 79.916 724.34 80.6455 724.34 81.6123V85.1104C724.34 85.5732 724.533 85.8047 724.92 85.8047H725.228C725.427 85.8047 725.567 85.8516 725.649 85.9453C725.737 86.0332 725.781 86.1855 725.781 86.4023C725.781 86.6191 725.737 86.7744 725.649 86.8682C725.567 86.9561 725.427 87 725.228 87H724.665C724.284 87 723.956 86.9062 723.681 86.7188C723.411 86.5254 723.235 86.2441 723.153 85.875C722.673 86.2969 722.151 86.6221 721.589 86.8506C721.032 87.0791 720.44 87.1934 719.813 87.1934C719.222 87.1934 718.697 87.0938 718.24 86.8945C717.789 86.6895 717.435 86.3936 717.177 86.0068C716.919 85.6201 716.79 85.1602 716.79 84.627C716.79 83.7012 717.121 83.0186 717.783 82.5791C718.445 82.1338 719.301 81.9111 720.35 81.9111C721.281 81.9111 722.172 82.0605 723.021 82.3594V81.6123C723.021 81.0439 722.86 80.6279 722.538 80.3643C722.222 80.0947 721.709 79.96 721 79.96C720.561 79.96 720.104 80.0215 719.629 80.1445C719.154 80.2676 718.703 80.4375 718.275 80.6543C718.176 80.707 718.085 80.7334 718.003 80.7334C717.81 80.7334 717.648 80.5928 717.52 80.3115C717.455 80.1709 717.423 80.0537 717.423 79.96C717.423 79.7549 717.531 79.5967 717.748 79.4854C718.24 79.2275 718.768 79.0312 719.33 78.8965C719.898 78.7559 720.467 78.6855 721.035 78.6855ZM720.358 83.1504C719.685 83.1504 719.151 83.2676 718.759 83.502C718.372 83.7305 718.179 84.0967 718.179 84.6006C718.179 85.0283 718.325 85.3623 718.618 85.6025C718.917 85.8369 719.333 85.9541 719.866 85.9541C721.032 85.9541 722.084 85.4707 723.021 84.5039V83.5459C722.623 83.417 722.195 83.3203 721.738 83.2559C721.281 83.1855 720.821 83.1504 720.358 83.1504ZM735.142 79.5293C735.341 79.5293 735.481 79.5762 735.563 79.6699C735.651 79.7578 735.695 79.9102 735.695 80.127C735.695 80.3438 735.651 80.499 735.563 80.5928C735.481 80.6807 735.341 80.7246 735.142 80.7246H728.444C728.245 80.7246 728.102 80.6807 728.014 80.5928C727.932 80.499 727.891 80.3438 727.891 80.127C727.891 79.9102 727.932 79.7578 728.014 79.6699C728.102 79.5762 728.245 79.5293 728.444 79.5293H735.142ZM735.142 83.0449C735.341 83.0449 735.481 83.0918 735.563 83.1855C735.651 83.2734 735.695 83.4258 735.695 83.6426C735.695 83.8594 735.651 84.0146 735.563 84.1084C735.481 84.1963 735.341 84.2402 735.142 84.2402H728.444C728.245 84.2402 728.102 84.1963 728.014 84.1084C727.932 84.0146 727.891 83.8594 727.891 83.6426C727.891 83.4258 727.932 83.2734 728.014 83.1855C728.102 83.0918 728.245 83.0449 728.444 83.0449H735.142ZM743.79 76.374C744.3 76.374 744.555 76.6025 744.555 77.0596V82.6406H745.979C746.178 82.6406 746.318 82.6875 746.4 82.7812C746.488 82.8691 746.532 83.0215 746.532 83.2383C746.532 83.4551 746.488 83.6104 746.4 83.7041C746.318 83.792 746.178 83.8359 745.979 83.8359H744.555V85.8047H745.715C745.914 85.8047 746.055 85.8516 746.137 85.9453C746.225 86.0332 746.269 86.1855 746.269 86.4023C746.269 86.6191 746.225 86.7744 746.137 86.8682C746.055 86.9561 745.914 87 745.715 87H741.936C741.736 87 741.593 86.9561 741.505 86.8682C741.423 86.7744 741.382 86.6191 741.382 86.4023C741.382 86.1855 741.423 86.0332 741.505 85.9453C741.593 85.8516 741.736 85.8047 741.936 85.8047H743.236V83.8359H739.035C738.836 83.8359 738.692 83.792 738.604 83.7041C738.522 83.6104 738.481 83.4551 738.481 83.2383C738.481 83.0449 738.511 82.9072 738.569 82.8252L742.823 76.9102C742.952 76.7285 743.09 76.5938 743.236 76.5059C743.383 76.418 743.567 76.374 743.79 76.374ZM740.23 82.6406H743.236L743.307 78.2812L740.23 82.6406ZM756.473 76.5674C756.672 76.5674 756.812 76.6143 756.895 76.708C756.982 76.7959 757.026 76.9482 757.026 77.165C757.026 77.3057 757.009 77.4229 756.974 77.5166L753.229 86.7891C753.177 86.9238 753.092 87.0234 752.975 87.0879C752.863 87.1582 752.729 87.1934 752.57 87.1934C752.359 87.1934 752.187 87.1494 752.052 87.0615C751.923 86.9795 751.858 86.8682 751.858 86.7275C751.858 86.6455 751.873 86.5723 751.902 86.5078L755.479 77.7627H751.313V79.0459C751.313 79.251 751.264 79.3975 751.164 79.4854C751.064 79.5732 750.895 79.6172 750.654 79.6172C750.414 79.6172 750.244 79.5732 750.145 79.4854C750.045 79.3975 749.995 79.251 749.995 79.0459V77.165C749.995 76.9482 750.036 76.7959 750.118 76.708C750.206 76.6143 750.35 76.5674 750.549 76.5674H756.473Z" fill="black"/>
<path d="M705.804 138.686C706.337 138.686 706.8 138.803 707.192 139.037C707.585 139.266 707.887 139.597 708.098 140.03C708.309 140.464 708.414 140.971 708.414 141.551V145.805H709.135C709.334 145.805 709.475 145.852 709.557 145.945C709.645 146.033 709.688 146.186 709.688 146.402C709.688 146.619 709.645 146.774 709.557 146.868C709.475 146.956 709.334 147 709.135 147H706.287C706.088 147 705.944 146.956 705.856 146.868C705.774 146.774 705.733 146.619 705.733 146.402C705.733 146.186 705.774 146.033 705.856 145.945C705.944 145.852 706.088 145.805 706.287 145.805H707.096V141.683C707.096 141.161 706.976 140.748 706.735 140.443C706.495 140.139 706.141 139.986 705.672 139.986C705.174 139.986 704.708 140.13 704.274 140.417C703.847 140.704 703.504 141.1 703.246 141.604C702.988 142.107 702.859 142.67 702.859 143.291V145.805H703.668C703.867 145.805 704.008 145.852 704.09 145.945C704.178 146.033 704.222 146.186 704.222 146.402C704.222 146.619 704.178 146.774 704.09 146.868C704.008 146.956 703.867 147 703.668 147H700.82C700.621 147 700.478 146.956 700.39 146.868C700.308 146.774 700.267 146.619 700.267 146.402C700.267 146.186 700.308 146.033 700.39 145.945C700.478 145.852 700.621 145.805 700.82 145.805H701.541V140.074H700.645C700.445 140.074 700.302 140.03 700.214 139.942C700.132 139.849 700.091 139.693 700.091 139.477C700.091 139.26 700.132 139.107 700.214 139.02C700.302 138.926 700.445 138.879 700.645 138.879H702.218C702.417 138.879 702.558 138.926 702.64 139.02C702.728 139.107 702.771 139.26 702.771 139.477V140.531C703.158 139.934 703.609 139.477 704.125 139.16C704.646 138.844 705.206 138.686 705.804 138.686ZM715.683 138.686C716.532 138.686 717.256 138.858 717.854 139.204C718.457 139.544 718.92 140.019 719.242 140.628C719.564 141.231 719.749 141.929 719.796 142.72C719.796 142.919 719.752 143.06 719.664 143.142C719.582 143.224 719.441 143.265 719.242 143.265H712.879C712.92 144.138 713.178 144.8 713.652 145.251C714.133 145.696 714.81 145.919 715.683 145.919C716.222 145.919 716.755 145.852 717.282 145.717C717.81 145.576 718.272 145.392 718.671 145.163C718.771 145.11 718.861 145.084 718.943 145.084C719.148 145.084 719.315 145.239 719.444 145.55C719.497 145.673 719.523 145.784 719.523 145.884C719.523 146.118 719.395 146.3 719.137 146.429C718.686 146.657 718.152 146.842 717.537 146.982C716.922 147.123 716.304 147.193 715.683 147.193C714.798 147.193 714.042 147.023 713.415 146.684C712.788 146.344 712.311 145.854 711.982 145.216C711.654 144.577 711.49 143.818 711.49 142.939C711.49 142.102 711.669 141.36 712.026 140.716C712.384 140.071 712.879 139.573 713.512 139.222C714.145 138.864 714.868 138.686 715.683 138.686ZM715.683 139.96C714.962 139.96 714.364 140.145 713.89 140.514C713.421 140.877 713.113 141.384 712.967 142.034H718.337C718.214 141.36 717.93 140.848 717.484 140.496C717.045 140.139 716.444 139.96 715.683 139.96ZM730.536 138.879C730.735 138.879 730.876 138.926 730.958 139.02C731.046 139.107 731.09 139.26 731.09 139.477C731.09 139.693 731.046 139.849 730.958 139.942C730.876 140.03 730.735 140.074 730.536 140.074H729.965L727.354 142.825L730.176 145.805H730.624C730.823 145.805 730.964 145.852 731.046 145.945C731.134 146.033 731.178 146.186 731.178 146.402C731.178 146.619 731.134 146.774 731.046 146.868C730.964 146.956 730.823 147 730.624 147H727.601C727.401 147 727.258 146.956 727.17 146.868C727.088 146.774 727.047 146.619 727.047 146.402C727.047 146.186 727.088 146.033 727.17 145.945C727.258 145.852 727.401 145.805 727.601 145.805H728.444L726.335 143.537L724.234 145.805H724.929C725.128 145.805 725.269 145.852 725.351 145.945C725.438 146.033 725.482 146.186 725.482 146.402C725.482 146.619 725.438 146.774 725.351 146.868C725.269 146.956 725.128 147 724.929 147H722.169C721.97 147 721.826 146.956 721.738 146.868C721.656 146.774 721.615 146.619 721.615 146.402C721.615 146.186 721.656 146.033 721.738 145.945C721.826 145.852 721.97 145.805 722.169 145.805H722.608L725.465 142.808L722.881 140.074H722.257C722.058 140.074 721.914 140.03 721.826 139.942C721.744 139.849 721.703 139.693 721.703 139.477C721.703 139.26 721.744 139.107 721.826 139.02C721.914 138.926 722.058 138.879 722.257 138.879H725.28C725.479 138.879 725.62 138.926 725.702 139.02C725.79 139.107 725.834 139.26 725.834 139.477C725.834 139.693 725.79 139.849 725.702 139.942C725.62 140.03 725.479 140.074 725.28 140.074H724.612L726.476 142.096L728.348 140.074H727.864C727.665 140.074 727.521 140.03 727.434 139.942C727.352 139.849 727.311 139.693 727.311 139.477C727.311 139.26 727.352 139.107 727.434 139.02C727.521 138.926 727.665 138.879 727.864 138.879H730.536ZM735.818 136.374C736.059 136.374 736.229 136.418 736.328 136.506C736.428 136.594 736.478 136.74 736.478 136.945V139.582H740.09C740.289 139.582 740.43 139.629 740.512 139.723C740.6 139.811 740.644 139.963 740.644 140.18C740.644 140.396 740.6 140.552 740.512 140.646C740.43 140.733 740.289 140.777 740.09 140.777H736.478V143.977C736.478 144.645 736.592 145.134 736.82 145.444C737.055 145.755 737.459 145.91 738.033 145.91C738.426 145.91 738.839 145.831 739.272 145.673C739.706 145.515 740.125 145.304 740.529 145.04C740.611 144.981 740.702 144.952 740.802 144.952C741.001 144.952 741.171 145.087 741.312 145.356C741.388 145.509 741.426 145.641 741.426 145.752C741.426 145.939 741.329 146.092 741.136 146.209C740.679 146.496 740.169 146.733 739.606 146.921C739.044 147.103 738.52 147.193 738.033 147.193C737.037 147.193 736.308 146.936 735.845 146.42C735.388 145.898 735.159 145.122 735.159 144.091V140.777H733.375C733.176 140.777 733.032 140.733 732.944 140.646C732.862 140.552 732.821 140.396 732.821 140.18C732.821 139.963 732.862 139.811 732.944 139.723C733.032 139.629 733.176 139.582 733.375 139.582H735.159V136.945C735.159 136.74 735.209 136.594 735.309 136.506C735.408 136.418 735.578 136.374 735.818 136.374Z" fill="black"/>
<rect x="437" y="41" width="148" height="148" fill="white" stroke="black" stroke-width="2"/>
<path d="M499.038 16.5674C499.237 16.5674 499.378 16.6143 499.46 16.708C499.548 16.7959 499.592 16.9482 499.592 17.165C499.592 17.3818 499.548 17.5371 499.46 17.6309C499.378 17.7188 499.237 17.7627 499.038 17.7627H498.537V26.6748C498.537 26.833 498.481 26.959 498.37 27.0527C498.265 27.1465 498.101 27.1934 497.878 27.1934C497.567 27.1934 497.321 27.0322 497.14 26.71L492.578 18.5625H492.543V25.8047H493.782C493.981 25.8047 494.122 25.8516 494.204 25.9453C494.292 26.0332 494.336 26.1855 494.336 26.4023C494.336 26.6191 494.292 26.7744 494.204 26.8682C494.122 26.9561 493.981 27 493.782 27H490.671C490.472 27 490.328 26.9561 490.24 26.8682C490.158 26.7744 490.117 26.6191 490.117 26.4023C490.117 26.1855 490.158 26.0332 490.24 25.9453C490.328 25.8516 490.472 25.8047 490.671 25.8047H491.26V17.7627H490.583C490.384 17.7627 490.24 17.7188 490.152 17.6309C490.07 17.5371 490.029 17.3818 490.029 17.165C490.029 16.9482 490.07 16.7959 490.152 16.708C490.24 16.6143 490.384 16.5674 490.583 16.5674H492.552C492.681 16.5674 492.783 16.5879 492.859 16.6289C492.941 16.6699 493.006 16.7314 493.053 16.8135L497.219 24.2666H497.254V17.7627H496.19C495.991 17.7627 495.848 17.7188 495.76 17.6309C495.678 17.5371 495.637 17.3818 495.637 17.165C495.637 16.9482 495.678 16.7959 495.76 16.708C495.848 16.6143 495.991 16.5674 496.19 16.5674H499.038ZM505.604 18.6855C506.406 18.6855 507.13 18.8672 507.774 19.2305C508.419 19.5938 508.923 20.1006 509.286 20.751C509.655 21.3955 509.84 22.125 509.84 22.9395C509.84 23.7539 509.655 24.4863 509.286 25.1367C508.923 25.7812 508.419 26.2852 507.774 26.6484C507.13 27.0117 506.406 27.1934 505.604 27.1934C504.801 27.1934 504.077 27.0117 503.433 26.6484C502.788 26.2852 502.281 25.7812 501.912 25.1367C501.549 24.4863 501.367 23.7539 501.367 22.9395C501.367 22.125 501.549 21.3955 501.912 20.751C502.281 20.1006 502.788 19.5938 503.433 19.2305C504.077 18.8672 504.801 18.6855 505.604 18.6855ZM505.604 19.9863C505.035 19.9863 504.534 20.1123 504.101 20.3643C503.673 20.6104 503.342 20.959 503.107 21.4102C502.873 21.8555 502.756 22.3652 502.756 22.9395C502.756 23.5137 502.873 24.0264 503.107 24.4775C503.342 24.9229 503.673 25.2715 504.101 25.5234C504.534 25.7695 505.035 25.8926 505.604 25.8926C506.172 25.8926 506.67 25.7695 507.098 25.5234C507.531 25.2715 507.865 24.9229 508.1 24.4775C508.334 24.0264 508.451 23.5137 508.451 22.9395C508.451 22.3652 508.334 21.8555 508.1 21.4102C507.865 20.959 507.531 20.6104 507.098 20.3643C506.67 20.1123 506.172 19.9863 505.604 19.9863ZM519.464 15.4688C519.663 15.4688 519.804 15.5156 519.886 15.6094C519.974 15.6973 520.018 15.8496 520.018 16.0664V25.8047H520.738C520.938 25.8047 521.078 25.8516 521.16 25.9453C521.248 26.0332 521.292 26.1855 521.292 26.4023C521.292 26.6191 521.248 26.7744 521.16 26.8682C521.078 26.9561 520.938 27 520.738 27H519.341C519.142 27 518.998 26.9561 518.91 26.8682C518.828 26.7744 518.787 26.6191 518.787 26.4023V25.6992C518.418 26.1797 517.99 26.5488 517.504 26.8066C517.018 27.0645 516.487 27.1934 515.913 27.1934C515.187 27.1934 514.536 27.0234 513.962 26.6836C513.388 26.3379 512.937 25.8457 512.608 25.207C512.28 24.5625 512.116 23.8066 512.116 22.9395C512.116 22.0723 512.28 21.3193 512.608 20.6807C512.937 20.0361 513.388 19.5439 513.962 19.2041C514.536 18.8584 515.187 18.6855 515.913 18.6855C517.015 18.6855 517.943 19.1689 518.699 20.1357V16.6641H517.275C517.076 16.6641 516.933 16.6201 516.845 16.5322C516.763 16.4385 516.722 16.2832 516.722 16.0664C516.722 15.8496 516.763 15.6973 516.845 15.6094C516.933 15.5156 517.076 15.4688 517.275 15.4688H519.464ZM516.001 19.9863C515.479 19.9863 515.031 20.1123 514.656 20.3643C514.281 20.6104 513.994 20.9561 513.795 21.4014C513.602 21.8467 513.505 22.3594 513.505 22.9395C513.505 23.5195 513.602 24.0322 513.795 24.4775C513.994 24.9229 514.281 25.2715 514.656 25.5234C515.031 25.7695 515.479 25.8926 516.001 25.8926C516.522 25.8926 516.985 25.7754 517.39 25.541C517.8 25.3066 518.119 24.9668 518.348 24.5215C518.582 24.0762 518.699 23.5488 518.699 22.9395C518.699 22.3301 518.582 21.8027 518.348 21.3574C518.119 20.9121 517.8 20.5723 517.39 20.3379C516.985 20.1035 516.522 19.9863 516.001 19.9863ZM527.269 18.6855C528.118 18.6855 528.842 18.8584 529.439 19.2041C530.043 19.5439 530.506 20.0186 530.828 20.6279C531.15 21.2314 531.335 21.9287 531.382 22.7197C531.382 22.9189 531.338 23.0596 531.25 23.1416C531.168 23.2236 531.027 23.2646 530.828 23.2646H524.465C524.506 24.1377 524.764 24.7998 525.238 25.251C525.719 25.6963 526.396 25.9189 527.269 25.9189C527.808 25.9189 528.341 25.8516 528.868 25.7168C529.396 25.5762 529.858 25.3916 530.257 25.1631C530.356 25.1104 530.447 25.084 530.529 25.084C530.734 25.084 530.901 25.2393 531.03 25.5498C531.083 25.6729 531.109 25.7842 531.109 25.8838C531.109 26.1182 530.98 26.2998 530.723 26.4287C530.271 26.6572 529.738 26.8418 529.123 26.9824C528.508 27.123 527.89 27.1934 527.269 27.1934C526.384 27.1934 525.628 27.0234 525.001 26.6836C524.374 26.3438 523.896 25.8545 523.568 25.2158C523.24 24.5771 523.076 23.8184 523.076 22.9395C523.076 22.1016 523.255 21.3604 523.612 20.7158C523.97 20.0713 524.465 19.5732 525.098 19.2217C525.73 18.8643 526.454 18.6855 527.269 18.6855ZM527.269 19.96C526.548 19.96 525.95 20.1445 525.476 20.5137C525.007 20.877 524.699 21.3838 524.553 22.0342H529.923C529.8 21.3604 529.516 20.8477 529.07 20.4961C528.631 20.1387 528.03 19.96 527.269 19.96Z" fill="black"/>
<path d="M481.688 75.4688C481.888 75.4688 482.028 75.5156 482.11 75.6094C482.198 75.6973 482.242 75.8496 482.242 76.0664V85.8047H482.963C483.162 85.8047 483.303 85.8516 483.385 85.9453C483.473 86.0332 483.517 86.1855 483.517 86.4023C483.517 86.6191 483.473 86.7744 483.385 86.8682C483.303 86.9561 483.162 87 482.963 87H481.565C481.366 87 481.223 86.9561 481.135 86.8682C481.053 86.7744 481.012 86.6191 481.012 86.4023V85.6992C480.643 86.1797 480.215 86.5488 479.729 86.8066C479.242 87.0645 478.712 87.1934 478.138 87.1934C477.411 87.1934 476.761 87.0234 476.187 86.6836C475.612 86.3379 475.161 85.8457 474.833 85.207C474.505 84.5625 474.341 83.8066 474.341 82.9395C474.341 82.0723 474.505 81.3193 474.833 80.6807C475.161 80.0361 475.612 79.5439 476.187 79.2041C476.761 78.8584 477.411 78.6855 478.138 78.6855C479.239 78.6855 480.168 79.1689 480.924 80.1357V76.6641H479.5C479.301 76.6641 479.157 76.6201 479.069 76.5322C478.987 76.4385 478.946 76.2832 478.946 76.0664C478.946 75.8496 478.987 75.6973 479.069 75.6094C479.157 75.5156 479.301 75.4688 479.5 75.4688H481.688ZM478.226 79.9863C477.704 79.9863 477.256 80.1123 476.881 80.3643C476.506 80.6104 476.219 80.9561 476.02 81.4014C475.826 81.8467 475.729 82.3594 475.729 82.9395C475.729 83.5195 475.826 84.0322 476.02 84.4775C476.219 84.9229 476.506 85.2715 476.881 85.5234C477.256 85.7695 477.704 85.8926 478.226 85.8926C478.747 85.8926 479.21 85.7754 479.614 85.541C480.024 85.3066 480.344 84.9668 480.572 84.5215C480.807 84.0762 480.924 83.5488 480.924 82.9395C480.924 82.3301 480.807 81.8027 480.572 81.3574C480.344 80.9121 480.024 80.5723 479.614 80.3379C479.21 80.1035 478.747 79.9863 478.226 79.9863ZM489.449 78.6855C490.551 78.6855 491.377 78.9316 491.928 79.4238C492.479 79.916 492.754 80.6455 492.754 81.6123V85.1104C492.754 85.5732 492.947 85.8047 493.334 85.8047H493.642C493.841 85.8047 493.981 85.8516 494.063 85.9453C494.151 86.0332 494.195 86.1855 494.195 86.4023C494.195 86.6191 494.151 86.7744 494.063 86.8682C493.981 86.9561 493.841 87 493.642 87H493.079C492.698 87 492.37 86.9062 492.095 86.7188C491.825 86.5254 491.649 86.2441 491.567 85.875C491.087 86.2969 490.565 86.6221 490.003 86.8506C489.446 87.0791 488.854 87.1934 488.228 87.1934C487.636 87.1934 487.111 87.0938 486.654 86.8945C486.203 86.6895 485.849 86.3936 485.591 86.0068C485.333 85.6201 485.204 85.1602 485.204 84.627C485.204 83.7012 485.535 83.0186 486.197 82.5791C486.859 82.1338 487.715 81.9111 488.764 81.9111C489.695 81.9111 490.586 82.0605 491.436 82.3594V81.6123C491.436 81.0439 491.274 80.6279 490.952 80.3643C490.636 80.0947 490.123 79.96 489.414 79.96C488.975 79.96 488.518 80.0215 488.043 80.1445C487.568 80.2676 487.117 80.4375 486.689 80.6543C486.59 80.707 486.499 80.7334 486.417 80.7334C486.224 80.7334 486.062 80.5928 485.934 80.3115C485.869 80.1709 485.837 80.0537 485.837 79.96C485.837 79.7549 485.945 79.5967 486.162 79.4854C486.654 79.2275 487.182 79.0312 487.744 78.8965C488.312 78.7559 488.881 78.6855 489.449 78.6855ZM488.772 83.1504C488.099 83.1504 487.565 83.2676 487.173 83.502C486.786 83.7305 486.593 84.0967 486.593 84.6006C486.593 85.0283 486.739 85.3623 487.032 85.6025C487.331 85.8369 487.747 85.9541 488.28 85.9541C489.446 85.9541 490.498 85.4707 491.436 84.5039V83.5459C491.037 83.417 490.609 83.3203 490.152 83.2559C489.695 83.1855 489.235 83.1504 488.772 83.1504ZM498.836 76.374C499.076 76.374 499.246 76.418 499.346 76.5059C499.445 76.5938 499.495 76.7402 499.495 76.9453V79.582H503.107C503.307 79.582 503.447 79.6289 503.529 79.7227C503.617 79.8105 503.661 79.9629 503.661 80.1797C503.661 80.3965 503.617 80.5518 503.529 80.6455C503.447 80.7334 503.307 80.7773 503.107 80.7773H499.495V83.9766C499.495 84.6445 499.609 85.1338 499.838 85.4443C500.072 85.7549 500.477 85.9102 501.051 85.9102C501.443 85.9102 501.856 85.8311 502.29 85.6729C502.724 85.5146 503.143 85.3037 503.547 85.04C503.629 84.9814 503.72 84.9521 503.819 84.9521C504.019 84.9521 504.188 85.0869 504.329 85.3564C504.405 85.5088 504.443 85.6406 504.443 85.752C504.443 85.9395 504.347 86.0918 504.153 86.209C503.696 86.4961 503.187 86.7334 502.624 86.9209C502.062 87.1025 501.537 87.1934 501.051 87.1934C500.055 87.1934 499.325 86.9355 498.862 86.4199C498.405 85.8984 498.177 85.1221 498.177 84.0908V80.7773H496.393C496.193 80.7773 496.05 80.7334 495.962 80.6455C495.88 80.5518 495.839 80.3965 495.839 80.1797C495.839 79.9629 495.88 79.8105 495.962 79.7227C496.05 79.6289 496.193 79.582 496.393 79.582H498.177V76.9453C498.177 76.7402 498.227 76.5938 498.326 76.5059C498.426 76.418 498.596 76.374 498.836 76.374ZM511.035 78.6855C512.137 78.6855 512.963 78.9316 513.514 79.4238C514.064 79.916 514.34 80.6455 514.34 81.6123V85.1104C514.34 85.5732 514.533 85.8047 514.92 85.8047H515.228C515.427 85.8047 515.567 85.8516 515.649 85.9453C515.737 86.0332 515.781 86.1855 515.781 86.4023C515.781 86.6191 515.737 86.7744 515.649 86.8682C515.567 86.9561 515.427 87 515.228 87H514.665C514.284 87 513.956 86.9062 513.681 86.7188C513.411 86.5254 513.235 86.2441 513.153 85.875C512.673 86.2969 512.151 86.6221 511.589 86.8506C511.032 87.0791 510.44 87.1934 509.813 87.1934C509.222 87.1934 508.697 87.0938 508.24 86.8945C507.789 86.6895 507.435 86.3936 507.177 86.0068C506.919 85.6201 506.79 85.1602 506.79 84.627C506.79 83.7012 507.121 83.0186 507.783 82.5791C508.445 82.1338 509.301 81.9111 510.35 81.9111C511.281 81.9111 512.172 82.0605 513.021 82.3594V81.6123C513.021 81.0439 512.86 80.6279 512.538 80.3643C512.222 80.0947 511.709 79.96 511 79.96C510.561 79.96 510.104 80.0215 509.629 80.1445C509.154 80.2676 508.703 80.4375 508.275 80.6543C508.176 80.707 508.085 80.7334 508.003 80.7334C507.81 80.7334 507.648 80.5928 507.52 80.3115C507.455 80.1709 507.423 80.0537 507.423 79.96C507.423 79.7549 507.531 79.5967 507.748 79.4854C508.24 79.2275 508.768 79.0312 509.33 78.8965C509.898 78.7559 510.467 78.6855 511.035 78.6855ZM510.358 83.1504C509.685 83.1504 509.151 83.2676 508.759 83.502C508.372 83.7305 508.179 84.0967 508.179 84.6006C508.179 85.0283 508.325 85.3623 508.618 85.6025C508.917 85.8369 509.333 85.9541 509.866 85.9541C511.032 85.9541 512.084 85.4707 513.021 84.5039V83.5459C512.623 83.417 512.195 83.3203 511.738 83.2559C511.281 83.1855 510.821 83.1504 510.358 83.1504ZM525.142 79.5293C525.341 79.5293 525.481 79.5762 525.563 79.6699C525.651 79.7578 525.695 79.9102 525.695 80.127C525.695 80.3438 525.651 80.499 525.563 80.5928C525.481 80.6807 525.341 80.7246 525.142 80.7246H518.444C518.245 80.7246 518.102 80.6807 518.014 80.5928C517.932 80.499 517.891 80.3438 517.891 80.127C517.891 79.9102 517.932 79.7578 518.014 79.6699C518.102 79.5762 518.245 79.5293 518.444 79.5293H525.142ZM525.142 83.0449C525.341 83.0449 525.481 83.0918 525.563 83.1855C525.651 83.2734 525.695 83.4258 525.695 83.6426C525.695 83.8594 525.651 84.0146 525.563 84.1084C525.481 84.1963 525.341 84.2402 525.142 84.2402H518.444C518.245 84.2402 518.102 84.1963 518.014 84.1084C517.932 84.0146 517.891 83.8594 517.891 83.6426C517.891 83.4258 517.932 83.2734 518.014 83.1855C518.102 83.0918 518.245 83.0449 518.444 83.0449H525.142ZM535.249 76.374C535.407 76.3682 535.53 76.4209 535.618 76.5322C535.712 76.6436 535.759 76.8486 535.759 77.1475C535.759 77.3291 535.729 77.4609 535.671 77.543C535.618 77.6191 535.539 77.6602 535.434 77.666C533.875 77.748 532.677 78.1523 531.839 78.8789C531.001 79.5996 530.5 80.5811 530.336 81.8232C530.641 81.4248 531.016 81.1172 531.461 80.9004C531.906 80.6836 532.381 80.5752 532.885 80.5752C533.529 80.5752 534.109 80.7129 534.625 80.9883C535.146 81.2637 535.554 81.6533 535.847 82.1572C536.146 82.6611 536.295 83.2412 536.295 83.8975C536.295 84.5303 536.146 85.0986 535.847 85.6025C535.548 86.1006 535.123 86.4902 534.572 86.7715C534.027 87.0527 533.4 87.1934 532.691 87.1934C532.053 87.1934 531.464 87.0469 530.925 86.7539C530.392 86.4609 529.961 86.0361 529.633 85.4795C529.182 84.7061 528.956 83.7129 528.956 82.5C528.956 81.4863 529.17 80.5283 529.598 79.626C530.031 78.7236 530.717 77.9736 531.654 77.376C532.598 76.7725 533.796 76.4385 535.249 76.374ZM532.691 81.876C532.264 81.876 531.88 81.958 531.54 82.1221C531.2 82.2803 530.934 82.5029 530.74 82.79C530.553 83.0713 530.459 83.3965 530.459 83.7656C530.459 84.1758 530.55 84.542 530.731 84.8643C530.919 85.1865 531.18 85.4385 531.514 85.6201C531.854 85.8018 532.246 85.8926 532.691 85.8926C533.137 85.8926 533.526 85.8105 533.86 85.6465C534.194 85.4824 534.452 85.251 534.634 84.9521C534.815 84.6475 534.906 84.2959 534.906 83.8975C534.906 83.4932 534.815 83.1387 534.634 82.834C534.458 82.5293 534.203 82.2949 533.869 82.1309C533.541 81.9609 533.148 81.876 532.691 81.876ZM544.583 76.374C545.093 76.374 545.348 76.6025 545.348 77.0596V82.6406H546.771C546.971 82.6406 547.111 82.6875 547.193 82.7812C547.281 82.8691 547.325 83.0215 547.325 83.2383C547.325 83.4551 547.281 83.6104 547.193 83.7041C547.111 83.792 546.971 83.8359 546.771 83.8359H545.348V85.8047H546.508C546.707 85.8047 546.848 85.8516 546.93 85.9453C547.018 86.0332 547.062 86.1855 547.062 86.4023C547.062 86.6191 547.018 86.7744 546.93 86.8682C546.848 86.9561 546.707 87 546.508 87H542.729C542.529 87 542.386 86.9561 542.298 86.8682C542.216 86.7744 542.175 86.6191 542.175 86.4023C542.175 86.1855 542.216 86.0332 542.298 85.9453C542.386 85.8516 542.529 85.8047 542.729 85.8047H544.029V83.8359H539.828C539.629 83.8359 539.485 83.792 539.397 83.7041C539.315 83.6104 539.274 83.4551 539.274 83.2383C539.274 83.0449 539.304 82.9072 539.362 82.8252L543.616 76.9102C543.745 76.7285 543.883 76.5938 544.029 76.5059C544.176 76.418 544.36 76.374 544.583 76.374ZM541.023 82.6406H544.029L544.1 78.2812L541.023 82.6406Z" fill="black"/>
<path d="M495.804 138.686C496.337 138.686 496.8 138.803 497.192 139.037C497.585 139.266 497.887 139.597 498.098 140.03C498.309 140.464 498.414 140.971 498.414 141.551V145.805H499.135C499.334 145.805 499.475 145.852 499.557 145.945C499.645 146.033 499.688 146.186 499.688 146.402C499.688 146.619 499.645 146.774 499.557 146.868C499.475 146.956 499.334 147 499.135 147H496.287C496.088 147 495.944 146.956 495.856 146.868C495.774 146.774 495.733 146.619 495.733 146.402C495.733 146.186 495.774 146.033 495.856 145.945C495.944 145.852 496.088 145.805 496.287 145.805H497.096V141.683C497.096 141.161 496.976 140.748 496.735 140.443C496.495 140.139 496.141 139.986 495.672 139.986C495.174 139.986 494.708 140.13 494.274 140.417C493.847 140.704 493.504 141.1 493.246 141.604C492.988 142.107 492.859 142.67 492.859 143.291V145.805H493.668C493.867 145.805 494.008 145.852 494.09 145.945C494.178 146.033 494.222 146.186 494.222 146.402C494.222 146.619 494.178 146.774 494.09 146.868C494.008 146.956 493.867 147 493.668 147H490.82C490.621 147 490.478 146.956 490.39 146.868C490.308 146.774 490.267 146.619 490.267 146.402C490.267 146.186 490.308 146.033 490.39 145.945C490.478 145.852 490.621 145.805 490.82 145.805H491.541V140.074H490.645C490.445 140.074 490.302 140.03 490.214 139.942C490.132 139.849 490.091 139.693 490.091 139.477C490.091 139.26 490.132 139.107 490.214 139.02C490.302 138.926 490.445 138.879 490.645 138.879H492.218C492.417 138.879 492.558 138.926 492.64 139.02C492.728 139.107 492.771 139.26 492.771 139.477V140.531C493.158 139.934 493.609 139.477 494.125 139.16C494.646 138.844 495.206 138.686 495.804 138.686ZM505.683 138.686C506.532 138.686 507.256 138.858 507.854 139.204C508.457 139.544 508.92 140.019 509.242 140.628C509.564 141.231 509.749 141.929 509.796 142.72C509.796 142.919 509.752 143.06 509.664 143.142C509.582 143.224 509.441 143.265 509.242 143.265H502.879C502.92 144.138 503.178 144.8 503.652 145.251C504.133 145.696 504.81 145.919 505.683 145.919C506.222 145.919 506.755 145.852 507.282 145.717C507.81 145.576 508.272 145.392 508.671 145.163C508.771 145.11 508.861 145.084 508.943 145.084C509.148 145.084 509.315 145.239 509.444 145.55C509.497 145.673 509.523 145.784 509.523 145.884C509.523 146.118 509.395 146.3 509.137 146.429C508.686 146.657 508.152 146.842 507.537 146.982C506.922 147.123 506.304 147.193 505.683 147.193C504.798 147.193 504.042 147.023 503.415 146.684C502.788 146.344 502.311 145.854 501.982 145.216C501.654 144.577 501.49 143.818 501.49 142.939C501.49 142.102 501.669 141.36 502.026 140.716C502.384 140.071 502.879 139.573 503.512 139.222C504.145 138.864 504.868 138.686 505.683 138.686ZM505.683 139.96C504.962 139.96 504.364 140.145 503.89 140.514C503.421 140.877 503.113 141.384 502.967 142.034H508.337C508.214 141.36 507.93 140.848 507.484 140.496C507.045 140.139 506.444 139.96 505.683 139.96ZM520.536 138.879C520.735 138.879 520.876 138.926 520.958 139.02C521.046 139.107 521.09 139.26 521.09 139.477C521.09 139.693 521.046 139.849 520.958 139.942C520.876 140.03 520.735 140.074 520.536 140.074H519.965L517.354 142.825L520.176 145.805H520.624C520.823 145.805 520.964 145.852 521.046 145.945C521.134 146.033 521.178 146.186 521.178 146.402C521.178 146.619 521.134 146.774 521.046 146.868C520.964 146.956 520.823 147 520.624 147H517.601C517.401 147 517.258 146.956 517.17 146.868C517.088 146.774 517.047 146.619 517.047 146.402C517.047 146.186 517.088 146.033 517.17 145.945C517.258 145.852 517.401 145.805 517.601 145.805H518.444L516.335 143.537L514.234 145.805H514.929C515.128 145.805 515.269 145.852 515.351 145.945C515.438 146.033 515.482 146.186 515.482 146.402C515.482 146.619 515.438 146.774 515.351 146.868C515.269 146.956 515.128 147 514.929 147H512.169C511.97 147 511.826 146.956 511.738 146.868C511.656 146.774 511.615 146.619 511.615 146.402C511.615 146.186 511.656 146.033 511.738 145.945C511.826 145.852 511.97 145.805 512.169 145.805H512.608L515.465 142.808L512.881 140.074H512.257C512.058 140.074 511.914 140.03 511.826 139.942C511.744 139.849 511.703 139.693 511.703 139.477C511.703 139.26 511.744 139.107 511.826 139.02C511.914 138.926 512.058 138.879 512.257 138.879H515.28C515.479 138.879 515.62 138.926 515.702 139.02C515.79 139.107 515.834 139.26 515.834 139.477C515.834 139.693 515.79 139.849 515.702 139.942C515.62 140.03 515.479 140.074 515.28 140.074H514.612L516.476 142.096L518.348 140.074H517.864C517.665 140.074 517.521 140.03 517.434 139.942C517.352 139.849 517.311 139.693 517.311 139.477C517.311 139.26 517.352 139.107 517.434 139.02C517.521 138.926 517.665 138.879 517.864 138.879H520.536ZM525.818 136.374C526.059 136.374 526.229 136.418 526.328 136.506C526.428 136.594 526.478 136.74 526.478 136.945V139.582H530.09C530.289 139.582 530.43 139.629 530.512 139.723C530.6 139.811 530.644 139.963 530.644 140.18C530.644 140.396 530.6 140.552 530.512 140.646C530.43 140.733 530.289 140.777 530.09 140.777H526.478V143.977C526.478 144.645 526.592 145.134 526.82 145.444C527.055 145.755 527.459 145.91 528.033 145.91C528.426 145.91 528.839 145.831 529.272 145.673C529.706 145.515 530.125 145.304 530.529 145.04C530.611 144.981 530.702 144.952 530.802 144.952C531.001 144.952 531.171 145.087 531.312 145.356C531.388 145.509 531.426 145.641 531.426 145.752C531.426 145.939 531.329 146.092 531.136 146.209C530.679 146.496 530.169 146.733 529.606 146.921C529.044 147.103 528.52 147.193 528.033 147.193C527.037 147.193 526.308 146.936 525.845 146.42C525.388 145.898 525.159 145.122 525.159 144.091V140.777H523.375C523.176 140.777 523.032 140.733 522.944 140.646C522.862 140.552 522.821 140.396 522.821 140.18C522.821 139.963 522.862 139.811 522.944 139.723C523.032 139.629 523.176 139.582 523.375 139.582H525.159V136.945C525.159 136.74 525.209 136.594 525.309 136.506C525.408 136.418 525.578 136.374 525.818 136.374Z" fill="black"/>
<rect x="227" y="41" width="148" height="148" fill="white" stroke="black" stroke-width="2"/>
<path d="M289.038 16.5674C289.237 16.5674 289.378 16.6143 289.46 16.708C289.548 16.7959 289.592 16.9482 289.592 17.165C289.592 17.3818 289.548 17.5371 289.46 17.6309C289.378 17.7188 289.237 17.7627 289.038 17.7627H288.537V26.6748C288.537 26.833 288.481 26.959 288.37 27.0527C288.265 27.1465 288.101 27.1934 287.878 27.1934C287.567 27.1934 287.321 27.0322 287.14 26.71L282.578 18.5625H282.543V25.8047H283.782C283.981 25.8047 284.122 25.8516 284.204 25.9453C284.292 26.0332 284.336 26.1855 284.336 26.4023C284.336 26.6191 284.292 26.7744 284.204 26.8682C284.122 26.9561 283.981 27 283.782 27H280.671C280.472 27 280.328 26.9561 280.24 26.8682C280.158 26.7744 280.117 26.6191 280.117 26.4023C280.117 26.1855 280.158 26.0332 280.24 25.9453C280.328 25.8516 280.472 25.8047 280.671 25.8047H281.26V17.7627H280.583C280.384 17.7627 280.24 17.7188 280.152 17.6309C280.07 17.5371 280.029 17.3818 280.029 17.165C280.029 16.9482 280.07 16.7959 280.152 16.708C280.24 16.6143 280.384 16.5674 280.583 16.5674H282.552C282.681 16.5674 282.783 16.5879 282.859 16.6289C282.941 16.6699 283.006 16.7314 283.053 16.8135L287.219 24.2666H287.254V17.7627H286.19C285.991 17.7627 285.848 17.7188 285.76 17.6309C285.678 17.5371 285.637 17.3818 285.637 17.165C285.637 16.9482 285.678 16.7959 285.76 16.708C285.848 16.6143 285.991 16.5674 286.19 16.5674H289.038ZM295.604 18.6855C296.406 18.6855 297.13 18.8672 297.774 19.2305C298.419 19.5938 298.923 20.1006 299.286 20.751C299.655 21.3955 299.84 22.125 299.84 22.9395C299.84 23.7539 299.655 24.4863 299.286 25.1367C298.923 25.7812 298.419 26.2852 297.774 26.6484C297.13 27.0117 296.406 27.1934 295.604 27.1934C294.801 27.1934 294.077 27.0117 293.433 26.6484C292.788 26.2852 292.281 25.7812 291.912 25.1367C291.549 24.4863 291.367 23.7539 291.367 22.9395C291.367 22.125 291.549 21.3955 291.912 20.751C292.281 20.1006 292.788 19.5938 293.433 19.2305C294.077 18.8672 294.801 18.6855 295.604 18.6855ZM295.604 19.9863C295.035 19.9863 294.534 20.1123 294.101 20.3643C293.673 20.6104 293.342 20.959 293.107 21.4102C292.873 21.8555 292.756 22.3652 292.756 22.9395C292.756 23.5137 292.873 24.0264 293.107 24.4775C293.342 24.9229 293.673 25.2715 294.101 25.5234C294.534 25.7695 295.035 25.8926 295.604 25.8926C296.172 25.8926 296.67 25.7695 297.098 25.5234C297.531 25.2715 297.865 24.9229 298.1 24.4775C298.334 24.0264 298.451 23.5137 298.451 22.9395C298.451 22.3652 298.334 21.8555 298.1 21.4102C297.865 20.959 297.531 20.6104 297.098 20.3643C296.67 20.1123 296.172 19.9863 295.604 19.9863ZM309.464 15.4688C309.663 15.4688 309.804 15.5156 309.886 15.6094C309.974 15.6973 310.018 15.8496 310.018 16.0664V25.8047H310.738C310.938 25.8047 311.078 25.8516 311.16 25.9453C311.248 26.0332 311.292 26.1855 311.292 26.4023C311.292 26.6191 311.248 26.7744 311.16 26.8682C311.078 26.9561 310.938 27 310.738 27H309.341C309.142 27 308.998 26.9561 308.91 26.8682C308.828 26.7744 308.787 26.6191 308.787 26.4023V25.6992C308.418 26.1797 307.99 26.5488 307.504 26.8066C307.018 27.0645 306.487 27.1934 305.913 27.1934C305.187 27.1934 304.536 27.0234 303.962 26.6836C303.388 26.3379 302.937 25.8457 302.608 25.207C302.28 24.5625 302.116 23.8066 302.116 22.9395C302.116 22.0723 302.28 21.3193 302.608 20.6807C302.937 20.0361 303.388 19.5439 303.962 19.2041C304.536 18.8584 305.187 18.6855 305.913 18.6855C307.015 18.6855 307.943 19.1689 308.699 20.1357V16.6641H307.275C307.076 16.6641 306.933 16.6201 306.845 16.5322C306.763 16.4385 306.722 16.2832 306.722 16.0664C306.722 15.8496 306.763 15.6973 306.845 15.6094C306.933 15.5156 307.076 15.4688 307.275 15.4688H309.464ZM306.001 19.9863C305.479 19.9863 305.031 20.1123 304.656 20.3643C304.281 20.6104 303.994 20.9561 303.795 21.4014C303.602 21.8467 303.505 22.3594 303.505 22.9395C303.505 23.5195 303.602 24.0322 303.795 24.4775C303.994 24.9229 304.281 25.2715 304.656 25.5234C305.031 25.7695 305.479 25.8926 306.001 25.8926C306.522 25.8926 306.985 25.7754 307.39 25.541C307.8 25.3066 308.119 24.9668 308.348 24.5215C308.582 24.0762 308.699 23.5488 308.699 22.9395C308.699 22.3301 308.582 21.8027 308.348 21.3574C308.119 20.9121 307.8 20.5723 307.39 20.3379C306.985 20.1035 306.522 19.9863 306.001 19.9863ZM317.269 18.6855C318.118 18.6855 318.842 18.8584 319.439 19.2041C320.043 19.5439 320.506 20.0186 320.828 20.6279C321.15 21.2314 321.335 21.9287 321.382 22.7197C321.382 22.9189 321.338 23.0596 321.25 23.1416C321.168 23.2236 321.027 23.2646 320.828 23.2646H314.465C314.506 24.1377 314.764 24.7998 315.238 25.251C315.719 25.6963 316.396 25.9189 317.269 25.9189C317.808 25.9189 318.341 25.8516 318.868 25.7168C319.396 25.5762 319.858 25.3916 320.257 25.1631C320.356 25.1104 320.447 25.084 320.529 25.084C320.734 25.084 320.901 25.2393 321.03 25.5498C321.083 25.6729 321.109 25.7842 321.109 25.8838C321.109 26.1182 320.98 26.2998 320.723 26.4287C320.271 26.6572 319.738 26.8418 319.123 26.9824C318.508 27.123 317.89 27.1934 317.269 27.1934C316.384 27.1934 315.628 27.0234 315.001 26.6836C314.374 26.3438 313.896 25.8545 313.568 25.2158C313.24 24.5771 313.076 23.8184 313.076 22.9395C313.076 22.1016 313.255 21.3604 313.612 20.7158C313.97 20.0713 314.465 19.5732 315.098 19.2217C315.73 18.8643 316.454 18.6855 317.269 18.6855ZM317.269 19.96C316.548 19.96 315.95 20.1445 315.476 20.5137C315.007 20.877 314.699 21.3838 314.553 22.0342H319.923C319.8 21.3604 319.516 20.8477 319.07 20.4961C318.631 20.1387 318.03 19.96 317.269 19.96Z" fill="black"/>
<path d="M277.585 75.4688C277.784 75.4688 277.925 75.5156 278.007 75.6094C278.095 75.6973 278.139 75.8496 278.139 76.0664V85.8047H278.859C279.059 85.8047 279.199 85.8516 279.281 85.9453C279.369 86.0332 279.413 86.1855 279.413 86.4023C279.413 86.6191 279.369 86.7744 279.281 86.8682C279.199 86.9561 279.059 87 278.859 87H277.462C277.263 87 277.119 86.9561 277.031 86.8682C276.949 86.7744 276.908 86.6191 276.908 86.4023V85.6992C276.539 86.1797 276.111 86.5488 275.625 86.8066C275.139 87.0645 274.608 87.1934 274.034 87.1934C273.308 87.1934 272.657 87.0234 272.083 86.6836C271.509 86.3379 271.058 85.8457 270.729 85.207C270.401 84.5625 270.237 83.8066 270.237 82.9395C270.237 82.0723 270.401 81.3193 270.729 80.6807C271.058 80.0361 271.509 79.5439 272.083 79.2041C272.657 78.8584 273.308 78.6855 274.034 78.6855C275.136 78.6855 276.064 79.1689 276.82 80.1357V76.6641H275.396C275.197 76.6641 275.054 76.6201 274.966 76.5322C274.884 76.4385 274.843 76.2832 274.843 76.0664C274.843 75.8496 274.884 75.6973 274.966 75.6094C275.054 75.5156 275.197 75.4688 275.396 75.4688H277.585ZM274.122 79.9863C273.601 79.9863 273.152 80.1123 272.777 80.3643C272.402 80.6104 272.115 80.9561 271.916 81.4014C271.723 81.8467 271.626 82.3594 271.626 82.9395C271.626 83.5195 271.723 84.0322 271.916 84.4775C272.115 84.9229 272.402 85.2715 272.777 85.5234C273.152 85.7695 273.601 85.8926 274.122 85.8926C274.644 85.8926 275.106 85.7754 275.511 85.541C275.921 85.3066 276.24 84.9668 276.469 84.5215C276.703 84.0762 276.82 83.5488 276.82 82.9395C276.82 82.3301 276.703 81.8027 276.469 81.3574C276.24 80.9121 275.921 80.5723 275.511 80.3379C275.106 80.1035 274.644 79.9863 274.122 79.9863ZM285.346 78.6855C286.447 78.6855 287.273 78.9316 287.824 79.4238C288.375 79.916 288.65 80.6455 288.65 81.6123V85.1104C288.65 85.5732 288.844 85.8047 289.23 85.8047H289.538C289.737 85.8047 289.878 85.8516 289.96 85.9453C290.048 86.0332 290.092 86.1855 290.092 86.4023C290.092 86.6191 290.048 86.7744 289.96 86.8682C289.878 86.9561 289.737 87 289.538 87H288.976C288.595 87 288.267 86.9062 287.991 86.7188C287.722 86.5254 287.546 86.2441 287.464 85.875C286.983 86.2969 286.462 86.6221 285.899 86.8506C285.343 87.0791 284.751 87.1934 284.124 87.1934C283.532 87.1934 283.008 87.0938 282.551 86.8945C282.1 86.6895 281.745 86.3936 281.487 86.0068C281.229 85.6201 281.101 85.1602 281.101 84.627C281.101 83.7012 281.432 83.0186 282.094 82.5791C282.756 82.1338 283.611 81.9111 284.66 81.9111C285.592 81.9111 286.482 82.0605 287.332 82.3594V81.6123C287.332 81.0439 287.171 80.6279 286.849 80.3643C286.532 80.0947 286.02 79.96 285.311 79.96C284.871 79.96 284.414 80.0215 283.939 80.1445C283.465 80.2676 283.014 80.4375 282.586 80.6543C282.486 80.707 282.396 80.7334 282.313 80.7334C282.12 80.7334 281.959 80.5928 281.83 80.3115C281.766 80.1709 281.733 80.0537 281.733 79.96C281.733 79.7549 281.842 79.5967 282.059 79.4854C282.551 79.2275 283.078 79.0312 283.641 78.8965C284.209 78.7559 284.777 78.6855 285.346 78.6855ZM284.669 83.1504C283.995 83.1504 283.462 83.2676 283.069 83.502C282.683 83.7305 282.489 84.0967 282.489 84.6006C282.489 85.0283 282.636 85.3623 282.929 85.6025C283.228 85.8369 283.644 85.9541 284.177 85.9541C285.343 85.9541 286.395 85.4707 287.332 84.5039V83.5459C286.934 83.417 286.506 83.3203 286.049 83.2559C285.592 83.1855 285.132 83.1504 284.669 83.1504ZM294.732 76.374C294.973 76.374 295.143 76.418 295.242 76.5059C295.342 76.5938 295.392 76.7402 295.392 76.9453V79.582H299.004C299.203 79.582 299.344 79.6289 299.426 79.7227C299.514 79.8105 299.558 79.9629 299.558 80.1797C299.558 80.3965 299.514 80.5518 299.426 80.6455C299.344 80.7334 299.203 80.7773 299.004 80.7773H295.392V83.9766C295.392 84.6445 295.506 85.1338 295.734 85.4443C295.969 85.7549 296.373 85.9102 296.947 85.9102C297.34 85.9102 297.753 85.8311 298.187 85.6729C298.62 85.5146 299.039 85.3037 299.443 85.04C299.525 84.9814 299.616 84.9521 299.716 84.9521C299.915 84.9521 300.085 85.0869 300.226 85.3564C300.302 85.5088 300.34 85.6406 300.34 85.752C300.34 85.9395 300.243 86.0918 300.05 86.209C299.593 86.4961 299.083 86.7334 298.521 86.9209C297.958 87.1025 297.434 87.1934 296.947 87.1934C295.951 87.1934 295.222 86.9355 294.759 86.4199C294.302 85.8984 294.073 85.1221 294.073 84.0908V80.7773H292.289C292.09 80.7773 291.946 80.7334 291.858 80.6455C291.776 80.5518 291.735 80.3965 291.735 80.1797C291.735 79.9629 291.776 79.8105 291.858 79.7227C291.946 79.6289 292.09 79.582 292.289 79.582H294.073V76.9453C294.073 76.7402 294.123 76.5938 294.223 76.5059C294.322 76.418 294.492 76.374 294.732 76.374ZM306.932 78.6855C308.033 78.6855 308.859 78.9316 309.41 79.4238C309.961 79.916 310.236 80.6455 310.236 81.6123V85.1104C310.236 85.5732 310.43 85.8047 310.816 85.8047H311.124C311.323 85.8047 311.464 85.8516 311.546 85.9453C311.634 86.0332 311.678 86.1855 311.678 86.4023C311.678 86.6191 311.634 86.7744 311.546 86.8682C311.464 86.9561 311.323 87 311.124 87H310.562C310.181 87 309.853 86.9062 309.577 86.7188C309.308 86.5254 309.132 86.2441 309.05 85.875C308.569 86.2969 308.048 86.6221 307.485 86.8506C306.929 87.0791 306.337 87.1934 305.71 87.1934C305.118 87.1934 304.594 87.0938 304.137 86.8945C303.686 86.6895 303.331 86.3936 303.073 86.0068C302.815 85.6201 302.687 85.1602 302.687 84.627C302.687 83.7012 303.018 83.0186 303.68 82.5791C304.342 82.1338 305.197 81.9111 306.246 81.9111C307.178 81.9111 308.068 82.0605 308.918 82.3594V81.6123C308.918 81.0439 308.757 80.6279 308.435 80.3643C308.118 80.0947 307.605 79.96 306.896 79.96C306.457 79.96 306 80.0215 305.525 80.1445C305.051 80.2676 304.6 80.4375 304.172 80.6543C304.072 80.707 303.981 80.7334 303.899 80.7334C303.706 80.7334 303.545 80.5928 303.416 80.3115C303.352 80.1709 303.319 80.0537 303.319 79.96C303.319 79.7549 303.428 79.5967 303.645 79.4854C304.137 79.2275 304.664 79.0312 305.227 78.8965C305.795 78.7559 306.363 78.6855 306.932 78.6855ZM306.255 83.1504C305.581 83.1504 305.048 83.2676 304.655 83.502C304.269 83.7305 304.075 84.0967 304.075 84.6006C304.075 85.0283 304.222 85.3623 304.515 85.6025C304.813 85.8369 305.229 85.9541 305.763 85.9541C306.929 85.9541 307.98 85.4707 308.918 84.5039V83.5459C308.52 83.417 308.092 83.3203 307.635 83.2559C307.178 83.1855 306.718 83.1504 306.255 83.1504ZM321.038 79.5293C321.237 79.5293 321.378 79.5762 321.46 79.6699C321.548 79.7578 321.592 79.9102 321.592 80.127C321.592 80.3438 321.548 80.499 321.46 80.5928C321.378 80.6807 321.237 80.7246 321.038 80.7246H314.341C314.142 80.7246 313.998 80.6807 313.91 80.5928C313.828 80.499 313.787 80.3438 313.787 80.127C313.787 79.9102 313.828 79.7578 313.91 79.6699C313.998 79.5762 314.142 79.5293 314.341 79.5293H321.038ZM321.038 83.0449C321.237 83.0449 321.378 83.0918 321.46 83.1855C321.548 83.2734 321.592 83.4258 321.592 83.6426C321.592 83.8594 321.548 84.0146 321.46 84.1084C321.378 84.1963 321.237 84.2402 321.038 84.2402H314.341C314.142 84.2402 313.998 84.1963 313.91 84.1084C313.828 84.0146 313.787 83.8594 313.787 83.6426C313.787 83.4258 313.828 83.2734 313.91 83.1855C313.998 83.0918 314.142 83.0449 314.341 83.0449H321.038ZM328.184 76.374C328.863 76.374 329.458 76.4971 329.968 76.7432C330.483 76.9834 330.882 77.335 331.163 77.7979C331.444 78.2607 331.585 78.8115 331.585 79.4502C331.585 80.0479 331.436 80.5986 331.137 81.1025C330.844 81.6006 330.384 82.1689 329.757 82.8076L326.804 85.8047H330.618V84.6973C330.618 84.4922 330.668 84.3457 330.768 84.2578C330.867 84.1699 331.037 84.126 331.277 84.126C331.518 84.126 331.688 84.1699 331.787 84.2578C331.887 84.3457 331.937 84.4922 331.937 84.6973V86.4023C331.937 86.6191 331.893 86.7744 331.805 86.8682C331.723 86.9561 331.582 87 331.383 87H325.283C325.084 87 324.94 86.9561 324.853 86.8682C324.771 86.7744 324.729 86.6191 324.729 86.4023C324.729 86.1797 324.773 86.0215 324.861 85.9277L328.729 82.0078C329.268 81.457 329.646 81 329.862 80.6367C330.085 80.2676 330.196 79.8721 330.196 79.4502C330.196 78.9053 330.021 78.4746 329.669 78.1582C329.323 77.8359 328.831 77.6748 328.192 77.6748C327.548 77.6748 326.941 77.8389 326.373 78.167V79.1338C326.373 79.3389 326.323 79.4854 326.224 79.5732C326.124 79.6611 325.954 79.7051 325.714 79.7051C325.474 79.7051 325.304 79.6611 325.204 79.5732C325.104 79.4854 325.055 79.3389 325.055 79.1338V77.8418C325.055 77.6133 325.122 77.4521 325.257 77.3584C325.685 77.0479 326.147 76.8076 326.646 76.6377C327.144 76.4619 327.656 76.374 328.184 76.374Z" fill="black"/>
<path d="M285.804 138.686C286.337 138.686 286.8 138.803 287.192 139.037C287.585 139.266 287.887 139.597 288.098 140.03C288.309 140.464 288.414 140.971 288.414 141.551V145.805H289.135C289.334 145.805 289.475 145.852 289.557 145.945C289.645 146.033 289.688 146.186 289.688 146.402C289.688 146.619 289.645 146.774 289.557 146.868C289.475 146.956 289.334 147 289.135 147H286.287C286.088 147 285.944 146.956 285.856 146.868C285.774 146.774 285.733 146.619 285.733 146.402C285.733 146.186 285.774 146.033 285.856 145.945C285.944 145.852 286.088 145.805 286.287 145.805H287.096V141.683C287.096 141.161 286.976 140.748 286.735 140.443C286.495 140.139 286.141 139.986 285.672 139.986C285.174 139.986 284.708 140.13 284.274 140.417C283.847 140.704 283.504 141.1 283.246 141.604C282.988 142.107 282.859 142.67 282.859 143.291V145.805H283.668C283.867 145.805 284.008 145.852 284.09 145.945C284.178 146.033 284.222 146.186 284.222 146.402C284.222 146.619 284.178 146.774 284.09 146.868C284.008 146.956 283.867 147 283.668 147H280.82C280.621 147 280.478 146.956 280.39 146.868C280.308 146.774 280.267 146.619 280.267 146.402C280.267 146.186 280.308 146.033 280.39 145.945C280.478 145.852 280.621 145.805 280.82 145.805H281.541V140.074H280.645C280.445 140.074 280.302 140.03 280.214 139.942C280.132 139.849 280.091 139.693 280.091 139.477C280.091 139.26 280.132 139.107 280.214 139.02C280.302 138.926 280.445 138.879 280.645 138.879H282.218C282.417 138.879 282.558 138.926 282.64 139.02C282.728 139.107 282.771 139.26 282.771 139.477V140.531C283.158 139.934 283.609 139.477 284.125 139.16C284.646 138.844 285.206 138.686 285.804 138.686ZM295.683 138.686C296.532 138.686 297.256 138.858 297.854 139.204C298.457 139.544 298.92 140.019 299.242 140.628C299.564 141.231 299.749 141.929 299.796 142.72C299.796 142.919 299.752 143.06 299.664 143.142C299.582 143.224 299.441 143.265 299.242 143.265H292.879C292.92 144.138 293.178 144.8 293.652 145.251C294.133 145.696 294.81 145.919 295.683 145.919C296.222 145.919 296.755 145.852 297.282 145.717C297.81 145.576 298.272 145.392 298.671 145.163C298.771 145.11 298.861 145.084 298.943 145.084C299.148 145.084 299.315 145.239 299.444 145.55C299.497 145.673 299.523 145.784 299.523 145.884C299.523 146.118 299.395 146.3 299.137 146.429C298.686 146.657 298.152 146.842 297.537 146.982C296.922 147.123 296.304 147.193 295.683 147.193C294.798 147.193 294.042 147.023 293.415 146.684C292.788 146.344 292.311 145.854 291.982 145.216C291.654 144.577 291.49 143.818 291.49 142.939C291.49 142.102 291.669 141.36 292.026 140.716C292.384 140.071 292.879 139.573 293.512 139.222C294.145 138.864 294.868 138.686 295.683 138.686ZM295.683 139.96C294.962 139.96 294.364 140.145 293.89 140.514C293.421 140.877 293.113 141.384 292.967 142.034H298.337C298.214 141.36 297.93 140.848 297.484 140.496C297.045 140.139 296.444 139.96 295.683 139.96ZM310.536 138.879C310.735 138.879 310.876 138.926 310.958 139.02C311.046 139.107 311.09 139.26 311.09 139.477C311.09 139.693 311.046 139.849 310.958 139.942C310.876 140.03 310.735 140.074 310.536 140.074H309.965L307.354 142.825L310.176 145.805H310.624C310.823 145.805 310.964 145.852 311.046 145.945C311.134 146.033 311.178 146.186 311.178 146.402C311.178 146.619 311.134 146.774 311.046 146.868C310.964 146.956 310.823 147 310.624 147H307.601C307.401 147 307.258 146.956 307.17 146.868C307.088 146.774 307.047 146.619 307.047 146.402C307.047 146.186 307.088 146.033 307.17 145.945C307.258 145.852 307.401 145.805 307.601 145.805H308.444L306.335 143.537L304.234 145.805H304.929C305.128 145.805 305.269 145.852 305.351 145.945C305.438 146.033 305.482 146.186 305.482 146.402C305.482 146.619 305.438 146.774 305.351 146.868C305.269 146.956 305.128 147 304.929 147H302.169C301.97 147 301.826 146.956 301.738 146.868C301.656 146.774 301.615 146.619 301.615 146.402C301.615 146.186 301.656 146.033 301.738 145.945C301.826 145.852 301.97 145.805 302.169 145.805H302.608L305.465 142.808L302.881 140.074H302.257C302.058 140.074 301.914 140.03 301.826 139.942C301.744 139.849 301.703 139.693 301.703 139.477C301.703 139.26 301.744 139.107 301.826 139.02C301.914 138.926 302.058 138.879 302.257 138.879H305.28C305.479 138.879 305.62 138.926 305.702 139.02C305.79 139.107 305.834 139.26 305.834 139.477C305.834 139.693 305.79 139.849 305.702 139.942C305.62 140.03 305.479 140.074 305.28 140.074H304.612L306.476 142.096L308.348 140.074H307.864C307.665 140.074 307.521 140.03 307.434 139.942C307.352 139.849 307.311 139.693 307.311 139.477C307.311 139.26 307.352 139.107 307.434 139.02C307.521 138.926 307.665 138.879 307.864 138.879H310.536ZM315.818 136.374C316.059 136.374 316.229 136.418 316.328 136.506C316.428 136.594 316.478 136.74 316.478 136.945V139.582H320.09C320.289 139.582 320.43 139.629 320.512 139.723C320.6 139.811 320.644 139.963 320.644 140.18C320.644 140.396 320.6 140.552 320.512 140.646C320.43 140.733 320.289 140.777 320.09 140.777H316.478V143.977C316.478 144.645 316.592 145.134 316.82 145.444C317.055 145.755 317.459 145.91 318.033 145.91C318.426 145.91 318.839 145.831 319.272 145.673C319.706 145.515 320.125 145.304 320.529 145.04C320.611 144.981 320.702 144.952 320.802 144.952C321.001 144.952 321.171 145.087 321.312 145.356C321.388 145.509 321.426 145.641 321.426 145.752C321.426 145.939 321.329 146.092 321.136 146.209C320.679 146.496 320.169 146.733 319.606 146.921C319.044 147.103 318.52 147.193 318.033 147.193C317.037 147.193 316.308 146.936 315.845 146.42C315.388 145.898 315.159 145.122 315.159 144.091V140.777H313.375C313.176 140.777 313.032 140.733 312.944 140.646C312.862 140.552 312.821 140.396 312.821 140.18C312.821 139.963 312.862 139.811 312.944 139.723C313.032 139.629 313.176 139.582 313.375 139.582H315.159V136.945C315.159 136.74 315.209 136.594 315.309 136.506C315.408 136.418 315.578 136.374 315.818 136.374Z" fill="black"/>
<path d="M221.707 83.7071C222.098 83.3166 222.098 82.6834 221.707 82.2929L215.343 75.9289C214.953 75.5384 214.319 75.5384 213.929 75.9289C213.538 76.3195 213.538 76.9526 213.929 77.3431L219.586 83L213.929 88.6569C213.538 89.0474 213.538 89.6805 213.929 90.0711C214.319 90.4616 214.953 90.4616 215.343 90.0711L221.707 83.7071ZM127 84H221V82H127V84Z" fill="black"/>
<line x1="92" y1="162" x2="92" y2="237" stroke="black" stroke-width="2"/>
<line x1="91" y1="236" x2="721" y2="236" stroke="black" stroke-width="2"/>
<path d="M721.707 199.293C721.317 198.902 720.683 198.902 720.293 199.293L713.929 205.657C713.538 206.047 713.538 206.681 713.929 207.071C714.319 207.462 714.953 207.462 715.343 207.071L721 201.414L726.657 207.071C727.047 207.462 727.681 207.462 728.071 207.071C728.462 206.681 728.462 206.047 728.071 205.657L721.707 199.293ZM722 237V200H720V237H722Z" fill="black"/>
<path d="M432.707 143.707C433.098 143.317 433.098 142.683 432.707 142.293L426.343 135.929C425.953 135.538 425.319 135.538 424.929 135.929C424.538 136.319 424.538 136.953 424.929 137.343L430.586 143L424.929 148.657C424.538 149.047 424.538 149.681 424.929 150.071C425.319 150.462 425.953 150.462 426.343 150.071L432.707 143.707ZM334 144H432V142H334V144Z" fill="black"/>
<path d="M640.707 143.707C641.098 143.317 641.098 142.683 640.707 142.293L634.343 135.929C633.953 135.538 633.319 135.538 632.929 135.929C632.538 136.319 632.538 136.953 632.929 137.343L638.586 143L632.929 148.657C632.538 149.047 632.538 149.681 632.929 150.071C633.319 150.462 633.953 150.462 634.343 150.071L640.707 143.707ZM542 144H640V142H542V144Z" fill="black"/>
<path d="M850.707 143.707C851.098 143.317 851.098 142.683 850.707 142.293L844.343 135.929C843.953 135.538 843.319 135.538 842.929 135.929C842.538 136.319 842.538 136.953 842.929 137.343L848.586 143L842.929 148.657C842.538 149.047 842.538 149.681 842.929 150.071C843.319 150.462 843.953 150.462 844.343 150.071L850.707 143.707ZM752 144H850V142H752V144Z" fill="black"/>
</svg>
