<svg width="1000" height="300" viewBox="0 0 1000 300" fill="none" xmlns="http://www.w3.org/2000/svg">
<rect width="1000" height="300" fill="white"/>
<path d="M890.614 163.686C891.147 163.686 891.61 163.803 892.003 164.037C892.396 164.266 892.697 164.597 892.908 165.03C893.119 165.464 893.225 165.971 893.225 166.551V170.805H893.945C894.145 170.805 894.285 170.852 894.367 170.945C894.455 171.033 894.499 171.186 894.499 171.402C894.499 171.619 894.455 171.774 894.367 171.868C894.285 171.956 894.145 172 893.945 172H891.098C890.898 172 890.755 171.956 890.667 171.868C890.585 171.774 890.544 171.619 890.544 171.402C890.544 171.186 890.585 171.033 890.667 170.945C890.755 170.852 890.898 170.805 891.098 170.805H891.906V166.683C891.906 166.161 891.786 165.748 891.546 165.443C891.306 165.139 890.951 164.986 890.482 164.986C889.984 164.986 889.519 165.13 889.085 165.417C888.657 165.704 888.314 166.1 888.057 166.604C887.799 167.107 887.67 167.67 887.67 168.291V170.805H888.479C888.678 170.805 888.818 170.852 888.9 170.945C888.988 171.033 889.032 171.186 889.032 171.402C889.032 171.619 888.988 171.774 888.9 171.868C888.818 171.956 888.678 172 888.479 172H885.631C885.432 172 885.288 171.956 885.2 171.868C885.118 171.774 885.077 171.619 885.077 171.402C885.077 171.186 885.118 171.033 885.2 170.945C885.288 170.852 885.432 170.805 885.631 170.805H886.352V165.074H885.455C885.256 165.074 885.112 165.03 885.024 164.942C884.942 164.849 884.901 164.693 884.901 164.477C884.901 164.26 884.942 164.107 885.024 164.02C885.112 163.926 885.256 163.879 885.455 163.879H887.028C887.228 163.879 887.368 163.926 887.45 164.02C887.538 164.107 887.582 164.26 887.582 164.477V165.531C887.969 164.934 888.42 164.477 888.936 164.16C889.457 163.844 890.017 163.686 890.614 163.686ZM903.244 163.879C903.443 163.879 903.584 163.926 903.666 164.02C903.754 164.107 903.798 164.26 903.798 164.477V170.805H904.519C904.718 170.805 904.858 170.852 904.94 170.945C905.028 171.033 905.072 171.186 905.072 171.402C905.072 171.619 905.028 171.774 904.94 171.868C904.858 171.956 904.718 172 904.519 172H903.121C902.922 172 902.778 171.956 902.69 171.868C902.608 171.78 902.567 171.628 902.567 171.411V170.348C902.181 170.945 901.727 171.402 901.205 171.719C900.689 172.035 900.133 172.193 899.535 172.193C899.002 172.193 898.539 172.079 898.146 171.851C897.754 171.616 897.452 171.282 897.241 170.849C897.03 170.415 896.925 169.908 896.925 169.328V165.074H896.204C896.005 165.074 895.861 165.03 895.773 164.942C895.691 164.849 895.65 164.693 895.65 164.477C895.65 164.26 895.691 164.107 895.773 164.02C895.861 163.926 896.005 163.879 896.204 163.879H897.689C897.889 163.879 898.029 163.926 898.111 164.02C898.199 164.107 898.243 164.26 898.243 164.477V169.196C898.243 169.718 898.363 170.131 898.604 170.436C898.844 170.74 899.198 170.893 899.667 170.893C900.165 170.893 900.628 170.749 901.056 170.462C901.489 170.175 901.835 169.779 902.093 169.275C902.351 168.771 902.479 168.209 902.479 167.588V165.074H901.231C901.032 165.074 900.889 165.03 900.801 164.942C900.719 164.849 900.678 164.693 900.678 164.477C900.678 164.26 900.719 164.107 900.801 164.02C900.889 163.926 901.032 163.879 901.231 163.879H903.244ZM911.436 160.469C911.635 160.469 911.775 160.516 911.857 160.609C911.945 160.697 911.989 160.85 911.989 161.066V170.805H914.811C915.01 170.805 915.15 170.852 915.232 170.945C915.32 171.033 915.364 171.186 915.364 171.402C915.364 171.619 915.32 171.774 915.232 171.868C915.15 171.956 915.01 172 914.811 172H907.92C907.721 172 907.577 171.956 907.489 171.868C907.407 171.774 907.366 171.619 907.366 171.402C907.366 171.186 907.407 171.033 907.489 170.945C907.577 170.852 907.721 170.805 907.92 170.805H910.671V161.664H908.271C908.072 161.664 907.929 161.62 907.841 161.532C907.759 161.438 907.718 161.283 907.718 161.066C907.718 160.85 907.759 160.697 907.841 160.609C907.929 160.516 908.072 160.469 908.271 160.469H911.436ZM922.229 160.469C922.428 160.469 922.568 160.516 922.65 160.609C922.738 160.697 922.782 160.85 922.782 161.066V170.805H925.604C925.803 170.805 925.943 170.852 926.025 170.945C926.113 171.033 926.157 171.186 926.157 171.402C926.157 171.619 926.113 171.774 926.025 171.868C925.943 171.956 925.803 172 925.604 172H918.713C918.514 172 918.37 171.956 918.282 171.868C918.2 171.774 918.159 171.619 918.159 171.402C918.159 171.186 918.2 171.033 918.282 170.945C918.37 170.852 918.514 170.805 918.713 170.805H921.464V161.664H919.064C918.865 161.664 918.722 161.62 918.634 161.532C918.552 161.438 918.511 161.283 918.511 161.066C918.511 160.85 918.552 160.697 918.634 160.609C918.722 160.516 918.865 160.469 919.064 160.469H922.229ZM933.276 163.686C934.003 163.686 934.653 163.858 935.228 164.204C935.802 164.544 936.253 165.036 936.581 165.681C936.909 166.319 937.073 167.072 937.073 167.939C937.073 168.807 936.909 169.562 936.581 170.207C936.253 170.846 935.802 171.338 935.228 171.684C934.653 172.023 934.003 172.193 933.276 172.193C932.175 172.193 931.246 171.71 930.49 170.743V174.215H932.002C932.201 174.215 932.342 174.259 932.424 174.347C932.512 174.44 932.556 174.596 932.556 174.812C932.556 175.029 932.512 175.182 932.424 175.27C932.342 175.363 932.201 175.41 932.002 175.41H928.275C928.076 175.41 927.933 175.363 927.845 175.27C927.763 175.182 927.722 175.029 927.722 174.812C927.722 174.596 927.763 174.44 927.845 174.347C927.933 174.259 928.076 174.215 928.275 174.215H929.172V165.074H928.451C928.252 165.074 928.108 165.03 928.021 164.942C927.938 164.849 927.897 164.693 927.897 164.477C927.897 164.26 927.938 164.107 928.021 164.02C928.108 163.926 928.252 163.879 928.451 163.879H929.849C930.048 163.879 930.188 163.926 930.271 164.02C930.358 164.107 930.402 164.26 930.402 164.477V165.18C930.771 164.699 931.199 164.33 931.686 164.072C932.172 163.814 932.702 163.686 933.276 163.686ZM933.188 164.986C932.667 164.986 932.201 165.104 931.791 165.338C931.387 165.572 931.067 165.912 930.833 166.357C930.604 166.803 930.49 167.33 930.49 167.939C930.49 168.549 930.604 169.076 930.833 169.521C931.067 169.967 931.387 170.307 931.791 170.541C932.201 170.775 932.667 170.893 933.188 170.893C933.71 170.893 934.158 170.77 934.533 170.523C934.908 170.271 935.192 169.923 935.386 169.478C935.585 169.032 935.685 168.52 935.685 167.939C935.685 167.359 935.585 166.847 935.386 166.401C935.192 165.956 934.908 165.61 934.533 165.364C934.158 165.112 933.71 164.986 933.188 164.986ZM942.215 161.374C942.455 161.374 942.625 161.418 942.725 161.506C942.824 161.594 942.874 161.74 942.874 161.945V164.582H946.486C946.686 164.582 946.826 164.629 946.908 164.723C946.996 164.811 947.04 164.963 947.04 165.18C947.04 165.396 946.996 165.552 946.908 165.646C946.826 165.733 946.686 165.777 946.486 165.777H942.874V168.977C942.874 169.645 942.988 170.134 943.217 170.444C943.451 170.755 943.855 170.91 944.43 170.91C944.822 170.91 945.235 170.831 945.669 170.673C946.103 170.515 946.521 170.304 946.926 170.04C947.008 169.981 947.099 169.952 947.198 169.952C947.397 169.952 947.567 170.087 947.708 170.356C947.784 170.509 947.822 170.641 947.822 170.752C947.822 170.939 947.726 171.092 947.532 171.209C947.075 171.496 946.565 171.733 946.003 171.921C945.44 172.103 944.916 172.193 944.43 172.193C943.434 172.193 942.704 171.936 942.241 171.42C941.784 170.898 941.556 170.122 941.556 169.091V165.777H939.771C939.572 165.777 939.429 165.733 939.341 165.646C939.259 165.552 939.218 165.396 939.218 165.18C939.218 164.963 939.259 164.811 939.341 164.723C939.429 164.629 939.572 164.582 939.771 164.582H941.556V161.945C941.556 161.74 941.605 161.594 941.705 161.506C941.805 161.418 941.975 161.374 942.215 161.374ZM957.068 163.686C957.525 163.686 957.953 163.803 958.352 164.037C958.586 164.178 958.703 164.359 958.703 164.582C958.703 164.688 958.677 164.811 958.624 164.951C958.501 165.285 958.331 165.452 958.114 165.452C958.026 165.452 957.944 165.429 957.868 165.382C957.581 165.224 957.273 165.145 956.945 165.145C956.418 165.145 955.888 165.329 955.354 165.698C954.821 166.062 954.382 166.548 954.036 167.157C953.696 167.767 953.526 168.414 953.526 169.1V170.805H956.488C956.688 170.805 956.828 170.852 956.91 170.945C956.998 171.033 957.042 171.186 957.042 171.402C957.042 171.619 956.998 171.774 956.91 171.868C956.828 171.956 956.688 172 956.488 172H950.828C950.629 172 950.485 171.956 950.397 171.868C950.315 171.774 950.274 171.619 950.274 171.402C950.274 171.186 950.315 171.033 950.397 170.945C950.485 170.852 950.629 170.805 950.828 170.805H952.208V165.074H951.092C950.893 165.074 950.749 165.03 950.661 164.942C950.579 164.849 950.538 164.693 950.538 164.477C950.538 164.26 950.579 164.107 950.661 164.02C950.749 163.926 950.893 163.879 951.092 163.879H952.885C953.084 163.879 953.225 163.926 953.307 164.02C953.395 164.107 953.438 164.26 953.438 164.477V166.252C953.72 165.736 954.06 165.285 954.458 164.898C954.856 164.512 955.281 164.213 955.732 164.002C956.184 163.791 956.629 163.686 957.068 163.686Z" fill="black"/>
<rect x="42" y="66" width="148" height="148" fill="white" stroke="black" stroke-width="2"/>
<path d="M70.2881 41.374C70.5283 41.374 70.6982 41.418 70.7979 41.5059C70.8975 41.5938 70.9473 41.7402 70.9473 41.9453V43.9668C70.9473 44.1719 70.8975 44.3184 70.7979 44.4062C70.6982 44.4941 70.5283 44.5381 70.2881 44.5381C70.0654 44.5381 69.9131 44.4619 69.8311 44.3096C69.5498 43.7764 69.1543 43.3721 68.6445 43.0967C68.1348 42.8154 67.5547 42.6748 66.9043 42.6748C66.2598 42.6748 65.7588 42.8242 65.4014 43.123C65.0498 43.4219 64.874 43.8232 64.874 44.3271C64.874 44.5674 64.9355 44.7695 65.0586 44.9336C65.1816 45.0977 65.3574 45.2383 65.5859 45.3555C65.791 45.4609 66.0312 45.5488 66.3066 45.6191C66.582 45.6836 66.9512 45.7598 67.4141 45.8477C67.918 45.9473 68.3164 46.0322 68.6094 46.1025C68.9082 46.167 69.2012 46.2578 69.4883 46.375C70.0742 46.6152 70.5312 46.9521 70.8594 47.3857C71.1934 47.8135 71.3604 48.3936 71.3604 49.126C71.3604 49.7354 71.2168 50.2715 70.9297 50.7344C70.6426 51.1914 70.2178 51.5488 69.6553 51.8066C69.0986 52.0645 68.4277 52.1934 67.6426 52.1934C67.0566 52.1934 66.5117 52.0879 66.0078 51.877C65.5098 51.6602 65.0762 51.3467 64.707 50.9365V51.6221C64.707 51.8271 64.6572 51.9736 64.5576 52.0615C64.458 52.1494 64.2881 52.1934 64.0479 52.1934C63.8076 52.1934 63.6377 52.1494 63.5381 52.0615C63.4385 51.9736 63.3887 51.8271 63.3887 51.6221V48.9854C63.3887 48.7803 63.4385 48.6338 63.5381 48.5459C63.6377 48.458 63.8076 48.4141 64.0479 48.4141C64.2998 48.4141 64.4697 48.5371 64.5576 48.7832C64.7979 49.4629 65.1787 49.9844 65.7002 50.3477C66.2275 50.7109 66.875 50.8926 67.6426 50.8926C68.3926 50.8926 68.9668 50.7314 69.3652 50.4092C69.7695 50.0869 69.9717 49.6592 69.9717 49.126C69.9717 48.7568 69.8779 48.458 69.6904 48.2295C69.5088 47.9951 69.2422 47.8018 68.8906 47.6494C68.668 47.5498 68.4248 47.4707 68.1611 47.4121C67.8975 47.3477 67.5371 47.2686 67.0801 47.1748C66.5996 47.0811 66.1953 46.9932 65.8672 46.9111C65.5449 46.8291 65.2461 46.7266 64.9707 46.6035C64.502 46.3926 64.1357 46.1084 63.8721 45.751C63.6143 45.3877 63.4854 44.9131 63.4854 44.3271C63.4854 43.7236 63.6289 43.1992 63.916 42.7539C64.209 42.3086 64.6133 41.9688 65.1289 41.7344C65.6504 41.4941 66.2422 41.374 66.9043 41.374C67.4199 41.374 67.918 41.4736 68.3984 41.6729C68.8789 41.8721 69.2891 42.1416 69.6289 42.4814V41.9453C69.6289 41.7402 69.6787 41.5938 69.7783 41.5059C69.8779 41.418 70.0479 41.374 70.2881 41.374ZM78.5059 43.8789C78.7051 43.8789 78.8457 43.9258 78.9277 44.0195C79.0156 44.1074 79.0596 44.2598 79.0596 44.4766V50.8047H81.8809C82.0801 50.8047 82.2207 50.8516 82.3027 50.9453C82.3906 51.0332 82.4346 51.1855 82.4346 51.4023C82.4346 51.6191 82.3906 51.7744 82.3027 51.8682C82.2207 51.9561 82.0801 52 81.8809 52H74.9902C74.791 52 74.6475 51.9561 74.5596 51.8682C74.4775 51.7744 74.4365 51.6191 74.4365 51.4023C74.4365 51.1855 74.4775 51.0332 74.5596 50.9453C74.6475 50.8516 74.791 50.8047 74.9902 50.8047H77.7412V45.0742H75.5176C75.3184 45.0742 75.1748 45.0303 75.0869 44.9424C75.0049 44.8486 74.9639 44.6934 74.9639 44.4766C74.9639 44.2598 75.0049 44.1074 75.0869 44.0195C75.1748 43.9258 75.3184 43.8789 75.5176 43.8789H78.5059ZM78.2246 40.0205C78.5469 40.0205 78.7666 40.0645 78.8838 40.1523C79.001 40.2344 79.0596 40.3809 79.0596 40.5918V41.7344C79.0596 41.9453 79.001 42.0947 78.8838 42.1826C78.7666 42.2646 78.5469 42.3057 78.2246 42.3057C77.9023 42.3057 77.6826 42.2646 77.5654 42.1826C77.4482 42.0947 77.3896 41.9453 77.3896 41.7344V40.5918C77.3896 40.3809 77.4482 40.2344 77.5654 40.1523C77.6826 40.0645 77.9023 40.0205 78.2246 40.0205ZM89.9756 43.6855C90.5088 43.6855 90.9717 43.8027 91.3643 44.0371C91.7568 44.2656 92.0586 44.5967 92.2695 45.0303C92.4805 45.4639 92.5859 45.9707 92.5859 46.5508V50.8047H93.3066C93.5059 50.8047 93.6465 50.8516 93.7285 50.9453C93.8164 51.0332 93.8604 51.1855 93.8604 51.4023C93.8604 51.6191 93.8164 51.7744 93.7285 51.8682C93.6465 51.9561 93.5059 52 93.3066 52H90.459C90.2598 52 90.1162 51.9561 90.0283 51.8682C89.9463 51.7744 89.9053 51.6191 89.9053 51.4023C89.9053 51.1855 89.9463 51.0332 90.0283 50.9453C90.1162 50.8516 90.2598 50.8047 90.459 50.8047H91.2676V46.6826C91.2676 46.1611 91.1475 45.748 90.9072 45.4434C90.667 45.1387 90.3125 44.9863 89.8438 44.9863C89.3457 44.9863 88.8799 45.1299 88.4463 45.417C88.0186 45.7041 87.6758 46.0996 87.418 46.6035C87.1602 47.1074 87.0312 47.6699 87.0312 48.291V50.8047H87.8398C88.0391 50.8047 88.1797 50.8516 88.2617 50.9453C88.3496 51.0332 88.3936 51.1855 88.3936 51.4023C88.3936 51.6191 88.3496 51.7744 88.2617 51.8682C88.1797 51.9561 88.0391 52 87.8398 52H84.9922C84.793 52 84.6494 51.9561 84.5615 51.8682C84.4795 51.7744 84.4385 51.6191 84.4385 51.4023C84.4385 51.1855 84.4795 51.0332 84.5615 50.9453C84.6494 50.8516 84.793 50.8047 84.9922 50.8047H85.7129V45.0742H84.8164C84.6172 45.0742 84.4736 45.0303 84.3857 44.9424C84.3037 44.8486 84.2627 44.6934 84.2627 44.4766C84.2627 44.2598 84.3037 44.1074 84.3857 44.0195C84.4736 43.9258 84.6172 43.8789 84.8164 43.8789H86.3896C86.5889 43.8789 86.7295 43.9258 86.8115 44.0195C86.8994 44.1074 86.9434 44.2598 86.9434 44.4766V45.5312C87.3301 44.9336 87.7812 44.4766 88.2969 44.1602C88.8184 43.8438 89.3779 43.6855 89.9756 43.6855ZM99.292 43.6855C99.8662 43.6855 100.396 43.8145 100.883 44.0723C101.369 44.3301 101.797 44.6992 102.166 45.1797V44.4766C102.166 44.2598 102.207 44.1074 102.289 44.0195C102.377 43.9258 102.521 43.8789 102.72 43.8789H104.117C104.316 43.8789 104.457 43.9258 104.539 44.0195C104.627 44.1074 104.671 44.2598 104.671 44.4766C104.671 44.6934 104.627 44.8486 104.539 44.9424C104.457 45.0303 104.316 45.0742 104.117 45.0742H103.396V52.2637C103.396 52.9609 103.247 53.5586 102.948 54.0566C102.655 54.5605 102.228 54.9443 101.665 55.208C101.103 55.4717 100.426 55.6035 99.6348 55.6035C99.0723 55.6035 98.5039 55.5537 97.9297 55.4541C97.3555 55.3604 96.8193 55.2227 96.3213 55.041C96.0928 54.959 95.9785 54.8037 95.9785 54.5752C95.9785 54.4814 96.002 54.3643 96.0488 54.2236C96.1543 53.9014 96.3213 53.7402 96.5498 53.7402C96.6143 53.7402 96.6787 53.752 96.7432 53.7754C97.2002 53.9395 97.6807 54.0684 98.1846 54.1621C98.6885 54.2559 99.1719 54.3027 99.6348 54.3027C100.443 54.3027 101.053 54.1094 101.463 53.7227C101.873 53.3418 102.078 52.8174 102.078 52.1494V50.3828C101.352 51.2969 100.423 51.7539 99.292 51.7539C98.5654 51.7539 97.915 51.5928 97.3408 51.2705C96.7666 50.9424 96.3154 50.4736 95.9873 49.8643C95.6592 49.2549 95.4951 48.54 95.4951 47.7197C95.4951 46.8994 95.6592 46.1846 95.9873 45.5752C96.3154 44.9658 96.7666 44.5 97.3408 44.1777C97.915 43.8496 98.5654 43.6855 99.292 43.6855ZM99.3799 44.9863C98.8584 44.9863 98.4102 45.1035 98.0352 45.3379C97.6602 45.5664 97.373 45.8887 97.1738 46.3047C96.9805 46.7148 96.8838 47.1865 96.8838 47.7197C96.8838 48.2529 96.9805 48.7275 97.1738 49.1436C97.373 49.5537 97.6602 49.876 98.0352 50.1104C98.4102 50.3389 98.8584 50.4531 99.3799 50.4531C99.9014 50.4531 100.364 50.3447 100.769 50.1279C101.179 49.9111 101.498 49.5977 101.727 49.1875C101.961 48.7715 102.078 48.2822 102.078 47.7197C102.078 47.1572 101.961 46.6709 101.727 46.2607C101.498 45.8447 101.179 45.5283 100.769 45.3115C100.364 45.0947 99.9014 44.9863 99.3799 44.9863ZM110.797 40.4688C110.996 40.4688 111.137 40.5156 111.219 40.6094C111.307 40.6973 111.351 40.8496 111.351 41.0664V50.8047H114.172C114.371 50.8047 114.512 50.8516 114.594 50.9453C114.682 51.0332 114.726 51.1855 114.726 51.4023C114.726 51.6191 114.682 51.7744 114.594 51.8682C114.512 51.9561 114.371 52 114.172 52H107.281C107.082 52 106.938 51.9561 106.851 51.8682C106.769 51.7744 106.728 51.6191 106.728 51.4023C106.728 51.1855 106.769 51.0332 106.851 50.9453C106.938 50.8516 107.082 50.8047 107.281 50.8047H110.032V41.6641H107.633C107.434 41.6641 107.29 41.6201 107.202 41.5322C107.12 41.4385 107.079 41.2832 107.079 41.0664C107.079 40.8496 107.12 40.6973 107.202 40.6094C107.29 40.5156 107.434 40.4688 107.633 40.4688H110.797ZM121.44 43.6855C122.29 43.6855 123.014 43.8584 123.611 44.2041C124.215 44.5439 124.678 45.0186 125 45.6279C125.322 46.2314 125.507 46.9287 125.554 47.7197C125.554 47.9189 125.51 48.0596 125.422 48.1416C125.34 48.2236 125.199 48.2646 125 48.2646H118.637C118.678 49.1377 118.936 49.7998 119.41 50.251C119.891 50.6963 120.567 50.9189 121.44 50.9189C121.979 50.9189 122.513 50.8516 123.04 50.7168C123.567 50.5762 124.03 50.3916 124.429 50.1631C124.528 50.1104 124.619 50.084 124.701 50.084C124.906 50.084 125.073 50.2393 125.202 50.5498C125.255 50.6729 125.281 50.7842 125.281 50.8838C125.281 51.1182 125.152 51.2998 124.895 51.4287C124.443 51.6572 123.91 51.8418 123.295 51.9824C122.68 52.123 122.062 52.1934 121.44 52.1934C120.556 52.1934 119.8 52.0234 119.173 51.6836C118.546 51.3438 118.068 50.8545 117.74 50.2158C117.412 49.5771 117.248 48.8184 117.248 47.9395C117.248 47.1016 117.427 46.3604 117.784 45.7158C118.142 45.0713 118.637 44.5732 119.27 44.2217C119.902 43.8643 120.626 43.6855 121.44 43.6855ZM121.44 44.96C120.72 44.96 120.122 45.1445 119.647 45.5137C119.179 45.877 118.871 46.3838 118.725 47.0342H124.095C123.972 46.3604 123.688 45.8477 123.242 45.4961C122.803 45.1387 122.202 44.96 121.44 44.96ZM132.884 41.5674C133.083 41.5674 133.224 41.6143 133.306 41.708C133.394 41.7959 133.438 41.9482 133.438 42.165C133.438 42.3818 133.394 42.5371 133.306 42.6309C133.224 42.7188 133.083 42.7627 132.884 42.7627H130.757V50.8047H135.107V47.9131C135.107 47.708 135.157 47.5615 135.257 47.4736C135.356 47.3857 135.526 47.3418 135.767 47.3418C136.007 47.3418 136.177 47.3857 136.276 47.4736C136.376 47.5615 136.426 47.708 136.426 47.9131V51.4023C136.426 51.6191 136.382 51.7744 136.294 51.8682C136.212 51.9561 136.071 52 135.872 52H128.015C127.815 52 127.672 51.9561 127.584 51.8682C127.502 51.7744 127.461 51.6191 127.461 51.4023C127.461 51.1855 127.502 51.0332 127.584 50.9453C127.672 50.8516 127.815 50.8047 128.015 50.8047H129.438V42.7627H128.015C127.815 42.7627 127.672 42.7188 127.584 42.6309C127.502 42.5371 127.461 42.3818 127.461 42.165C127.461 41.9482 127.502 41.7959 127.584 41.708C127.672 41.6143 127.815 41.5674 128.015 41.5674H132.884ZM143.264 43.8789C143.463 43.8789 143.604 43.9258 143.686 44.0195C143.773 44.1074 143.817 44.2598 143.817 44.4766V50.8047H146.639C146.838 50.8047 146.979 50.8516 147.061 50.9453C147.148 51.0332 147.192 51.1855 147.192 51.4023C147.192 51.6191 147.148 51.7744 147.061 51.8682C146.979 51.9561 146.838 52 146.639 52H139.748C139.549 52 139.405 51.9561 139.317 51.8682C139.235 51.7744 139.194 51.6191 139.194 51.4023C139.194 51.1855 139.235 51.0332 139.317 50.9453C139.405 50.8516 139.549 50.8047 139.748 50.8047H142.499V45.0742H140.275C140.076 45.0742 139.933 45.0303 139.845 44.9424C139.763 44.8486 139.722 44.6934 139.722 44.4766C139.722 44.2598 139.763 44.1074 139.845 44.0195C139.933 43.9258 140.076 43.8789 140.275 43.8789H143.264ZM142.982 40.0205C143.305 40.0205 143.524 40.0645 143.642 40.1523C143.759 40.2344 143.817 40.3809 143.817 40.5918V41.7344C143.817 41.9453 143.759 42.0947 143.642 42.1826C143.524 42.2646 143.305 42.3057 142.982 42.3057C142.66 42.3057 142.44 42.2646 142.323 42.1826C142.206 42.0947 142.147 41.9453 142.147 41.7344V40.5918C142.147 40.3809 142.206 40.2344 142.323 40.1523C142.44 40.0645 142.66 40.0205 142.982 40.0205ZM154.733 43.6855C155.267 43.6855 155.729 43.8027 156.122 44.0371C156.515 44.2656 156.816 44.5967 157.027 45.0303C157.238 45.4639 157.344 45.9707 157.344 46.5508V50.8047H158.064C158.264 50.8047 158.404 50.8516 158.486 50.9453C158.574 51.0332 158.618 51.1855 158.618 51.4023C158.618 51.6191 158.574 51.7744 158.486 51.8682C158.404 51.9561 158.264 52 158.064 52H155.217C155.018 52 154.874 51.9561 154.786 51.8682C154.704 51.7744 154.663 51.6191 154.663 51.4023C154.663 51.1855 154.704 51.0332 154.786 50.9453C154.874 50.8516 155.018 50.8047 155.217 50.8047H156.025V46.6826C156.025 46.1611 155.905 45.748 155.665 45.4434C155.425 45.1387 155.07 44.9863 154.602 44.9863C154.104 44.9863 153.638 45.1299 153.204 45.417C152.776 45.7041 152.434 46.0996 152.176 46.6035C151.918 47.1074 151.789 47.6699 151.789 48.291V50.8047H152.598C152.797 50.8047 152.938 50.8516 153.02 50.9453C153.107 51.0332 153.151 51.1855 153.151 51.4023C153.151 51.6191 153.107 51.7744 153.02 51.8682C152.938 51.9561 152.797 52 152.598 52H149.75C149.551 52 149.407 51.9561 149.319 51.8682C149.237 51.7744 149.196 51.6191 149.196 51.4023C149.196 51.1855 149.237 51.0332 149.319 50.9453C149.407 50.8516 149.551 50.8047 149.75 50.8047H150.471V45.0742H149.574C149.375 45.0742 149.231 45.0303 149.144 44.9424C149.062 44.8486 149.021 44.6934 149.021 44.4766C149.021 44.2598 149.062 44.1074 149.144 44.0195C149.231 43.9258 149.375 43.8789 149.574 43.8789H151.147C151.347 43.8789 151.487 43.9258 151.569 44.0195C151.657 44.1074 151.701 44.2598 151.701 44.4766V45.5312C152.088 44.9336 152.539 44.4766 153.055 44.1602C153.576 43.8438 154.136 43.6855 154.733 43.6855ZM168.77 50.8047C168.969 50.8047 169.109 50.8516 169.191 50.9453C169.279 51.0332 169.323 51.1855 169.323 51.4023C169.323 51.6191 169.279 51.7744 169.191 51.8682C169.109 51.9561 168.969 52 168.77 52H165.922C165.723 52 165.579 51.9561 165.491 51.8682C165.409 51.7744 165.368 51.6191 165.368 51.4023C165.368 51.1855 165.409 51.0332 165.491 50.9453C165.579 50.8516 165.723 50.8047 165.922 50.8047H166.555L164.349 48.1855L162.749 49.5918V50.8047H163.391C163.59 50.8047 163.73 50.8516 163.812 50.9453C163.9 51.0332 163.944 51.1855 163.944 51.4023C163.944 51.6191 163.9 51.7744 163.812 51.8682C163.73 51.9561 163.59 52 163.391 52H160.455C160.256 52 160.112 51.9561 160.024 51.8682C159.942 51.7744 159.901 51.6191 159.901 51.4023C159.901 51.1855 159.942 51.0332 160.024 50.9453C160.112 50.8516 160.256 50.8047 160.455 50.8047H161.431V41.6641H160.279C160.08 41.6641 159.937 41.6201 159.849 41.5322C159.767 41.4385 159.726 41.2832 159.726 41.0664C159.726 40.8496 159.767 40.6973 159.849 40.6094C159.937 40.5156 160.08 40.4688 160.279 40.4688H162.195C162.395 40.4688 162.535 40.5156 162.617 40.6094C162.705 40.6973 162.749 40.8496 162.749 41.0664V48.0273L166.098 45.0742H165.474C165.274 45.0742 165.131 45.0303 165.043 44.9424C164.961 44.8486 164.92 44.6934 164.92 44.4766C164.92 44.2598 164.961 44.1074 165.043 44.0195C165.131 43.9258 165.274 43.8789 165.474 43.8789H168.409C168.608 43.8789 168.749 43.9258 168.831 44.0195C168.919 44.1074 168.963 44.2598 168.963 44.4766C168.963 44.6934 168.919 44.8486 168.831 44.9424C168.749 45.0303 168.608 45.0742 168.409 45.0742H167.891L165.307 47.3506L168.26 50.8047H168.77Z" fill="black"/>
<path d="M96.8037 100.469C97.0029 100.469 97.1436 100.516 97.2256 100.609C97.3135 100.697 97.3574 100.85 97.3574 101.066V105.443C97.7383 104.875 98.1777 104.441 98.6758 104.143C99.1797 103.838 99.7217 103.686 100.302 103.686C100.835 103.686 101.298 103.803 101.69 104.037C102.083 104.266 102.385 104.597 102.596 105.03C102.807 105.464 102.912 105.971 102.912 106.551V110.805H103.633C103.832 110.805 103.973 110.852 104.055 110.945C104.143 111.033 104.187 111.186 104.187 111.402C104.187 111.619 104.143 111.774 104.055 111.868C103.973 111.956 103.832 112 103.633 112H100.785C100.586 112 100.442 111.956 100.354 111.868C100.272 111.774 100.231 111.619 100.231 111.402C100.231 111.186 100.272 111.033 100.354 110.945C100.442 110.852 100.586 110.805 100.785 110.805H101.594V106.683C101.594 106.161 101.474 105.748 101.233 105.443C100.993 105.139 100.639 104.986 100.17 104.986C99.6719 104.986 99.2061 105.13 98.7725 105.417C98.3447 105.704 98.002 106.1 97.7441 106.604C97.4863 107.107 97.3574 107.67 97.3574 108.291V110.805H98.166C98.3652 110.805 98.5059 110.852 98.5879 110.945C98.6758 111.033 98.7197 111.186 98.7197 111.402C98.7197 111.619 98.6758 111.774 98.5879 111.868C98.5059 111.956 98.3652 112 98.166 112H95.3184C95.1191 112 94.9756 111.956 94.8877 111.868C94.8057 111.774 94.7646 111.619 94.7646 111.402C94.7646 111.186 94.8057 111.033 94.8877 110.945C94.9756 110.852 95.1191 110.805 95.3184 110.805H96.0391V101.664H95.2305C95.0312 101.664 94.8877 101.62 94.7998 101.532C94.7178 101.438 94.6768 101.283 94.6768 101.066C94.6768 100.85 94.7178 100.697 94.7998 100.609C94.8877 100.516 95.0312 100.469 95.2305 100.469H96.8037ZM110.269 103.686C111.118 103.686 111.842 103.858 112.439 104.204C113.043 104.544 113.506 105.019 113.828 105.628C114.15 106.231 114.335 106.929 114.382 107.72C114.382 107.919 114.338 108.06 114.25 108.142C114.168 108.224 114.027 108.265 113.828 108.265H107.465C107.506 109.138 107.764 109.8 108.238 110.251C108.719 110.696 109.396 110.919 110.269 110.919C110.808 110.919 111.341 110.852 111.868 110.717C112.396 110.576 112.858 110.392 113.257 110.163C113.356 110.11 113.447 110.084 113.529 110.084C113.734 110.084 113.901 110.239 114.03 110.55C114.083 110.673 114.109 110.784 114.109 110.884C114.109 111.118 113.98 111.3 113.723 111.429C113.271 111.657 112.738 111.842 112.123 111.982C111.508 112.123 110.89 112.193 110.269 112.193C109.384 112.193 108.628 112.023 108.001 111.684C107.374 111.344 106.896 110.854 106.568 110.216C106.24 109.577 106.076 108.818 106.076 107.939C106.076 107.102 106.255 106.36 106.612 105.716C106.97 105.071 107.465 104.573 108.098 104.222C108.73 103.864 109.454 103.686 110.269 103.686ZM110.269 104.96C109.548 104.96 108.95 105.145 108.476 105.514C108.007 105.877 107.699 106.384 107.553 107.034H112.923C112.8 106.36 112.516 105.848 112.07 105.496C111.631 105.139 111.03 104.96 110.269 104.96ZM121.018 103.686C122.119 103.686 122.945 103.932 123.496 104.424C124.047 104.916 124.322 105.646 124.322 106.612V110.11C124.322 110.573 124.516 110.805 124.902 110.805H125.21C125.409 110.805 125.55 110.852 125.632 110.945C125.72 111.033 125.764 111.186 125.764 111.402C125.764 111.619 125.72 111.774 125.632 111.868C125.55 111.956 125.409 112 125.21 112H124.647C124.267 112 123.938 111.906 123.663 111.719C123.394 111.525 123.218 111.244 123.136 110.875C122.655 111.297 122.134 111.622 121.571 111.851C121.015 112.079 120.423 112.193 119.796 112.193C119.204 112.193 118.68 112.094 118.223 111.895C117.771 111.689 117.417 111.394 117.159 111.007C116.901 110.62 116.772 110.16 116.772 109.627C116.772 108.701 117.104 108.019 117.766 107.579C118.428 107.134 119.283 106.911 120.332 106.911C121.264 106.911 122.154 107.061 123.004 107.359V106.612C123.004 106.044 122.843 105.628 122.521 105.364C122.204 105.095 121.691 104.96 120.982 104.96C120.543 104.96 120.086 105.021 119.611 105.145C119.137 105.268 118.686 105.438 118.258 105.654C118.158 105.707 118.067 105.733 117.985 105.733C117.792 105.733 117.631 105.593 117.502 105.312C117.438 105.171 117.405 105.054 117.405 104.96C117.405 104.755 117.514 104.597 117.73 104.485C118.223 104.228 118.75 104.031 119.312 103.896C119.881 103.756 120.449 103.686 121.018 103.686ZM120.341 108.15C119.667 108.15 119.134 108.268 118.741 108.502C118.354 108.73 118.161 109.097 118.161 109.601C118.161 110.028 118.308 110.362 118.601 110.603C118.899 110.837 119.315 110.954 119.849 110.954C121.015 110.954 122.066 110.471 123.004 109.504V108.546C122.605 108.417 122.178 108.32 121.721 108.256C121.264 108.186 120.804 108.15 120.341 108.15ZM134.843 100.469C135.042 100.469 135.183 100.516 135.265 100.609C135.353 100.697 135.396 100.85 135.396 101.066V110.805H136.117C136.316 110.805 136.457 110.852 136.539 110.945C136.627 111.033 136.671 111.186 136.671 111.402C136.671 111.619 136.627 111.774 136.539 111.868C136.457 111.956 136.316 112 136.117 112H134.72C134.521 112 134.377 111.956 134.289 111.868C134.207 111.774 134.166 111.619 134.166 111.402V110.699C133.797 111.18 133.369 111.549 132.883 111.807C132.396 112.064 131.866 112.193 131.292 112.193C130.565 112.193 129.915 112.023 129.341 111.684C128.767 111.338 128.315 110.846 127.987 110.207C127.659 109.562 127.495 108.807 127.495 107.939C127.495 107.072 127.659 106.319 127.987 105.681C128.315 105.036 128.767 104.544 129.341 104.204C129.915 103.858 130.565 103.686 131.292 103.686C132.394 103.686 133.322 104.169 134.078 105.136V101.664H132.654C132.455 101.664 132.312 101.62 132.224 101.532C132.142 101.438 132.101 101.283 132.101 101.066C132.101 100.85 132.142 100.697 132.224 100.609C132.312 100.516 132.455 100.469 132.654 100.469H134.843ZM131.38 104.986C130.858 104.986 130.41 105.112 130.035 105.364C129.66 105.61 129.373 105.956 129.174 106.401C128.98 106.847 128.884 107.359 128.884 107.939C128.884 108.52 128.98 109.032 129.174 109.478C129.373 109.923 129.66 110.271 130.035 110.523C130.41 110.77 130.858 110.893 131.38 110.893C131.901 110.893 132.364 110.775 132.769 110.541C133.179 110.307 133.498 109.967 133.727 109.521C133.961 109.076 134.078 108.549 134.078 107.939C134.078 107.33 133.961 106.803 133.727 106.357C133.498 105.912 133.179 105.572 132.769 105.338C132.364 105.104 131.901 104.986 131.38 104.986Z" fill="black"/>
<path d="M98.0254 161.374C98.2656 161.374 98.4355 161.418 98.5352 161.506C98.6348 161.594 98.6846 161.74 98.6846 161.945V164.582H102.297C102.496 164.582 102.637 164.629 102.719 164.723C102.807 164.811 102.851 164.963 102.851 165.18C102.851 165.396 102.807 165.552 102.719 165.646C102.637 165.733 102.496 165.777 102.297 165.777H98.6846V168.977C98.6846 169.645 98.7988 170.134 99.0273 170.444C99.2617 170.755 99.666 170.91 100.24 170.91C100.633 170.91 101.046 170.831 101.479 170.673C101.913 170.515 102.332 170.304 102.736 170.04C102.818 169.981 102.909 169.952 103.009 169.952C103.208 169.952 103.378 170.087 103.519 170.356C103.595 170.509 103.633 170.641 103.633 170.752C103.633 170.939 103.536 171.092 103.343 171.209C102.886 171.496 102.376 171.733 101.813 171.921C101.251 172.103 100.727 172.193 100.24 172.193C99.2441 172.193 98.5146 171.936 98.0518 171.42C97.5947 170.898 97.3662 170.122 97.3662 169.091V165.777H95.582C95.3828 165.777 95.2393 165.733 95.1514 165.646C95.0693 165.552 95.0283 165.396 95.0283 165.18C95.0283 164.963 95.0693 164.811 95.1514 164.723C95.2393 164.629 95.3828 164.582 95.582 164.582H97.3662V161.945C97.3662 161.74 97.416 161.594 97.5156 161.506C97.6152 161.418 97.7852 161.374 98.0254 161.374ZM110.225 163.686C111.326 163.686 112.152 163.932 112.703 164.424C113.254 164.916 113.529 165.646 113.529 166.612V170.11C113.529 170.573 113.723 170.805 114.109 170.805H114.417C114.616 170.805 114.757 170.852 114.839 170.945C114.927 171.033 114.971 171.186 114.971 171.402C114.971 171.619 114.927 171.774 114.839 171.868C114.757 171.956 114.616 172 114.417 172H113.854C113.474 172 113.146 171.906 112.87 171.719C112.601 171.525 112.425 171.244 112.343 170.875C111.862 171.297 111.341 171.622 110.778 171.851C110.222 172.079 109.63 172.193 109.003 172.193C108.411 172.193 107.887 172.094 107.43 171.895C106.979 171.689 106.624 171.394 106.366 171.007C106.108 170.62 105.979 170.16 105.979 169.627C105.979 168.701 106.311 168.019 106.973 167.579C107.635 167.134 108.49 166.911 109.539 166.911C110.471 166.911 111.361 167.061 112.211 167.359V166.612C112.211 166.044 112.05 165.628 111.728 165.364C111.411 165.095 110.898 164.96 110.189 164.96C109.75 164.96 109.293 165.021 108.818 165.145C108.344 165.268 107.893 165.438 107.465 165.654C107.365 165.707 107.274 165.733 107.192 165.733C106.999 165.733 106.838 165.593 106.709 165.312C106.645 165.171 106.612 165.054 106.612 164.96C106.612 164.755 106.721 164.597 106.938 164.485C107.43 164.228 107.957 164.031 108.52 163.896C109.088 163.756 109.656 163.686 110.225 163.686ZM109.548 168.15C108.874 168.15 108.341 168.268 107.948 168.502C107.562 168.73 107.368 169.097 107.368 169.601C107.368 170.028 107.515 170.362 107.808 170.603C108.106 170.837 108.522 170.954 109.056 170.954C110.222 170.954 111.273 170.471 112.211 169.504V168.546C111.812 168.417 111.385 168.32 110.928 168.256C110.471 168.186 110.011 168.15 109.548 168.15ZM121.299 163.879C121.498 163.879 121.639 163.926 121.721 164.02C121.809 164.107 121.853 164.26 121.853 164.477V170.805H124.674C124.873 170.805 125.014 170.852 125.096 170.945C125.184 171.033 125.228 171.186 125.228 171.402C125.228 171.619 125.184 171.774 125.096 171.868C125.014 171.956 124.873 172 124.674 172H117.783C117.584 172 117.44 171.956 117.353 171.868C117.271 171.774 117.229 171.619 117.229 171.402C117.229 171.186 117.271 171.033 117.353 170.945C117.44 170.852 117.584 170.805 117.783 170.805H120.534V165.074H118.311C118.111 165.074 117.968 165.03 117.88 164.942C117.798 164.849 117.757 164.693 117.757 164.477C117.757 164.26 117.798 164.107 117.88 164.02C117.968 163.926 118.111 163.879 118.311 163.879H121.299ZM121.018 160.021C121.34 160.021 121.56 160.064 121.677 160.152C121.794 160.234 121.853 160.381 121.853 160.592V161.734C121.853 161.945 121.794 162.095 121.677 162.183C121.56 162.265 121.34 162.306 121.018 162.306C120.695 162.306 120.476 162.265 120.358 162.183C120.241 162.095 120.183 161.945 120.183 161.734V160.592C120.183 160.381 120.241 160.234 120.358 160.152C120.476 160.064 120.695 160.021 121.018 160.021ZM132.004 160.469C132.203 160.469 132.344 160.516 132.426 160.609C132.514 160.697 132.558 160.85 132.558 161.066V170.805H135.379C135.578 170.805 135.719 170.852 135.801 170.945C135.889 171.033 135.933 171.186 135.933 171.402C135.933 171.619 135.889 171.774 135.801 171.868C135.719 171.956 135.578 172 135.379 172H128.488C128.289 172 128.146 171.956 128.058 171.868C127.976 171.774 127.935 171.619 127.935 171.402C127.935 171.186 127.976 171.033 128.058 170.945C128.146 170.852 128.289 170.805 128.488 170.805H131.239V161.664H128.84C128.641 161.664 128.497 161.62 128.409 161.532C128.327 161.438 128.286 161.283 128.286 161.066C128.286 160.85 128.327 160.697 128.409 160.609C128.497 160.516 128.641 160.469 128.84 160.469H132.004Z" fill="black"/>
<rect x="672" y="66" width="148" height="148" fill="white" stroke="black" stroke-width="2"/>
<path d="M734.038 41.5674C734.237 41.5674 734.378 41.6143 734.46 41.708C734.548 41.7959 734.592 41.9482 734.592 42.165C734.592 42.3818 734.548 42.5371 734.46 42.6309C734.378 42.7188 734.237 42.7627 734.038 42.7627H733.537V51.6748C733.537 51.833 733.481 51.959 733.37 52.0527C733.265 52.1465 733.101 52.1934 732.878 52.1934C732.567 52.1934 732.321 52.0322 732.14 51.71L727.578 43.5625H727.543V50.8047H728.782C728.981 50.8047 729.122 50.8516 729.204 50.9453C729.292 51.0332 729.336 51.1855 729.336 51.4023C729.336 51.6191 729.292 51.7744 729.204 51.8682C729.122 51.9561 728.981 52 728.782 52H725.671C725.472 52 725.328 51.9561 725.24 51.8682C725.158 51.7744 725.117 51.6191 725.117 51.4023C725.117 51.1855 725.158 51.0332 725.24 50.9453C725.328 50.8516 725.472 50.8047 725.671 50.8047H726.26V42.7627H725.583C725.384 42.7627 725.24 42.7188 725.152 42.6309C725.07 42.5371 725.029 42.3818 725.029 42.165C725.029 41.9482 725.07 41.7959 725.152 41.708C725.24 41.6143 725.384 41.5674 725.583 41.5674H727.552C727.681 41.5674 727.783 41.5879 727.859 41.6289C727.941 41.6699 728.006 41.7314 728.053 41.8135L732.219 49.2666H732.254V42.7627H731.19C730.991 42.7627 730.848 42.7188 730.76 42.6309C730.678 42.5371 730.637 42.3818 730.637 42.165C730.637 41.9482 730.678 41.7959 730.76 41.708C730.848 41.6143 730.991 41.5674 731.19 41.5674H734.038ZM740.604 43.6855C741.406 43.6855 742.13 43.8672 742.774 44.2305C743.419 44.5938 743.923 45.1006 744.286 45.751C744.655 46.3955 744.84 47.125 744.84 47.9395C744.84 48.7539 744.655 49.4863 744.286 50.1367C743.923 50.7812 743.419 51.2852 742.774 51.6484C742.13 52.0117 741.406 52.1934 740.604 52.1934C739.801 52.1934 739.077 52.0117 738.433 51.6484C737.788 51.2852 737.281 50.7812 736.912 50.1367C736.549 49.4863 736.367 48.7539 736.367 47.9395C736.367 47.125 736.549 46.3955 736.912 45.751C737.281 45.1006 737.788 44.5938 738.433 44.2305C739.077 43.8672 739.801 43.6855 740.604 43.6855ZM740.604 44.9863C740.035 44.9863 739.534 45.1123 739.101 45.3643C738.673 45.6104 738.342 45.959 738.107 46.4102C737.873 46.8555 737.756 47.3652 737.756 47.9395C737.756 48.5137 737.873 49.0264 738.107 49.4775C738.342 49.9229 738.673 50.2715 739.101 50.5234C739.534 50.7695 740.035 50.8926 740.604 50.8926C741.172 50.8926 741.67 50.7695 742.098 50.5234C742.531 50.2715 742.865 49.9229 743.1 49.4775C743.334 49.0264 743.451 48.5137 743.451 47.9395C743.451 47.3652 743.334 46.8555 743.1 46.4102C742.865 45.959 742.531 45.6104 742.098 45.3643C741.67 45.1123 741.172 44.9863 740.604 44.9863ZM754.464 40.4688C754.663 40.4688 754.804 40.5156 754.886 40.6094C754.974 40.6973 755.018 40.8496 755.018 41.0664V50.8047H755.738C755.938 50.8047 756.078 50.8516 756.16 50.9453C756.248 51.0332 756.292 51.1855 756.292 51.4023C756.292 51.6191 756.248 51.7744 756.16 51.8682C756.078 51.9561 755.938 52 755.738 52H754.341C754.142 52 753.998 51.9561 753.91 51.8682C753.828 51.7744 753.787 51.6191 753.787 51.4023V50.6992C753.418 51.1797 752.99 51.5488 752.504 51.8066C752.018 52.0645 751.487 52.1934 750.913 52.1934C750.187 52.1934 749.536 52.0234 748.962 51.6836C748.388 51.3379 747.937 50.8457 747.608 50.207C747.28 49.5625 747.116 48.8066 747.116 47.9395C747.116 47.0723 747.28 46.3193 747.608 45.6807C747.937 45.0361 748.388 44.5439 748.962 44.2041C749.536 43.8584 750.187 43.6855 750.913 43.6855C752.015 43.6855 752.943 44.1689 753.699 45.1357V41.6641H752.275C752.076 41.6641 751.933 41.6201 751.845 41.5322C751.763 41.4385 751.722 41.2832 751.722 41.0664C751.722 40.8496 751.763 40.6973 751.845 40.6094C751.933 40.5156 752.076 40.4688 752.275 40.4688H754.464ZM751.001 44.9863C750.479 44.9863 750.031 45.1123 749.656 45.3643C749.281 45.6104 748.994 45.9561 748.795 46.4014C748.602 46.8467 748.505 47.3594 748.505 47.9395C748.505 48.5195 748.602 49.0322 748.795 49.4775C748.994 49.9229 749.281 50.2715 749.656 50.5234C750.031 50.7695 750.479 50.8926 751.001 50.8926C751.522 50.8926 751.985 50.7754 752.39 50.541C752.8 50.3066 753.119 49.9668 753.348 49.5215C753.582 49.0762 753.699 48.5488 753.699 47.9395C753.699 47.3301 753.582 46.8027 753.348 46.3574C753.119 45.9121 752.8 45.5723 752.39 45.3379C751.985 45.1035 751.522 44.9863 751.001 44.9863ZM762.269 43.6855C763.118 43.6855 763.842 43.8584 764.439 44.2041C765.043 44.5439 765.506 45.0186 765.828 45.6279C766.15 46.2314 766.335 46.9287 766.382 47.7197C766.382 47.9189 766.338 48.0596 766.25 48.1416C766.168 48.2236 766.027 48.2646 765.828 48.2646H759.465C759.506 49.1377 759.764 49.7998 760.238 50.251C760.719 50.6963 761.396 50.9189 762.269 50.9189C762.808 50.9189 763.341 50.8516 763.868 50.7168C764.396 50.5762 764.858 50.3916 765.257 50.1631C765.356 50.1104 765.447 50.084 765.529 50.084C765.734 50.084 765.901 50.2393 766.03 50.5498C766.083 50.6729 766.109 50.7842 766.109 50.8838C766.109 51.1182 765.98 51.2998 765.723 51.4287C765.271 51.6572 764.738 51.8418 764.123 51.9824C763.508 52.123 762.89 52.1934 762.269 52.1934C761.384 52.1934 760.628 52.0234 760.001 51.6836C759.374 51.3438 758.896 50.8545 758.568 50.2158C758.24 49.5771 758.076 48.8184 758.076 47.9395C758.076 47.1016 758.255 46.3604 758.612 45.7158C758.97 45.0713 759.465 44.5732 760.098 44.2217C760.73 43.8643 761.454 43.6855 762.269 43.6855ZM762.269 44.96C761.548 44.96 760.95 45.1445 760.476 45.5137C760.007 45.877 759.699 46.3838 759.553 47.0342H764.923C764.8 46.3604 764.516 45.8477 764.07 45.4961C763.631 45.1387 763.03 44.96 762.269 44.96Z" fill="black"/>
<path d="M716.688 100.469C716.888 100.469 717.028 100.516 717.11 100.609C717.198 100.697 717.242 100.85 717.242 101.066V110.805H717.963C718.162 110.805 718.303 110.852 718.385 110.945C718.473 111.033 718.517 111.186 718.517 111.402C718.517 111.619 718.473 111.774 718.385 111.868C718.303 111.956 718.162 112 717.963 112H716.565C716.366 112 716.223 111.956 716.135 111.868C716.053 111.774 716.012 111.619 716.012 111.402V110.699C715.643 111.18 715.215 111.549 714.729 111.807C714.242 112.064 713.712 112.193 713.138 112.193C712.411 112.193 711.761 112.023 711.187 111.684C710.612 111.338 710.161 110.846 709.833 110.207C709.505 109.562 709.341 108.807 709.341 107.939C709.341 107.072 709.505 106.319 709.833 105.681C710.161 105.036 710.612 104.544 711.187 104.204C711.761 103.858 712.411 103.686 713.138 103.686C714.239 103.686 715.168 104.169 715.924 105.136V101.664H714.5C714.301 101.664 714.157 101.62 714.069 101.532C713.987 101.438 713.946 101.283 713.946 101.066C713.946 100.85 713.987 100.697 714.069 100.609C714.157 100.516 714.301 100.469 714.5 100.469H716.688ZM713.226 104.986C712.704 104.986 712.256 105.112 711.881 105.364C711.506 105.61 711.219 105.956 711.02 106.401C710.826 106.847 710.729 107.359 710.729 107.939C710.729 108.52 710.826 109.032 711.02 109.478C711.219 109.923 711.506 110.271 711.881 110.523C712.256 110.77 712.704 110.893 713.226 110.893C713.747 110.893 714.21 110.775 714.614 110.541C715.024 110.307 715.344 109.967 715.572 109.521C715.807 109.076 715.924 108.549 715.924 107.939C715.924 107.33 715.807 106.803 715.572 106.357C715.344 105.912 715.024 105.572 714.614 105.338C714.21 105.104 713.747 104.986 713.226 104.986ZM724.449 103.686C725.551 103.686 726.377 103.932 726.928 104.424C727.479 104.916 727.754 105.646 727.754 106.612V110.11C727.754 110.573 727.947 110.805 728.334 110.805H728.642C728.841 110.805 728.981 110.852 729.063 110.945C729.151 111.033 729.195 111.186 729.195 111.402C729.195 111.619 729.151 111.774 729.063 111.868C728.981 111.956 728.841 112 728.642 112H728.079C727.698 112 727.37 111.906 727.095 111.719C726.825 111.525 726.649 111.244 726.567 110.875C726.087 111.297 725.565 111.622 725.003 111.851C724.446 112.079 723.854 112.193 723.228 112.193C722.636 112.193 722.111 112.094 721.654 111.895C721.203 111.689 720.849 111.394 720.591 111.007C720.333 110.62 720.204 110.16 720.204 109.627C720.204 108.701 720.535 108.019 721.197 107.579C721.859 107.134 722.715 106.911 723.764 106.911C724.695 106.911 725.586 107.061 726.436 107.359V106.612C726.436 106.044 726.274 105.628 725.952 105.364C725.636 105.095 725.123 104.96 724.414 104.96C723.975 104.96 723.518 105.021 723.043 105.145C722.568 105.268 722.117 105.438 721.689 105.654C721.59 105.707 721.499 105.733 721.417 105.733C721.224 105.733 721.062 105.593 720.934 105.312C720.869 105.171 720.837 105.054 720.837 104.96C720.837 104.755 720.945 104.597 721.162 104.485C721.654 104.228 722.182 104.031 722.744 103.896C723.312 103.756 723.881 103.686 724.449 103.686ZM723.772 108.15C723.099 108.15 722.565 108.268 722.173 108.502C721.786 108.73 721.593 109.097 721.593 109.601C721.593 110.028 721.739 110.362 722.032 110.603C722.331 110.837 722.747 110.954 723.28 110.954C724.446 110.954 725.498 110.471 726.436 109.504V108.546C726.037 108.417 725.609 108.32 725.152 108.256C724.695 108.186 724.235 108.15 723.772 108.15ZM733.836 101.374C734.076 101.374 734.246 101.418 734.346 101.506C734.445 101.594 734.495 101.74 734.495 101.945V104.582H738.107C738.307 104.582 738.447 104.629 738.529 104.723C738.617 104.811 738.661 104.963 738.661 105.18C738.661 105.396 738.617 105.552 738.529 105.646C738.447 105.733 738.307 105.777 738.107 105.777H734.495V108.977C734.495 109.645 734.609 110.134 734.838 110.444C735.072 110.755 735.477 110.91 736.051 110.91C736.443 110.91 736.856 110.831 737.29 110.673C737.724 110.515 738.143 110.304 738.547 110.04C738.629 109.981 738.72 109.952 738.819 109.952C739.019 109.952 739.188 110.087 739.329 110.356C739.405 110.509 739.443 110.641 739.443 110.752C739.443 110.939 739.347 111.092 739.153 111.209C738.696 111.496 738.187 111.733 737.624 111.921C737.062 112.103 736.537 112.193 736.051 112.193C735.055 112.193 734.325 111.936 733.862 111.42C733.405 110.898 733.177 110.122 733.177 109.091V105.777H731.393C731.193 105.777 731.05 105.733 730.962 105.646C730.88 105.552 730.839 105.396 730.839 105.18C730.839 104.963 730.88 104.811 730.962 104.723C731.05 104.629 731.193 104.582 731.393 104.582H733.177V101.945C733.177 101.74 733.227 101.594 733.326 101.506C733.426 101.418 733.596 101.374 733.836 101.374ZM746.035 103.686C747.137 103.686 747.963 103.932 748.514 104.424C749.064 104.916 749.34 105.646 749.34 106.612V110.11C749.34 110.573 749.533 110.805 749.92 110.805H750.228C750.427 110.805 750.567 110.852 750.649 110.945C750.737 111.033 750.781 111.186 750.781 111.402C750.781 111.619 750.737 111.774 750.649 111.868C750.567 111.956 750.427 112 750.228 112H749.665C749.284 112 748.956 111.906 748.681 111.719C748.411 111.525 748.235 111.244 748.153 110.875C747.673 111.297 747.151 111.622 746.589 111.851C746.032 112.079 745.44 112.193 744.813 112.193C744.222 112.193 743.697 112.094 743.24 111.895C742.789 111.689 742.435 111.394 742.177 111.007C741.919 110.62 741.79 110.16 741.79 109.627C741.79 108.701 742.121 108.019 742.783 107.579C743.445 107.134 744.301 106.911 745.35 106.911C746.281 106.911 747.172 107.061 748.021 107.359V106.612C748.021 106.044 747.86 105.628 747.538 105.364C747.222 105.095 746.709 104.96 746 104.96C745.561 104.96 745.104 105.021 744.629 105.145C744.154 105.268 743.703 105.438 743.275 105.654C743.176 105.707 743.085 105.733 743.003 105.733C742.81 105.733 742.648 105.593 742.52 105.312C742.455 105.171 742.423 105.054 742.423 104.96C742.423 104.755 742.531 104.597 742.748 104.485C743.24 104.228 743.768 104.031 744.33 103.896C744.898 103.756 745.467 103.686 746.035 103.686ZM745.358 108.15C744.685 108.15 744.151 108.268 743.759 108.502C743.372 108.73 743.179 109.097 743.179 109.601C743.179 110.028 743.325 110.362 743.618 110.603C743.917 110.837 744.333 110.954 744.866 110.954C746.032 110.954 747.084 110.471 748.021 109.504V108.546C747.623 108.417 747.195 108.32 746.738 108.256C746.281 108.186 745.821 108.15 745.358 108.15ZM760.142 104.529C760.341 104.529 760.481 104.576 760.563 104.67C760.651 104.758 760.695 104.91 760.695 105.127C760.695 105.344 760.651 105.499 760.563 105.593C760.481 105.681 760.341 105.725 760.142 105.725H753.444C753.245 105.725 753.102 105.681 753.014 105.593C752.932 105.499 752.891 105.344 752.891 105.127C752.891 104.91 752.932 104.758 753.014 104.67C753.102 104.576 753.245 104.529 753.444 104.529H760.142ZM760.142 108.045C760.341 108.045 760.481 108.092 760.563 108.186C760.651 108.273 760.695 108.426 760.695 108.643C760.695 108.859 760.651 109.015 760.563 109.108C760.481 109.196 760.341 109.24 760.142 109.24H753.444C753.245 109.24 753.102 109.196 753.014 109.108C752.932 109.015 752.891 108.859 752.891 108.643C752.891 108.426 752.932 108.273 753.014 108.186C753.102 108.092 753.245 108.045 753.444 108.045H760.142ZM768.79 101.374C769.3 101.374 769.555 101.603 769.555 102.06V107.641H770.979C771.178 107.641 771.318 107.688 771.4 107.781C771.488 107.869 771.532 108.021 771.532 108.238C771.532 108.455 771.488 108.61 771.4 108.704C771.318 108.792 771.178 108.836 770.979 108.836H769.555V110.805H770.715C770.914 110.805 771.055 110.852 771.137 110.945C771.225 111.033 771.269 111.186 771.269 111.402C771.269 111.619 771.225 111.774 771.137 111.868C771.055 111.956 770.914 112 770.715 112H766.936C766.736 112 766.593 111.956 766.505 111.868C766.423 111.774 766.382 111.619 766.382 111.402C766.382 111.186 766.423 111.033 766.505 110.945C766.593 110.852 766.736 110.805 766.936 110.805H768.236V108.836H764.035C763.836 108.836 763.692 108.792 763.604 108.704C763.522 108.61 763.481 108.455 763.481 108.238C763.481 108.045 763.511 107.907 763.569 107.825L767.823 101.91C767.952 101.729 768.09 101.594 768.236 101.506C768.383 101.418 768.567 101.374 768.79 101.374ZM765.23 107.641H768.236L768.307 103.281L765.23 107.641ZM781.473 101.567C781.672 101.567 781.812 101.614 781.895 101.708C781.982 101.796 782.026 101.948 782.026 102.165C782.026 102.306 782.009 102.423 781.974 102.517L778.229 111.789C778.177 111.924 778.092 112.023 777.975 112.088C777.863 112.158 777.729 112.193 777.57 112.193C777.359 112.193 777.187 112.149 777.052 112.062C776.923 111.979 776.858 111.868 776.858 111.728C776.858 111.646 776.873 111.572 776.902 111.508L780.479 102.763H776.313V104.046C776.313 104.251 776.264 104.397 776.164 104.485C776.064 104.573 775.895 104.617 775.654 104.617C775.414 104.617 775.244 104.573 775.145 104.485C775.045 104.397 774.995 104.251 774.995 104.046V102.165C774.995 101.948 775.036 101.796 775.118 101.708C775.206 101.614 775.35 101.567 775.549 101.567H781.473Z" fill="black"/>
<path d="M730.804 163.686C731.337 163.686 731.8 163.803 732.192 164.037C732.585 164.266 732.887 164.597 733.098 165.03C733.309 165.464 733.414 165.971 733.414 166.551V170.805H734.135C734.334 170.805 734.475 170.852 734.557 170.945C734.645 171.033 734.688 171.186 734.688 171.402C734.688 171.619 734.645 171.774 734.557 171.868C734.475 171.956 734.334 172 734.135 172H731.287C731.088 172 730.944 171.956 730.856 171.868C730.774 171.774 730.733 171.619 730.733 171.402C730.733 171.186 730.774 171.033 730.856 170.945C730.944 170.852 731.088 170.805 731.287 170.805H732.096V166.683C732.096 166.161 731.976 165.748 731.735 165.443C731.495 165.139 731.141 164.986 730.672 164.986C730.174 164.986 729.708 165.13 729.274 165.417C728.847 165.704 728.504 166.1 728.246 166.604C727.988 167.107 727.859 167.67 727.859 168.291V170.805H728.668C728.867 170.805 729.008 170.852 729.09 170.945C729.178 171.033 729.222 171.186 729.222 171.402C729.222 171.619 729.178 171.774 729.09 171.868C729.008 171.956 728.867 172 728.668 172H725.82C725.621 172 725.478 171.956 725.39 171.868C725.308 171.774 725.267 171.619 725.267 171.402C725.267 171.186 725.308 171.033 725.39 170.945C725.478 170.852 725.621 170.805 725.82 170.805H726.541V165.074H725.645C725.445 165.074 725.302 165.03 725.214 164.942C725.132 164.849 725.091 164.693 725.091 164.477C725.091 164.26 725.132 164.107 725.214 164.02C725.302 163.926 725.445 163.879 725.645 163.879H727.218C727.417 163.879 727.558 163.926 727.64 164.02C727.728 164.107 727.771 164.26 727.771 164.477V165.531C728.158 164.934 728.609 164.477 729.125 164.16C729.646 163.844 730.206 163.686 730.804 163.686ZM740.683 163.686C741.532 163.686 742.256 163.858 742.854 164.204C743.457 164.544 743.92 165.019 744.242 165.628C744.564 166.231 744.749 166.929 744.796 167.72C744.796 167.919 744.752 168.06 744.664 168.142C744.582 168.224 744.441 168.265 744.242 168.265H737.879C737.92 169.138 738.178 169.8 738.652 170.251C739.133 170.696 739.81 170.919 740.683 170.919C741.222 170.919 741.755 170.852 742.282 170.717C742.81 170.576 743.272 170.392 743.671 170.163C743.771 170.11 743.861 170.084 743.943 170.084C744.148 170.084 744.315 170.239 744.444 170.55C744.497 170.673 744.523 170.784 744.523 170.884C744.523 171.118 744.395 171.3 744.137 171.429C743.686 171.657 743.152 171.842 742.537 171.982C741.922 172.123 741.304 172.193 740.683 172.193C739.798 172.193 739.042 172.023 738.415 171.684C737.788 171.344 737.311 170.854 736.982 170.216C736.654 169.577 736.49 168.818 736.49 167.939C736.49 167.102 736.669 166.36 737.026 165.716C737.384 165.071 737.879 164.573 738.512 164.222C739.145 163.864 739.868 163.686 740.683 163.686ZM740.683 164.96C739.962 164.96 739.364 165.145 738.89 165.514C738.421 165.877 738.113 166.384 737.967 167.034H743.337C743.214 166.36 742.93 165.848 742.484 165.496C742.045 165.139 741.444 164.96 740.683 164.96ZM755.536 163.879C755.735 163.879 755.876 163.926 755.958 164.02C756.046 164.107 756.09 164.26 756.09 164.477C756.09 164.693 756.046 164.849 755.958 164.942C755.876 165.03 755.735 165.074 755.536 165.074H754.965L752.354 167.825L755.176 170.805H755.624C755.823 170.805 755.964 170.852 756.046 170.945C756.134 171.033 756.178 171.186 756.178 171.402C756.178 171.619 756.134 171.774 756.046 171.868C755.964 171.956 755.823 172 755.624 172H752.601C752.401 172 752.258 171.956 752.17 171.868C752.088 171.774 752.047 171.619 752.047 171.402C752.047 171.186 752.088 171.033 752.17 170.945C752.258 170.852 752.401 170.805 752.601 170.805H753.444L751.335 168.537L749.234 170.805H749.929C750.128 170.805 750.269 170.852 750.351 170.945C750.438 171.033 750.482 171.186 750.482 171.402C750.482 171.619 750.438 171.774 750.351 171.868C750.269 171.956 750.128 172 749.929 172H747.169C746.97 172 746.826 171.956 746.738 171.868C746.656 171.774 746.615 171.619 746.615 171.402C746.615 171.186 746.656 171.033 746.738 170.945C746.826 170.852 746.97 170.805 747.169 170.805H747.608L750.465 167.808L747.881 165.074H747.257C747.058 165.074 746.914 165.03 746.826 164.942C746.744 164.849 746.703 164.693 746.703 164.477C746.703 164.26 746.744 164.107 746.826 164.02C746.914 163.926 747.058 163.879 747.257 163.879H750.28C750.479 163.879 750.62 163.926 750.702 164.02C750.79 164.107 750.834 164.26 750.834 164.477C750.834 164.693 750.79 164.849 750.702 164.942C750.62 165.03 750.479 165.074 750.28 165.074H749.612L751.476 167.096L753.348 165.074H752.864C752.665 165.074 752.521 165.03 752.434 164.942C752.352 164.849 752.311 164.693 752.311 164.477C752.311 164.26 752.352 164.107 752.434 164.02C752.521 163.926 752.665 163.879 752.864 163.879H755.536ZM760.818 161.374C761.059 161.374 761.229 161.418 761.328 161.506C761.428 161.594 761.478 161.74 761.478 161.945V164.582H765.09C765.289 164.582 765.43 164.629 765.512 164.723C765.6 164.811 765.644 164.963 765.644 165.18C765.644 165.396 765.6 165.552 765.512 165.646C765.43 165.733 765.289 165.777 765.09 165.777H761.478V168.977C761.478 169.645 761.592 170.134 761.82 170.444C762.055 170.755 762.459 170.91 763.033 170.91C763.426 170.91 763.839 170.831 764.272 170.673C764.706 170.515 765.125 170.304 765.529 170.04C765.611 169.981 765.702 169.952 765.802 169.952C766.001 169.952 766.171 170.087 766.312 170.356C766.388 170.509 766.426 170.641 766.426 170.752C766.426 170.939 766.329 171.092 766.136 171.209C765.679 171.496 765.169 171.733 764.606 171.921C764.044 172.103 763.52 172.193 763.033 172.193C762.037 172.193 761.308 171.936 760.845 171.42C760.388 170.898 760.159 170.122 760.159 169.091V165.777H758.375C758.176 165.777 758.032 165.733 757.944 165.646C757.862 165.552 757.821 165.396 757.821 165.18C757.821 164.963 757.862 164.811 757.944 164.723C758.032 164.629 758.176 164.582 758.375 164.582H760.159V161.945C760.159 161.74 760.209 161.594 760.309 161.506C760.408 161.418 760.578 161.374 760.818 161.374Z" fill="black"/>
<rect x="462" y="66" width="148" height="148" fill="white" stroke="black" stroke-width="2"/>
<path d="M524.038 41.5674C524.237 41.5674 524.378 41.6143 524.46 41.708C524.548 41.7959 524.592 41.9482 524.592 42.165C524.592 42.3818 524.548 42.5371 524.46 42.6309C524.378 42.7188 524.237 42.7627 524.038 42.7627H523.537V51.6748C523.537 51.833 523.481 51.959 523.37 52.0527C523.265 52.1465 523.101 52.1934 522.878 52.1934C522.567 52.1934 522.321 52.0322 522.14 51.71L517.578 43.5625H517.543V50.8047H518.782C518.981 50.8047 519.122 50.8516 519.204 50.9453C519.292 51.0332 519.336 51.1855 519.336 51.4023C519.336 51.6191 519.292 51.7744 519.204 51.8682C519.122 51.9561 518.981 52 518.782 52H515.671C515.472 52 515.328 51.9561 515.24 51.8682C515.158 51.7744 515.117 51.6191 515.117 51.4023C515.117 51.1855 515.158 51.0332 515.24 50.9453C515.328 50.8516 515.472 50.8047 515.671 50.8047H516.26V42.7627H515.583C515.384 42.7627 515.24 42.7188 515.152 42.6309C515.07 42.5371 515.029 42.3818 515.029 42.165C515.029 41.9482 515.07 41.7959 515.152 41.708C515.24 41.6143 515.384 41.5674 515.583 41.5674H517.552C517.681 41.5674 517.783 41.5879 517.859 41.6289C517.941 41.6699 518.006 41.7314 518.053 41.8135L522.219 49.2666H522.254V42.7627H521.19C520.991 42.7627 520.848 42.7188 520.76 42.6309C520.678 42.5371 520.637 42.3818 520.637 42.165C520.637 41.9482 520.678 41.7959 520.76 41.708C520.848 41.6143 520.991 41.5674 521.19 41.5674H524.038ZM530.604 43.6855C531.406 43.6855 532.13 43.8672 532.774 44.2305C533.419 44.5938 533.923 45.1006 534.286 45.751C534.655 46.3955 534.84 47.125 534.84 47.9395C534.84 48.7539 534.655 49.4863 534.286 50.1367C533.923 50.7812 533.419 51.2852 532.774 51.6484C532.13 52.0117 531.406 52.1934 530.604 52.1934C529.801 52.1934 529.077 52.0117 528.433 51.6484C527.788 51.2852 527.281 50.7812 526.912 50.1367C526.549 49.4863 526.367 48.7539 526.367 47.9395C526.367 47.125 526.549 46.3955 526.912 45.751C527.281 45.1006 527.788 44.5938 528.433 44.2305C529.077 43.8672 529.801 43.6855 530.604 43.6855ZM530.604 44.9863C530.035 44.9863 529.534 45.1123 529.101 45.3643C528.673 45.6104 528.342 45.959 528.107 46.4102C527.873 46.8555 527.756 47.3652 527.756 47.9395C527.756 48.5137 527.873 49.0264 528.107 49.4775C528.342 49.9229 528.673 50.2715 529.101 50.5234C529.534 50.7695 530.035 50.8926 530.604 50.8926C531.172 50.8926 531.67 50.7695 532.098 50.5234C532.531 50.2715 532.865 49.9229 533.1 49.4775C533.334 49.0264 533.451 48.5137 533.451 47.9395C533.451 47.3652 533.334 46.8555 533.1 46.4102C532.865 45.959 532.531 45.6104 532.098 45.3643C531.67 45.1123 531.172 44.9863 530.604 44.9863ZM544.464 40.4688C544.663 40.4688 544.804 40.5156 544.886 40.6094C544.974 40.6973 545.018 40.8496 545.018 41.0664V50.8047H545.738C545.938 50.8047 546.078 50.8516 546.16 50.9453C546.248 51.0332 546.292 51.1855 546.292 51.4023C546.292 51.6191 546.248 51.7744 546.16 51.8682C546.078 51.9561 545.938 52 545.738 52H544.341C544.142 52 543.998 51.9561 543.91 51.8682C543.828 51.7744 543.787 51.6191 543.787 51.4023V50.6992C543.418 51.1797 542.99 51.5488 542.504 51.8066C542.018 52.0645 541.487 52.1934 540.913 52.1934C540.187 52.1934 539.536 52.0234 538.962 51.6836C538.388 51.3379 537.937 50.8457 537.608 50.207C537.28 49.5625 537.116 48.8066 537.116 47.9395C537.116 47.0723 537.28 46.3193 537.608 45.6807C537.937 45.0361 538.388 44.5439 538.962 44.2041C539.536 43.8584 540.187 43.6855 540.913 43.6855C542.015 43.6855 542.943 44.1689 543.699 45.1357V41.6641H542.275C542.076 41.6641 541.933 41.6201 541.845 41.5322C541.763 41.4385 541.722 41.2832 541.722 41.0664C541.722 40.8496 541.763 40.6973 541.845 40.6094C541.933 40.5156 542.076 40.4688 542.275 40.4688H544.464ZM541.001 44.9863C540.479 44.9863 540.031 45.1123 539.656 45.3643C539.281 45.6104 538.994 45.9561 538.795 46.4014C538.602 46.8467 538.505 47.3594 538.505 47.9395C538.505 48.5195 538.602 49.0322 538.795 49.4775C538.994 49.9229 539.281 50.2715 539.656 50.5234C540.031 50.7695 540.479 50.8926 541.001 50.8926C541.522 50.8926 541.985 50.7754 542.39 50.541C542.8 50.3066 543.119 49.9668 543.348 49.5215C543.582 49.0762 543.699 48.5488 543.699 47.9395C543.699 47.3301 543.582 46.8027 543.348 46.3574C543.119 45.9121 542.8 45.5723 542.39 45.3379C541.985 45.1035 541.522 44.9863 541.001 44.9863ZM552.269 43.6855C553.118 43.6855 553.842 43.8584 554.439 44.2041C555.043 44.5439 555.506 45.0186 555.828 45.6279C556.15 46.2314 556.335 46.9287 556.382 47.7197C556.382 47.9189 556.338 48.0596 556.25 48.1416C556.168 48.2236 556.027 48.2646 555.828 48.2646H549.465C549.506 49.1377 549.764 49.7998 550.238 50.251C550.719 50.6963 551.396 50.9189 552.269 50.9189C552.808 50.9189 553.341 50.8516 553.868 50.7168C554.396 50.5762 554.858 50.3916 555.257 50.1631C555.356 50.1104 555.447 50.084 555.529 50.084C555.734 50.084 555.901 50.2393 556.03 50.5498C556.083 50.6729 556.109 50.7842 556.109 50.8838C556.109 51.1182 555.98 51.2998 555.723 51.4287C555.271 51.6572 554.738 51.8418 554.123 51.9824C553.508 52.123 552.89 52.1934 552.269 52.1934C551.384 52.1934 550.628 52.0234 550.001 51.6836C549.374 51.3438 548.896 50.8545 548.568 50.2158C548.24 49.5771 548.076 48.8184 548.076 47.9395C548.076 47.1016 548.255 46.3604 548.612 45.7158C548.97 45.0713 549.465 44.5732 550.098 44.2217C550.73 43.8643 551.454 43.6855 552.269 43.6855ZM552.269 44.96C551.548 44.96 550.95 45.1445 550.476 45.5137C550.007 45.877 549.699 46.3838 549.553 47.0342H554.923C554.8 46.3604 554.516 45.8477 554.07 45.4961C553.631 45.1387 553.03 44.96 552.269 44.96Z" fill="black"/>
<path d="M506.688 100.469C506.888 100.469 507.028 100.516 507.11 100.609C507.198 100.697 507.242 100.85 507.242 101.066V110.805H507.963C508.162 110.805 508.303 110.852 508.385 110.945C508.473 111.033 508.517 111.186 508.517 111.402C508.517 111.619 508.473 111.774 508.385 111.868C508.303 111.956 508.162 112 507.963 112H506.565C506.366 112 506.223 111.956 506.135 111.868C506.053 111.774 506.012 111.619 506.012 111.402V110.699C505.643 111.18 505.215 111.549 504.729 111.807C504.242 112.064 503.712 112.193 503.138 112.193C502.411 112.193 501.761 112.023 501.187 111.684C500.612 111.338 500.161 110.846 499.833 110.207C499.505 109.562 499.341 108.807 499.341 107.939C499.341 107.072 499.505 106.319 499.833 105.681C500.161 105.036 500.612 104.544 501.187 104.204C501.761 103.858 502.411 103.686 503.138 103.686C504.239 103.686 505.168 104.169 505.924 105.136V101.664H504.5C504.301 101.664 504.157 101.62 504.069 101.532C503.987 101.438 503.946 101.283 503.946 101.066C503.946 100.85 503.987 100.697 504.069 100.609C504.157 100.516 504.301 100.469 504.5 100.469H506.688ZM503.226 104.986C502.704 104.986 502.256 105.112 501.881 105.364C501.506 105.61 501.219 105.956 501.02 106.401C500.826 106.847 500.729 107.359 500.729 107.939C500.729 108.52 500.826 109.032 501.02 109.478C501.219 109.923 501.506 110.271 501.881 110.523C502.256 110.77 502.704 110.893 503.226 110.893C503.747 110.893 504.21 110.775 504.614 110.541C505.024 110.307 505.344 109.967 505.572 109.521C505.807 109.076 505.924 108.549 505.924 107.939C505.924 107.33 505.807 106.803 505.572 106.357C505.344 105.912 505.024 105.572 504.614 105.338C504.21 105.104 503.747 104.986 503.226 104.986ZM514.449 103.686C515.551 103.686 516.377 103.932 516.928 104.424C517.479 104.916 517.754 105.646 517.754 106.612V110.11C517.754 110.573 517.947 110.805 518.334 110.805H518.642C518.841 110.805 518.981 110.852 519.063 110.945C519.151 111.033 519.195 111.186 519.195 111.402C519.195 111.619 519.151 111.774 519.063 111.868C518.981 111.956 518.841 112 518.642 112H518.079C517.698 112 517.37 111.906 517.095 111.719C516.825 111.525 516.649 111.244 516.567 110.875C516.087 111.297 515.565 111.622 515.003 111.851C514.446 112.079 513.854 112.193 513.228 112.193C512.636 112.193 512.111 112.094 511.654 111.895C511.203 111.689 510.849 111.394 510.591 111.007C510.333 110.62 510.204 110.16 510.204 109.627C510.204 108.701 510.535 108.019 511.197 107.579C511.859 107.134 512.715 106.911 513.764 106.911C514.695 106.911 515.586 107.061 516.436 107.359V106.612C516.436 106.044 516.274 105.628 515.952 105.364C515.636 105.095 515.123 104.96 514.414 104.96C513.975 104.96 513.518 105.021 513.043 105.145C512.568 105.268 512.117 105.438 511.689 105.654C511.59 105.707 511.499 105.733 511.417 105.733C511.224 105.733 511.062 105.593 510.934 105.312C510.869 105.171 510.837 105.054 510.837 104.96C510.837 104.755 510.945 104.597 511.162 104.485C511.654 104.228 512.182 104.031 512.744 103.896C513.312 103.756 513.881 103.686 514.449 103.686ZM513.772 108.15C513.099 108.15 512.565 108.268 512.173 108.502C511.786 108.73 511.593 109.097 511.593 109.601C511.593 110.028 511.739 110.362 512.032 110.603C512.331 110.837 512.747 110.954 513.28 110.954C514.446 110.954 515.498 110.471 516.436 109.504V108.546C516.037 108.417 515.609 108.32 515.152 108.256C514.695 108.186 514.235 108.15 513.772 108.15ZM523.836 101.374C524.076 101.374 524.246 101.418 524.346 101.506C524.445 101.594 524.495 101.74 524.495 101.945V104.582H528.107C528.307 104.582 528.447 104.629 528.529 104.723C528.617 104.811 528.661 104.963 528.661 105.18C528.661 105.396 528.617 105.552 528.529 105.646C528.447 105.733 528.307 105.777 528.107 105.777H524.495V108.977C524.495 109.645 524.609 110.134 524.838 110.444C525.072 110.755 525.477 110.91 526.051 110.91C526.443 110.91 526.856 110.831 527.29 110.673C527.724 110.515 528.143 110.304 528.547 110.04C528.629 109.981 528.72 109.952 528.819 109.952C529.019 109.952 529.188 110.087 529.329 110.356C529.405 110.509 529.443 110.641 529.443 110.752C529.443 110.939 529.347 111.092 529.153 111.209C528.696 111.496 528.187 111.733 527.624 111.921C527.062 112.103 526.537 112.193 526.051 112.193C525.055 112.193 524.325 111.936 523.862 111.42C523.405 110.898 523.177 110.122 523.177 109.091V105.777H521.393C521.193 105.777 521.05 105.733 520.962 105.646C520.88 105.552 520.839 105.396 520.839 105.18C520.839 104.963 520.88 104.811 520.962 104.723C521.05 104.629 521.193 104.582 521.393 104.582H523.177V101.945C523.177 101.74 523.227 101.594 523.326 101.506C523.426 101.418 523.596 101.374 523.836 101.374ZM536.035 103.686C537.137 103.686 537.963 103.932 538.514 104.424C539.064 104.916 539.34 105.646 539.34 106.612V110.11C539.34 110.573 539.533 110.805 539.92 110.805H540.228C540.427 110.805 540.567 110.852 540.649 110.945C540.737 111.033 540.781 111.186 540.781 111.402C540.781 111.619 540.737 111.774 540.649 111.868C540.567 111.956 540.427 112 540.228 112H539.665C539.284 112 538.956 111.906 538.681 111.719C538.411 111.525 538.235 111.244 538.153 110.875C537.673 111.297 537.151 111.622 536.589 111.851C536.032 112.079 535.44 112.193 534.813 112.193C534.222 112.193 533.697 112.094 533.24 111.895C532.789 111.689 532.435 111.394 532.177 111.007C531.919 110.62 531.79 110.16 531.79 109.627C531.79 108.701 532.121 108.019 532.783 107.579C533.445 107.134 534.301 106.911 535.35 106.911C536.281 106.911 537.172 107.061 538.021 107.359V106.612C538.021 106.044 537.86 105.628 537.538 105.364C537.222 105.095 536.709 104.96 536 104.96C535.561 104.96 535.104 105.021 534.629 105.145C534.154 105.268 533.703 105.438 533.275 105.654C533.176 105.707 533.085 105.733 533.003 105.733C532.81 105.733 532.648 105.593 532.52 105.312C532.455 105.171 532.423 105.054 532.423 104.96C532.423 104.755 532.531 104.597 532.748 104.485C533.24 104.228 533.768 104.031 534.33 103.896C534.898 103.756 535.467 103.686 536.035 103.686ZM535.358 108.15C534.685 108.15 534.151 108.268 533.759 108.502C533.372 108.73 533.179 109.097 533.179 109.601C533.179 110.028 533.325 110.362 533.618 110.603C533.917 110.837 534.333 110.954 534.866 110.954C536.032 110.954 537.084 110.471 538.021 109.504V108.546C537.623 108.417 537.195 108.32 536.738 108.256C536.281 108.186 535.821 108.15 535.358 108.15ZM550.142 104.529C550.341 104.529 550.481 104.576 550.563 104.67C550.651 104.758 550.695 104.91 550.695 105.127C550.695 105.344 550.651 105.499 550.563 105.593C550.481 105.681 550.341 105.725 550.142 105.725H543.444C543.245 105.725 543.102 105.681 543.014 105.593C542.932 105.499 542.891 105.344 542.891 105.127C542.891 104.91 542.932 104.758 543.014 104.67C543.102 104.576 543.245 104.529 543.444 104.529H550.142ZM550.142 108.045C550.341 108.045 550.481 108.092 550.563 108.186C550.651 108.273 550.695 108.426 550.695 108.643C550.695 108.859 550.651 109.015 550.563 109.108C550.481 109.196 550.341 109.24 550.142 109.24H543.444C543.245 109.24 543.102 109.196 543.014 109.108C542.932 109.015 542.891 108.859 542.891 108.643C542.891 108.426 542.932 108.273 543.014 108.186C543.102 108.092 543.245 108.045 543.444 108.045H550.142ZM560.249 101.374C560.407 101.368 560.53 101.421 560.618 101.532C560.712 101.644 560.759 101.849 560.759 102.147C560.759 102.329 560.729 102.461 560.671 102.543C560.618 102.619 560.539 102.66 560.434 102.666C558.875 102.748 557.677 103.152 556.839 103.879C556.001 104.6 555.5 105.581 555.336 106.823C555.641 106.425 556.016 106.117 556.461 105.9C556.906 105.684 557.381 105.575 557.885 105.575C558.529 105.575 559.109 105.713 559.625 105.988C560.146 106.264 560.554 106.653 560.847 107.157C561.146 107.661 561.295 108.241 561.295 108.897C561.295 109.53 561.146 110.099 560.847 110.603C560.548 111.101 560.123 111.49 559.572 111.771C559.027 112.053 558.4 112.193 557.691 112.193C557.053 112.193 556.464 112.047 555.925 111.754C555.392 111.461 554.961 111.036 554.633 110.479C554.182 109.706 553.956 108.713 553.956 107.5C553.956 106.486 554.17 105.528 554.598 104.626C555.031 103.724 555.717 102.974 556.654 102.376C557.598 101.772 558.796 101.438 560.249 101.374ZM557.691 106.876C557.264 106.876 556.88 106.958 556.54 107.122C556.2 107.28 555.934 107.503 555.74 107.79C555.553 108.071 555.459 108.396 555.459 108.766C555.459 109.176 555.55 109.542 555.731 109.864C555.919 110.187 556.18 110.438 556.514 110.62C556.854 110.802 557.246 110.893 557.691 110.893C558.137 110.893 558.526 110.811 558.86 110.646C559.194 110.482 559.452 110.251 559.634 109.952C559.815 109.647 559.906 109.296 559.906 108.897C559.906 108.493 559.815 108.139 559.634 107.834C559.458 107.529 559.203 107.295 558.869 107.131C558.541 106.961 558.148 106.876 557.691 106.876ZM569.583 101.374C570.093 101.374 570.348 101.603 570.348 102.06V107.641H571.771C571.971 107.641 572.111 107.688 572.193 107.781C572.281 107.869 572.325 108.021 572.325 108.238C572.325 108.455 572.281 108.61 572.193 108.704C572.111 108.792 571.971 108.836 571.771 108.836H570.348V110.805H571.508C571.707 110.805 571.848 110.852 571.93 110.945C572.018 111.033 572.062 111.186 572.062 111.402C572.062 111.619 572.018 111.774 571.93 111.868C571.848 111.956 571.707 112 571.508 112H567.729C567.529 112 567.386 111.956 567.298 111.868C567.216 111.774 567.175 111.619 567.175 111.402C567.175 111.186 567.216 111.033 567.298 110.945C567.386 110.852 567.529 110.805 567.729 110.805H569.029V108.836H564.828C564.629 108.836 564.485 108.792 564.397 108.704C564.315 108.61 564.274 108.455 564.274 108.238C564.274 108.045 564.304 107.907 564.362 107.825L568.616 101.91C568.745 101.729 568.883 101.594 569.029 101.506C569.176 101.418 569.36 101.374 569.583 101.374ZM566.023 107.641H569.029L569.1 103.281L566.023 107.641Z" fill="black"/>
<path d="M520.804 163.686C521.337 163.686 521.8 163.803 522.192 164.037C522.585 164.266 522.887 164.597 523.098 165.03C523.309 165.464 523.414 165.971 523.414 166.551V170.805H524.135C524.334 170.805 524.475 170.852 524.557 170.945C524.645 171.033 524.688 171.186 524.688 171.402C524.688 171.619 524.645 171.774 524.557 171.868C524.475 171.956 524.334 172 524.135 172H521.287C521.088 172 520.944 171.956 520.856 171.868C520.774 171.774 520.733 171.619 520.733 171.402C520.733 171.186 520.774 171.033 520.856 170.945C520.944 170.852 521.088 170.805 521.287 170.805H522.096V166.683C522.096 166.161 521.976 165.748 521.735 165.443C521.495 165.139 521.141 164.986 520.672 164.986C520.174 164.986 519.708 165.13 519.274 165.417C518.847 165.704 518.504 166.1 518.246 166.604C517.988 167.107 517.859 167.67 517.859 168.291V170.805H518.668C518.867 170.805 519.008 170.852 519.09 170.945C519.178 171.033 519.222 171.186 519.222 171.402C519.222 171.619 519.178 171.774 519.09 171.868C519.008 171.956 518.867 172 518.668 172H515.82C515.621 172 515.478 171.956 515.39 171.868C515.308 171.774 515.267 171.619 515.267 171.402C515.267 171.186 515.308 171.033 515.39 170.945C515.478 170.852 515.621 170.805 515.82 170.805H516.541V165.074H515.645C515.445 165.074 515.302 165.03 515.214 164.942C515.132 164.849 515.091 164.693 515.091 164.477C515.091 164.26 515.132 164.107 515.214 164.02C515.302 163.926 515.445 163.879 515.645 163.879H517.218C517.417 163.879 517.558 163.926 517.64 164.02C517.728 164.107 517.771 164.26 517.771 164.477V165.531C518.158 164.934 518.609 164.477 519.125 164.16C519.646 163.844 520.206 163.686 520.804 163.686ZM530.683 163.686C531.532 163.686 532.256 163.858 532.854 164.204C533.457 164.544 533.92 165.019 534.242 165.628C534.564 166.231 534.749 166.929 534.796 167.72C534.796 167.919 534.752 168.06 534.664 168.142C534.582 168.224 534.441 168.265 534.242 168.265H527.879C527.92 169.138 528.178 169.8 528.652 170.251C529.133 170.696 529.81 170.919 530.683 170.919C531.222 170.919 531.755 170.852 532.282 170.717C532.81 170.576 533.272 170.392 533.671 170.163C533.771 170.11 533.861 170.084 533.943 170.084C534.148 170.084 534.315 170.239 534.444 170.55C534.497 170.673 534.523 170.784 534.523 170.884C534.523 171.118 534.395 171.3 534.137 171.429C533.686 171.657 533.152 171.842 532.537 171.982C531.922 172.123 531.304 172.193 530.683 172.193C529.798 172.193 529.042 172.023 528.415 171.684C527.788 171.344 527.311 170.854 526.982 170.216C526.654 169.577 526.49 168.818 526.49 167.939C526.49 167.102 526.669 166.36 527.026 165.716C527.384 165.071 527.879 164.573 528.512 164.222C529.145 163.864 529.868 163.686 530.683 163.686ZM530.683 164.96C529.962 164.96 529.364 165.145 528.89 165.514C528.421 165.877 528.113 166.384 527.967 167.034H533.337C533.214 166.36 532.93 165.848 532.484 165.496C532.045 165.139 531.444 164.96 530.683 164.96ZM545.536 163.879C545.735 163.879 545.876 163.926 545.958 164.02C546.046 164.107 546.09 164.26 546.09 164.477C546.09 164.693 546.046 164.849 545.958 164.942C545.876 165.03 545.735 165.074 545.536 165.074H544.965L542.354 167.825L545.176 170.805H545.624C545.823 170.805 545.964 170.852 546.046 170.945C546.134 171.033 546.178 171.186 546.178 171.402C546.178 171.619 546.134 171.774 546.046 171.868C545.964 171.956 545.823 172 545.624 172H542.601C542.401 172 542.258 171.956 542.17 171.868C542.088 171.774 542.047 171.619 542.047 171.402C542.047 171.186 542.088 171.033 542.17 170.945C542.258 170.852 542.401 170.805 542.601 170.805H543.444L541.335 168.537L539.234 170.805H539.929C540.128 170.805 540.269 170.852 540.351 170.945C540.438 171.033 540.482 171.186 540.482 171.402C540.482 171.619 540.438 171.774 540.351 171.868C540.269 171.956 540.128 172 539.929 172H537.169C536.97 172 536.826 171.956 536.738 171.868C536.656 171.774 536.615 171.619 536.615 171.402C536.615 171.186 536.656 171.033 536.738 170.945C536.826 170.852 536.97 170.805 537.169 170.805H537.608L540.465 167.808L537.881 165.074H537.257C537.058 165.074 536.914 165.03 536.826 164.942C536.744 164.849 536.703 164.693 536.703 164.477C536.703 164.26 536.744 164.107 536.826 164.02C536.914 163.926 537.058 163.879 537.257 163.879H540.28C540.479 163.879 540.62 163.926 540.702 164.02C540.79 164.107 540.834 164.26 540.834 164.477C540.834 164.693 540.79 164.849 540.702 164.942C540.62 165.03 540.479 165.074 540.28 165.074H539.612L541.476 167.096L543.348 165.074H542.864C542.665 165.074 542.521 165.03 542.434 164.942C542.352 164.849 542.311 164.693 542.311 164.477C542.311 164.26 542.352 164.107 542.434 164.02C542.521 163.926 542.665 163.879 542.864 163.879H545.536ZM550.818 161.374C551.059 161.374 551.229 161.418 551.328 161.506C551.428 161.594 551.478 161.74 551.478 161.945V164.582H555.09C555.289 164.582 555.43 164.629 555.512 164.723C555.6 164.811 555.644 164.963 555.644 165.18C555.644 165.396 555.6 165.552 555.512 165.646C555.43 165.733 555.289 165.777 555.09 165.777H551.478V168.977C551.478 169.645 551.592 170.134 551.82 170.444C552.055 170.755 552.459 170.91 553.033 170.91C553.426 170.91 553.839 170.831 554.272 170.673C554.706 170.515 555.125 170.304 555.529 170.04C555.611 169.981 555.702 169.952 555.802 169.952C556.001 169.952 556.171 170.087 556.312 170.356C556.388 170.509 556.426 170.641 556.426 170.752C556.426 170.939 556.329 171.092 556.136 171.209C555.679 171.496 555.169 171.733 554.606 171.921C554.044 172.103 553.52 172.193 553.033 172.193C552.037 172.193 551.308 171.936 550.845 171.42C550.388 170.898 550.159 170.122 550.159 169.091V165.777H548.375C548.176 165.777 548.032 165.733 547.944 165.646C547.862 165.552 547.821 165.396 547.821 165.18C547.821 164.963 547.862 164.811 547.944 164.723C548.032 164.629 548.176 164.582 548.375 164.582H550.159V161.945C550.159 161.74 550.209 161.594 550.309 161.506C550.408 161.418 550.578 161.374 550.818 161.374Z" fill="black"/>
<rect x="252" y="66" width="148" height="148" fill="white" stroke="black" stroke-width="2"/>
<path d="M314.038 41.5674C314.237 41.5674 314.378 41.6143 314.46 41.708C314.548 41.7959 314.592 41.9482 314.592 42.165C314.592 42.3818 314.548 42.5371 314.46 42.6309C314.378 42.7188 314.237 42.7627 314.038 42.7627H313.537V51.6748C313.537 51.833 313.481 51.959 313.37 52.0527C313.265 52.1465 313.101 52.1934 312.878 52.1934C312.567 52.1934 312.321 52.0322 312.14 51.71L307.578 43.5625H307.543V50.8047H308.782C308.981 50.8047 309.122 50.8516 309.204 50.9453C309.292 51.0332 309.336 51.1855 309.336 51.4023C309.336 51.6191 309.292 51.7744 309.204 51.8682C309.122 51.9561 308.981 52 308.782 52H305.671C305.472 52 305.328 51.9561 305.24 51.8682C305.158 51.7744 305.117 51.6191 305.117 51.4023C305.117 51.1855 305.158 51.0332 305.24 50.9453C305.328 50.8516 305.472 50.8047 305.671 50.8047H306.26V42.7627H305.583C305.384 42.7627 305.24 42.7188 305.152 42.6309C305.07 42.5371 305.029 42.3818 305.029 42.165C305.029 41.9482 305.07 41.7959 305.152 41.708C305.24 41.6143 305.384 41.5674 305.583 41.5674H307.552C307.681 41.5674 307.783 41.5879 307.859 41.6289C307.941 41.6699 308.006 41.7314 308.053 41.8135L312.219 49.2666H312.254V42.7627H311.19C310.991 42.7627 310.848 42.7188 310.76 42.6309C310.678 42.5371 310.637 42.3818 310.637 42.165C310.637 41.9482 310.678 41.7959 310.76 41.708C310.848 41.6143 310.991 41.5674 311.19 41.5674H314.038ZM320.604 43.6855C321.406 43.6855 322.13 43.8672 322.774 44.2305C323.419 44.5938 323.923 45.1006 324.286 45.751C324.655 46.3955 324.84 47.125 324.84 47.9395C324.84 48.7539 324.655 49.4863 324.286 50.1367C323.923 50.7812 323.419 51.2852 322.774 51.6484C322.13 52.0117 321.406 52.1934 320.604 52.1934C319.801 52.1934 319.077 52.0117 318.433 51.6484C317.788 51.2852 317.281 50.7812 316.912 50.1367C316.549 49.4863 316.367 48.7539 316.367 47.9395C316.367 47.125 316.549 46.3955 316.912 45.751C317.281 45.1006 317.788 44.5938 318.433 44.2305C319.077 43.8672 319.801 43.6855 320.604 43.6855ZM320.604 44.9863C320.035 44.9863 319.534 45.1123 319.101 45.3643C318.673 45.6104 318.342 45.959 318.107 46.4102C317.873 46.8555 317.756 47.3652 317.756 47.9395C317.756 48.5137 317.873 49.0264 318.107 49.4775C318.342 49.9229 318.673 50.2715 319.101 50.5234C319.534 50.7695 320.035 50.8926 320.604 50.8926C321.172 50.8926 321.67 50.7695 322.098 50.5234C322.531 50.2715 322.865 49.9229 323.1 49.4775C323.334 49.0264 323.451 48.5137 323.451 47.9395C323.451 47.3652 323.334 46.8555 323.1 46.4102C322.865 45.959 322.531 45.6104 322.098 45.3643C321.67 45.1123 321.172 44.9863 320.604 44.9863ZM334.464 40.4688C334.663 40.4688 334.804 40.5156 334.886 40.6094C334.974 40.6973 335.018 40.8496 335.018 41.0664V50.8047H335.738C335.938 50.8047 336.078 50.8516 336.16 50.9453C336.248 51.0332 336.292 51.1855 336.292 51.4023C336.292 51.6191 336.248 51.7744 336.16 51.8682C336.078 51.9561 335.938 52 335.738 52H334.341C334.142 52 333.998 51.9561 333.91 51.8682C333.828 51.7744 333.787 51.6191 333.787 51.4023V50.6992C333.418 51.1797 332.99 51.5488 332.504 51.8066C332.018 52.0645 331.487 52.1934 330.913 52.1934C330.187 52.1934 329.536 52.0234 328.962 51.6836C328.388 51.3379 327.937 50.8457 327.608 50.207C327.28 49.5625 327.116 48.8066 327.116 47.9395C327.116 47.0723 327.28 46.3193 327.608 45.6807C327.937 45.0361 328.388 44.5439 328.962 44.2041C329.536 43.8584 330.187 43.6855 330.913 43.6855C332.015 43.6855 332.943 44.1689 333.699 45.1357V41.6641H332.275C332.076 41.6641 331.933 41.6201 331.845 41.5322C331.763 41.4385 331.722 41.2832 331.722 41.0664C331.722 40.8496 331.763 40.6973 331.845 40.6094C331.933 40.5156 332.076 40.4688 332.275 40.4688H334.464ZM331.001 44.9863C330.479 44.9863 330.031 45.1123 329.656 45.3643C329.281 45.6104 328.994 45.9561 328.795 46.4014C328.602 46.8467 328.505 47.3594 328.505 47.9395C328.505 48.5195 328.602 49.0322 328.795 49.4775C328.994 49.9229 329.281 50.2715 329.656 50.5234C330.031 50.7695 330.479 50.8926 331.001 50.8926C331.522 50.8926 331.985 50.7754 332.39 50.541C332.8 50.3066 333.119 49.9668 333.348 49.5215C333.582 49.0762 333.699 48.5488 333.699 47.9395C333.699 47.3301 333.582 46.8027 333.348 46.3574C333.119 45.9121 332.8 45.5723 332.39 45.3379C331.985 45.1035 331.522 44.9863 331.001 44.9863ZM342.269 43.6855C343.118 43.6855 343.842 43.8584 344.439 44.2041C345.043 44.5439 345.506 45.0186 345.828 45.6279C346.15 46.2314 346.335 46.9287 346.382 47.7197C346.382 47.9189 346.338 48.0596 346.25 48.1416C346.168 48.2236 346.027 48.2646 345.828 48.2646H339.465C339.506 49.1377 339.764 49.7998 340.238 50.251C340.719 50.6963 341.396 50.9189 342.269 50.9189C342.808 50.9189 343.341 50.8516 343.868 50.7168C344.396 50.5762 344.858 50.3916 345.257 50.1631C345.356 50.1104 345.447 50.084 345.529 50.084C345.734 50.084 345.901 50.2393 346.03 50.5498C346.083 50.6729 346.109 50.7842 346.109 50.8838C346.109 51.1182 345.98 51.2998 345.723 51.4287C345.271 51.6572 344.738 51.8418 344.123 51.9824C343.508 52.123 342.89 52.1934 342.269 52.1934C341.384 52.1934 340.628 52.0234 340.001 51.6836C339.374 51.3438 338.896 50.8545 338.568 50.2158C338.24 49.5771 338.076 48.8184 338.076 47.9395C338.076 47.1016 338.255 46.3604 338.612 45.7158C338.97 45.0713 339.465 44.5732 340.098 44.2217C340.73 43.8643 341.454 43.6855 342.269 43.6855ZM342.269 44.96C341.548 44.96 340.95 45.1445 340.476 45.5137C340.007 45.877 339.699 46.3838 339.553 47.0342H344.923C344.8 46.3604 344.516 45.8477 344.07 45.4961C343.631 45.1387 343.03 44.96 342.269 44.96Z" fill="black"/>
<path d="M302.585 100.469C302.784 100.469 302.925 100.516 303.007 100.609C303.095 100.697 303.139 100.85 303.139 101.066V110.805H303.859C304.059 110.805 304.199 110.852 304.281 110.945C304.369 111.033 304.413 111.186 304.413 111.402C304.413 111.619 304.369 111.774 304.281 111.868C304.199 111.956 304.059 112 303.859 112H302.462C302.263 112 302.119 111.956 302.031 111.868C301.949 111.774 301.908 111.619 301.908 111.402V110.699C301.539 111.18 301.111 111.549 300.625 111.807C300.139 112.064 299.608 112.193 299.034 112.193C298.308 112.193 297.657 112.023 297.083 111.684C296.509 111.338 296.058 110.846 295.729 110.207C295.401 109.562 295.237 108.807 295.237 107.939C295.237 107.072 295.401 106.319 295.729 105.681C296.058 105.036 296.509 104.544 297.083 104.204C297.657 103.858 298.308 103.686 299.034 103.686C300.136 103.686 301.064 104.169 301.82 105.136V101.664H300.396C300.197 101.664 300.054 101.62 299.966 101.532C299.884 101.438 299.843 101.283 299.843 101.066C299.843 100.85 299.884 100.697 299.966 100.609C300.054 100.516 300.197 100.469 300.396 100.469H302.585ZM299.122 104.986C298.601 104.986 298.152 105.112 297.777 105.364C297.402 105.61 297.115 105.956 296.916 106.401C296.723 106.847 296.626 107.359 296.626 107.939C296.626 108.52 296.723 109.032 296.916 109.478C297.115 109.923 297.402 110.271 297.777 110.523C298.152 110.77 298.601 110.893 299.122 110.893C299.644 110.893 300.106 110.775 300.511 110.541C300.921 110.307 301.24 109.967 301.469 109.521C301.703 109.076 301.82 108.549 301.82 107.939C301.82 107.33 301.703 106.803 301.469 106.357C301.24 105.912 300.921 105.572 300.511 105.338C300.106 105.104 299.644 104.986 299.122 104.986ZM310.346 103.686C311.447 103.686 312.273 103.932 312.824 104.424C313.375 104.916 313.65 105.646 313.65 106.612V110.11C313.65 110.573 313.844 110.805 314.23 110.805H314.538C314.737 110.805 314.878 110.852 314.96 110.945C315.048 111.033 315.092 111.186 315.092 111.402C315.092 111.619 315.048 111.774 314.96 111.868C314.878 111.956 314.737 112 314.538 112H313.976C313.595 112 313.267 111.906 312.991 111.719C312.722 111.525 312.546 111.244 312.464 110.875C311.983 111.297 311.462 111.622 310.899 111.851C310.343 112.079 309.751 112.193 309.124 112.193C308.532 112.193 308.008 112.094 307.551 111.895C307.1 111.689 306.745 111.394 306.487 111.007C306.229 110.62 306.101 110.16 306.101 109.627C306.101 108.701 306.432 108.019 307.094 107.579C307.756 107.134 308.611 106.911 309.66 106.911C310.592 106.911 311.482 107.061 312.332 107.359V106.612C312.332 106.044 312.171 105.628 311.849 105.364C311.532 105.095 311.02 104.96 310.311 104.96C309.871 104.96 309.414 105.021 308.939 105.145C308.465 105.268 308.014 105.438 307.586 105.654C307.486 105.707 307.396 105.733 307.313 105.733C307.12 105.733 306.959 105.593 306.83 105.312C306.766 105.171 306.733 105.054 306.733 104.96C306.733 104.755 306.842 104.597 307.059 104.485C307.551 104.228 308.078 104.031 308.641 103.896C309.209 103.756 309.777 103.686 310.346 103.686ZM309.669 108.15C308.995 108.15 308.462 108.268 308.069 108.502C307.683 108.73 307.489 109.097 307.489 109.601C307.489 110.028 307.636 110.362 307.929 110.603C308.228 110.837 308.644 110.954 309.177 110.954C310.343 110.954 311.395 110.471 312.332 109.504V108.546C311.934 108.417 311.506 108.32 311.049 108.256C310.592 108.186 310.132 108.15 309.669 108.15ZM319.732 101.374C319.973 101.374 320.143 101.418 320.242 101.506C320.342 101.594 320.392 101.74 320.392 101.945V104.582H324.004C324.203 104.582 324.344 104.629 324.426 104.723C324.514 104.811 324.558 104.963 324.558 105.18C324.558 105.396 324.514 105.552 324.426 105.646C324.344 105.733 324.203 105.777 324.004 105.777H320.392V108.977C320.392 109.645 320.506 110.134 320.734 110.444C320.969 110.755 321.373 110.91 321.947 110.91C322.34 110.91 322.753 110.831 323.187 110.673C323.62 110.515 324.039 110.304 324.443 110.04C324.525 109.981 324.616 109.952 324.716 109.952C324.915 109.952 325.085 110.087 325.226 110.356C325.302 110.509 325.34 110.641 325.34 110.752C325.34 110.939 325.243 111.092 325.05 111.209C324.593 111.496 324.083 111.733 323.521 111.921C322.958 112.103 322.434 112.193 321.947 112.193C320.951 112.193 320.222 111.936 319.759 111.42C319.302 110.898 319.073 110.122 319.073 109.091V105.777H317.289C317.09 105.777 316.946 105.733 316.858 105.646C316.776 105.552 316.735 105.396 316.735 105.18C316.735 104.963 316.776 104.811 316.858 104.723C316.946 104.629 317.09 104.582 317.289 104.582H319.073V101.945C319.073 101.74 319.123 101.594 319.223 101.506C319.322 101.418 319.492 101.374 319.732 101.374ZM331.932 103.686C333.033 103.686 333.859 103.932 334.41 104.424C334.961 104.916 335.236 105.646 335.236 106.612V110.11C335.236 110.573 335.43 110.805 335.816 110.805H336.124C336.323 110.805 336.464 110.852 336.546 110.945C336.634 111.033 336.678 111.186 336.678 111.402C336.678 111.619 336.634 111.774 336.546 111.868C336.464 111.956 336.323 112 336.124 112H335.562C335.181 112 334.853 111.906 334.577 111.719C334.308 111.525 334.132 111.244 334.05 110.875C333.569 111.297 333.048 111.622 332.485 111.851C331.929 112.079 331.337 112.193 330.71 112.193C330.118 112.193 329.594 112.094 329.137 111.895C328.686 111.689 328.331 111.394 328.073 111.007C327.815 110.62 327.687 110.16 327.687 109.627C327.687 108.701 328.018 108.019 328.68 107.579C329.342 107.134 330.197 106.911 331.246 106.911C332.178 106.911 333.068 107.061 333.918 107.359V106.612C333.918 106.044 333.757 105.628 333.435 105.364C333.118 105.095 332.605 104.96 331.896 104.96C331.457 104.96 331 105.021 330.525 105.145C330.051 105.268 329.6 105.438 329.172 105.654C329.072 105.707 328.981 105.733 328.899 105.733C328.706 105.733 328.545 105.593 328.416 105.312C328.352 105.171 328.319 105.054 328.319 104.96C328.319 104.755 328.428 104.597 328.645 104.485C329.137 104.228 329.664 104.031 330.227 103.896C330.795 103.756 331.363 103.686 331.932 103.686ZM331.255 108.15C330.581 108.15 330.048 108.268 329.655 108.502C329.269 108.73 329.075 109.097 329.075 109.601C329.075 110.028 329.222 110.362 329.515 110.603C329.813 110.837 330.229 110.954 330.763 110.954C331.929 110.954 332.98 110.471 333.918 109.504V108.546C333.52 108.417 333.092 108.32 332.635 108.256C332.178 108.186 331.718 108.15 331.255 108.15ZM346.038 104.529C346.237 104.529 346.378 104.576 346.46 104.67C346.548 104.758 346.592 104.91 346.592 105.127C346.592 105.344 346.548 105.499 346.46 105.593C346.378 105.681 346.237 105.725 346.038 105.725H339.341C339.142 105.725 338.998 105.681 338.91 105.593C338.828 105.499 338.787 105.344 338.787 105.127C338.787 104.91 338.828 104.758 338.91 104.67C338.998 104.576 339.142 104.529 339.341 104.529H346.038ZM346.038 108.045C346.237 108.045 346.378 108.092 346.46 108.186C346.548 108.273 346.592 108.426 346.592 108.643C346.592 108.859 346.548 109.015 346.46 109.108C346.378 109.196 346.237 109.24 346.038 109.24H339.341C339.142 109.24 338.998 109.196 338.91 109.108C338.828 109.015 338.787 108.859 338.787 108.643C338.787 108.426 338.828 108.273 338.91 108.186C338.998 108.092 339.142 108.045 339.341 108.045H346.038ZM353.184 101.374C353.863 101.374 354.458 101.497 354.968 101.743C355.483 101.983 355.882 102.335 356.163 102.798C356.444 103.261 356.585 103.812 356.585 104.45C356.585 105.048 356.436 105.599 356.137 106.103C355.844 106.601 355.384 107.169 354.757 107.808L351.804 110.805H355.618V109.697C355.618 109.492 355.668 109.346 355.768 109.258C355.867 109.17 356.037 109.126 356.277 109.126C356.518 109.126 356.688 109.17 356.787 109.258C356.887 109.346 356.937 109.492 356.937 109.697V111.402C356.937 111.619 356.893 111.774 356.805 111.868C356.723 111.956 356.582 112 356.383 112H350.283C350.084 112 349.94 111.956 349.853 111.868C349.771 111.774 349.729 111.619 349.729 111.402C349.729 111.18 349.773 111.021 349.861 110.928L353.729 107.008C354.268 106.457 354.646 106 354.862 105.637C355.085 105.268 355.196 104.872 355.196 104.45C355.196 103.905 355.021 103.475 354.669 103.158C354.323 102.836 353.831 102.675 353.192 102.675C352.548 102.675 351.941 102.839 351.373 103.167V104.134C351.373 104.339 351.323 104.485 351.224 104.573C351.124 104.661 350.954 104.705 350.714 104.705C350.474 104.705 350.304 104.661 350.204 104.573C350.104 104.485 350.055 104.339 350.055 104.134V102.842C350.055 102.613 350.122 102.452 350.257 102.358C350.685 102.048 351.147 101.808 351.646 101.638C352.144 101.462 352.656 101.374 353.184 101.374Z" fill="black"/>
<path d="M310.804 163.686C311.337 163.686 311.8 163.803 312.192 164.037C312.585 164.266 312.887 164.597 313.098 165.03C313.309 165.464 313.414 165.971 313.414 166.551V170.805H314.135C314.334 170.805 314.475 170.852 314.557 170.945C314.645 171.033 314.688 171.186 314.688 171.402C314.688 171.619 314.645 171.774 314.557 171.868C314.475 171.956 314.334 172 314.135 172H311.287C311.088 172 310.944 171.956 310.856 171.868C310.774 171.774 310.733 171.619 310.733 171.402C310.733 171.186 310.774 171.033 310.856 170.945C310.944 170.852 311.088 170.805 311.287 170.805H312.096V166.683C312.096 166.161 311.976 165.748 311.735 165.443C311.495 165.139 311.141 164.986 310.672 164.986C310.174 164.986 309.708 165.13 309.274 165.417C308.847 165.704 308.504 166.1 308.246 166.604C307.988 167.107 307.859 167.67 307.859 168.291V170.805H308.668C308.867 170.805 309.008 170.852 309.09 170.945C309.178 171.033 309.222 171.186 309.222 171.402C309.222 171.619 309.178 171.774 309.09 171.868C309.008 171.956 308.867 172 308.668 172H305.82C305.621 172 305.478 171.956 305.39 171.868C305.308 171.774 305.267 171.619 305.267 171.402C305.267 171.186 305.308 171.033 305.39 170.945C305.478 170.852 305.621 170.805 305.82 170.805H306.541V165.074H305.645C305.445 165.074 305.302 165.03 305.214 164.942C305.132 164.849 305.091 164.693 305.091 164.477C305.091 164.26 305.132 164.107 305.214 164.02C305.302 163.926 305.445 163.879 305.645 163.879H307.218C307.417 163.879 307.558 163.926 307.64 164.02C307.728 164.107 307.771 164.26 307.771 164.477V165.531C308.158 164.934 308.609 164.477 309.125 164.16C309.646 163.844 310.206 163.686 310.804 163.686ZM320.683 163.686C321.532 163.686 322.256 163.858 322.854 164.204C323.457 164.544 323.92 165.019 324.242 165.628C324.564 166.231 324.749 166.929 324.796 167.72C324.796 167.919 324.752 168.06 324.664 168.142C324.582 168.224 324.441 168.265 324.242 168.265H317.879C317.92 169.138 318.178 169.8 318.652 170.251C319.133 170.696 319.81 170.919 320.683 170.919C321.222 170.919 321.755 170.852 322.282 170.717C322.81 170.576 323.272 170.392 323.671 170.163C323.771 170.11 323.861 170.084 323.943 170.084C324.148 170.084 324.315 170.239 324.444 170.55C324.497 170.673 324.523 170.784 324.523 170.884C324.523 171.118 324.395 171.3 324.137 171.429C323.686 171.657 323.152 171.842 322.537 171.982C321.922 172.123 321.304 172.193 320.683 172.193C319.798 172.193 319.042 172.023 318.415 171.684C317.788 171.344 317.311 170.854 316.982 170.216C316.654 169.577 316.49 168.818 316.49 167.939C316.49 167.102 316.669 166.36 317.026 165.716C317.384 165.071 317.879 164.573 318.512 164.222C319.145 163.864 319.868 163.686 320.683 163.686ZM320.683 164.96C319.962 164.96 319.364 165.145 318.89 165.514C318.421 165.877 318.113 166.384 317.967 167.034H323.337C323.214 166.36 322.93 165.848 322.484 165.496C322.045 165.139 321.444 164.96 320.683 164.96ZM335.536 163.879C335.735 163.879 335.876 163.926 335.958 164.02C336.046 164.107 336.09 164.26 336.09 164.477C336.09 164.693 336.046 164.849 335.958 164.942C335.876 165.03 335.735 165.074 335.536 165.074H334.965L332.354 167.825L335.176 170.805H335.624C335.823 170.805 335.964 170.852 336.046 170.945C336.134 171.033 336.178 171.186 336.178 171.402C336.178 171.619 336.134 171.774 336.046 171.868C335.964 171.956 335.823 172 335.624 172H332.601C332.401 172 332.258 171.956 332.17 171.868C332.088 171.774 332.047 171.619 332.047 171.402C332.047 171.186 332.088 171.033 332.17 170.945C332.258 170.852 332.401 170.805 332.601 170.805H333.444L331.335 168.537L329.234 170.805H329.929C330.128 170.805 330.269 170.852 330.351 170.945C330.438 171.033 330.482 171.186 330.482 171.402C330.482 171.619 330.438 171.774 330.351 171.868C330.269 171.956 330.128 172 329.929 172H327.169C326.97 172 326.826 171.956 326.738 171.868C326.656 171.774 326.615 171.619 326.615 171.402C326.615 171.186 326.656 171.033 326.738 170.945C326.826 170.852 326.97 170.805 327.169 170.805H327.608L330.465 167.808L327.881 165.074H327.257C327.058 165.074 326.914 165.03 326.826 164.942C326.744 164.849 326.703 164.693 326.703 164.477C326.703 164.26 326.744 164.107 326.826 164.02C326.914 163.926 327.058 163.879 327.257 163.879H330.28C330.479 163.879 330.62 163.926 330.702 164.02C330.79 164.107 330.834 164.26 330.834 164.477C330.834 164.693 330.79 164.849 330.702 164.942C330.62 165.03 330.479 165.074 330.28 165.074H329.612L331.476 167.096L333.348 165.074H332.864C332.665 165.074 332.521 165.03 332.434 164.942C332.352 164.849 332.311 164.693 332.311 164.477C332.311 164.26 332.352 164.107 332.434 164.02C332.521 163.926 332.665 163.879 332.864 163.879H335.536ZM340.818 161.374C341.059 161.374 341.229 161.418 341.328 161.506C341.428 161.594 341.478 161.74 341.478 161.945V164.582H345.09C345.289 164.582 345.43 164.629 345.512 164.723C345.6 164.811 345.644 164.963 345.644 165.18C345.644 165.396 345.6 165.552 345.512 165.646C345.43 165.733 345.289 165.777 345.09 165.777H341.478V168.977C341.478 169.645 341.592 170.134 341.82 170.444C342.055 170.755 342.459 170.91 343.033 170.91C343.426 170.91 343.839 170.831 344.272 170.673C344.706 170.515 345.125 170.304 345.529 170.04C345.611 169.981 345.702 169.952 345.802 169.952C346.001 169.952 346.171 170.087 346.312 170.356C346.388 170.509 346.426 170.641 346.426 170.752C346.426 170.939 346.329 171.092 346.136 171.209C345.679 171.496 345.169 171.733 344.606 171.921C344.044 172.103 343.52 172.193 343.033 172.193C342.037 172.193 341.308 171.936 340.845 171.42C340.388 170.898 340.159 170.122 340.159 169.091V165.777H338.375C338.176 165.777 338.032 165.733 337.944 165.646C337.862 165.552 337.821 165.396 337.821 165.18C337.821 164.963 337.862 164.811 337.944 164.723C338.032 164.629 338.176 164.582 338.375 164.582H340.159V161.945C340.159 161.74 340.209 161.594 340.309 161.506C340.408 161.418 340.578 161.374 340.818 161.374Z" fill="black"/>
<path d="M246.707 108.707C247.098 108.317 247.098 107.683 246.707 107.293L240.343 100.929C239.953 100.538 239.319 100.538 238.929 100.929C238.538 101.319 238.538 101.953 238.929 102.343L244.586 108L238.929 113.657C238.538 114.047 238.538 114.681 238.929 115.071C239.319 115.462 239.953 115.462 240.343 115.071L246.707 108.707ZM152 109H246V107H152V109Z" fill="black"/>
<line x1="117" y1="187" x2="117" y2="262" stroke="black" stroke-width="2"/>
<line x1="116" y1="261" x2="746" y2="261" stroke="black" stroke-width="2"/>
<path d="M746.707 224.293C746.317 223.902 745.683 223.902 745.293 224.293L738.929 230.657C738.538 231.047 738.538 231.681 738.929 232.071C739.319 232.462 739.953 232.462 740.343 232.071L746 226.414L751.657 232.071C752.047 232.462 752.681 232.462 753.071 232.071C753.462 231.681 753.462 231.047 753.071 230.657L746.707 224.293ZM747 262V225H745V262H747Z" fill="black"/>
<path d="M457.707 168.707C458.098 168.317 458.098 167.683 457.707 167.293L451.343 160.929C450.953 160.538 450.319 160.538 449.929 160.929C449.538 161.319 449.538 161.953 449.929 162.343L455.586 168L449.929 173.657C449.538 174.047 449.538 174.681 449.929 175.071C450.319 175.462 450.953 175.462 451.343 175.071L457.707 168.707ZM359 169H457V167H359V169Z" fill="black"/>
<path d="M665.707 168.707C666.098 168.317 666.098 167.683 665.707 167.293L659.343 160.929C658.953 160.538 658.319 160.538 657.929 160.929C657.538 161.319 657.538 161.953 657.929 162.343L663.586 168L657.929 173.657C657.538 174.047 657.538 174.681 657.929 175.071C658.319 175.462 658.953 175.462 659.343 175.071L665.707 168.707ZM567 169H665V167H567V169Z" fill="black"/>
<path d="M875.707 168.707C876.098 168.317 876.098 167.683 875.707 167.293L869.343 160.929C868.953 160.538 868.319 160.538 867.929 160.929C867.538 161.319 867.538 161.953 867.929 162.343L873.586 168L867.929 173.657C867.538 174.047 867.538 174.681 867.929 175.071C868.319 175.462 868.953 175.462 869.343 175.071L875.707 168.707ZM777 169H875V167H777V169Z" fill="black"/>
</svg>
