<svg width="535" height="167" viewBox="0 0 535 167" fill="none" xmlns="http://www.w3.org/2000/svg">
<rect width="535" height="167" rx="83.5" fill="#D27D7D"/>
<path d="M82.312 116V47.456H90.952V108.32H120.904V116H82.312ZM176.24 90.176C176.24 98.688 174.064 105.28 169.712 109.952C165.424 114.624 159.6 116.96 152.24 116.96C147.696 116.96 143.632 115.936 140.048 113.888C136.528 111.776 133.744 108.736 131.696 104.768C129.648 100.736 128.624 95.872 128.624 90.176C128.624 81.664 130.768 75.104 135.056 70.496C139.344 65.888 145.168 63.584 152.528 63.584C157.2 63.584 161.296 64.64 164.816 66.752C168.4 68.8 171.184 71.808 173.168 75.776C175.216 79.68 176.24 84.48 176.24 90.176ZM137.36 90.176C137.36 96.256 138.544 101.088 140.912 104.672C143.344 108.192 147.184 109.952 152.432 109.952C157.616 109.952 161.424 108.192 163.856 104.672C166.288 101.088 167.504 96.256 167.504 90.176C167.504 84.096 166.288 79.328 163.856 75.872C161.424 72.416 157.584 70.688 152.336 70.688C147.088 70.688 143.28 72.416 140.912 75.872C138.544 79.328 137.36 84.096 137.36 90.176ZM207.869 63.584C211.261 63.584 214.301 64.224 216.989 65.504C219.741 66.784 222.077 68.736 223.997 71.36H224.477L225.629 64.544H232.349V116.864C232.349 124.224 230.461 129.76 226.685 133.472C222.973 137.184 217.181 139.04 209.309 139.04C201.757 139.04 195.581 137.952 190.781 135.776V128C195.837 130.688 202.173 132.032 209.789 132.032C214.205 132.032 217.661 130.72 220.157 128.096C222.717 125.536 223.997 122.016 223.997 117.536V115.52C223.997 114.752 224.029 113.664 224.093 112.256C224.157 110.784 224.221 109.76 224.285 109.184H223.901C220.445 114.368 215.133 116.96 207.965 116.96C201.309 116.96 196.093 114.624 192.317 109.952C188.605 105.28 186.749 98.752 186.749 90.368C186.749 82.176 188.605 75.68 192.317 70.88C196.093 66.016 201.277 63.584 207.869 63.584ZM209.021 70.688C204.733 70.688 201.405 72.416 199.037 75.872C196.669 79.264 195.485 84.128 195.485 90.464C195.485 96.8 196.637 101.664 198.941 105.056C201.309 108.384 204.733 110.048 209.213 110.048C214.397 110.048 218.173 108.672 220.541 105.92C222.909 103.104 224.093 98.592 224.093 92.384V90.368C224.093 83.328 222.877 78.304 220.445 75.296C218.013 72.224 214.205 70.688 209.021 70.688ZM253.011 45.248C254.291 45.248 255.411 45.696 256.371 46.592C257.395 47.424 257.907 48.768 257.907 50.624C257.907 52.416 257.395 53.76 256.371 54.656C255.411 55.552 254.291 56 253.011 56C251.603 56 250.419 55.552 249.459 54.656C248.499 53.76 248.019 52.416 248.019 50.624C248.019 48.768 248.499 47.424 249.459 46.592C250.419 45.696 251.603 45.248 253.011 45.248ZM257.139 64.544V116H248.691V64.544H257.139ZM306.945 101.792C306.945 106.784 305.089 110.56 301.377 113.12C297.665 115.68 292.673 116.96 286.401 116.96C282.817 116.96 279.713 116.672 277.089 116.096C274.529 115.52 272.257 114.72 270.273 113.696V106.016C272.321 107.04 274.785 108 277.665 108.896C280.609 109.728 283.585 110.144 286.593 110.144C290.881 110.144 293.985 109.472 295.905 108.128C297.825 106.72 298.785 104.864 298.785 102.56C298.785 101.28 298.433 100.128 297.729 99.104C297.025 98.08 295.745 97.056 293.889 96.032C292.097 95.008 289.505 93.856 286.113 92.576C282.785 91.296 279.937 90.016 277.569 88.736C275.201 87.456 273.377 85.92 272.097 84.128C270.817 82.336 270.177 80.032 270.177 77.216C270.177 72.864 271.937 69.504 275.457 67.136C279.041 64.768 283.713 63.584 289.473 63.584C292.609 63.584 295.521 63.904 298.209 64.544C300.961 65.12 303.521 65.952 305.889 67.04L303.009 73.76C300.833 72.864 298.561 72.096 296.193 71.456C293.825 70.816 291.393 70.496 288.897 70.496C285.441 70.496 282.785 71.072 280.929 72.224C279.137 73.312 278.241 74.816 278.241 76.736C278.241 78.144 278.657 79.36 279.489 80.384C280.321 81.344 281.697 82.304 283.617 83.264C285.601 84.16 288.225 85.248 291.489 86.528C294.753 87.744 297.537 88.992 299.841 90.272C302.145 91.552 303.905 93.12 305.121 94.976C306.337 96.768 306.945 99.04 306.945 101.792ZM336.563 110.048C337.843 110.048 339.155 109.952 340.499 109.76C341.843 109.504 342.931 109.248 343.763 108.992V115.424C342.867 115.872 341.587 116.224 339.923 116.48C338.259 116.8 336.659 116.96 335.123 116.96C332.435 116.96 329.939 116.512 327.635 115.616C325.395 114.656 323.571 113.024 322.163 110.72C320.755 108.416 320.051 105.184 320.051 101.024V71.072H312.755V67.04L320.147 63.68L323.507 52.736H328.499V64.544H343.379V71.072H328.499V100.832C328.499 103.968 329.235 106.304 330.707 107.84C332.243 109.312 334.195 110.048 336.563 110.048ZM358.386 45.248C359.666 45.248 360.786 45.696 361.746 46.592C362.77 47.424 363.282 48.768 363.282 50.624C363.282 52.416 362.77 53.76 361.746 54.656C360.786 55.552 359.666 56 358.386 56C356.978 56 355.794 55.552 354.834 54.656C353.874 53.76 353.394 52.416 353.394 50.624C353.394 48.768 353.874 47.424 354.834 46.592C355.794 45.696 356.978 45.248 358.386 45.248ZM362.514 64.544V116H354.066V64.544H362.514ZM399.456 116.96C394.912 116.96 390.848 116.032 387.264 114.176C383.744 112.32 380.96 109.44 378.912 105.536C376.928 101.632 375.936 96.64 375.936 90.56C375.936 84.224 376.992 79.072 379.104 75.104C381.216 71.136 384.064 68.224 387.648 66.368C391.296 64.512 395.424 63.584 400.032 63.584C402.656 63.584 405.184 63.872 407.616 64.448C410.048 64.96 412.032 65.6 413.568 66.368L410.976 73.376C409.44 72.8 407.648 72.256 405.6 71.744C403.552 71.232 401.632 70.976 399.84 70.976C389.728 70.976 384.672 77.472 384.672 90.464C384.672 96.672 385.888 101.44 388.32 104.768C390.816 108.032 394.496 109.664 399.36 109.664C402.176 109.664 404.64 109.376 406.752 108.8C408.928 108.224 410.912 107.52 412.704 106.688V114.176C410.976 115.072 409.056 115.744 406.944 116.192C404.896 116.704 402.4 116.96 399.456 116.96ZM458.445 101.792C458.445 106.784 456.589 110.56 452.877 113.12C449.165 115.68 444.173 116.96 437.901 116.96C434.317 116.96 431.213 116.672 428.589 116.096C426.029 115.52 423.757 114.72 421.773 113.696V106.016C423.821 107.04 426.285 108 429.165 108.896C432.109 109.728 435.085 110.144 438.093 110.144C442.381 110.144 445.485 109.472 447.405 108.128C449.325 106.72 450.285 104.864 450.285 102.56C450.285 101.28 449.933 100.128 449.229 99.104C448.525 98.08 447.245 97.056 445.389 96.032C443.597 95.008 441.005 93.856 437.613 92.576C434.285 91.296 431.437 90.016 429.069 88.736C426.701 87.456 424.877 85.92 423.597 84.128C422.317 82.336 421.677 80.032 421.677 77.216C421.677 72.864 423.437 69.504 426.957 67.136C430.541 64.768 435.213 63.584 440.973 63.584C444.109 63.584 447.021 63.904 449.709 64.544C452.461 65.12 455.021 65.952 457.389 67.04L454.509 73.76C452.333 72.864 450.061 72.096 447.693 71.456C445.325 70.816 442.893 70.496 440.397 70.496C436.941 70.496 434.285 71.072 432.429 72.224C430.637 73.312 429.741 74.816 429.741 76.736C429.741 78.144 430.157 79.36 430.989 80.384C431.821 81.344 433.197 82.304 435.117 83.264C437.101 84.16 439.725 85.248 442.989 86.528C446.253 87.744 449.037 88.992 451.341 90.272C453.645 91.552 455.405 93.12 456.621 94.976C457.837 96.768 458.445 99.04 458.445 101.792Z" fill="#202020"/>
</svg>
