<svg width="377" height="167" viewBox="0 0 377 167" fill="none" xmlns="http://www.w3.org/2000/svg">
<rect width="377" height="167" rx="83.5" fill="#99D27D"/>
<path d="M138.648 116H128.568L91.896 59.072H91.512C91.64 61.312 91.8 64.096 91.992 67.424C92.184 70.752 92.28 74.176 92.28 77.696V116H84.312V47.456H94.296L130.872 104.192H131.256C131.192 103.168 131.096 101.632 130.968 99.584C130.904 97.536 130.808 95.296 130.68 92.864C130.616 90.432 130.584 88.192 130.584 86.144V47.456H138.648V116ZM175.97 63.584C180.386 63.584 184.162 64.544 187.298 66.464C190.498 68.384 192.93 71.104 194.594 74.624C196.322 78.08 197.186 82.144 197.186 86.816V91.904H161.954C162.082 97.728 163.554 102.176 166.37 105.248C169.25 108.256 173.25 109.76 178.37 109.76C181.634 109.76 184.514 109.472 187.01 108.896C189.57 108.256 192.194 107.36 194.882 106.208V113.6C192.258 114.752 189.666 115.584 187.106 116.096C184.546 116.672 181.506 116.96 177.986 116.96C173.122 116.96 168.802 115.968 165.026 113.984C161.314 112 158.402 109.056 156.29 105.152C154.242 101.184 153.218 96.352 153.218 90.656C153.218 85.024 154.146 80.192 156.002 76.16C157.922 72.128 160.578 69.024 163.97 66.848C167.426 64.672 171.426 63.584 175.97 63.584ZM175.874 70.496C171.842 70.496 168.642 71.808 166.274 74.432C163.97 76.992 162.594 80.576 162.146 85.184H188.354C188.29 80.832 187.266 77.312 185.282 74.624C183.298 71.872 180.162 70.496 175.874 70.496ZM241.626 86.912C240.794 84.288 240.058 81.728 239.418 79.232C238.842 76.672 238.394 74.688 238.074 73.28H237.69C237.434 74.688 237.018 76.672 236.442 79.232C235.866 81.728 235.13 84.32 234.234 87.008L225.018 115.904H215.418L201.306 64.448H210.042L217.146 91.904C217.85 94.656 218.522 97.44 219.162 100.256C219.802 103.072 220.25 105.408 220.506 107.264H220.89C221.146 106.176 221.434 104.832 221.754 103.232C222.138 101.632 222.554 99.968 223.002 98.24C223.45 96.448 223.898 94.848 224.346 93.44L233.466 64.448H242.682L251.514 93.44C252.218 95.616 252.89 97.984 253.53 100.544C254.234 103.104 254.714 105.312 254.97 107.168H255.354C255.546 105.568 255.962 103.36 256.602 100.544C257.306 97.728 258.042 94.848 258.81 91.904L266.01 64.448H274.65L260.346 115.904H250.458L241.626 86.912ZM291.367 96.704H285.895L283.495 47.456H293.767L291.367 96.704ZM282.631 110.816C282.631 108.448 283.207 106.784 284.359 105.824C285.511 104.864 286.919 104.384 288.583 104.384C290.183 104.384 291.559 104.864 292.711 105.824C293.927 106.784 294.535 108.448 294.535 110.816C294.535 113.12 293.927 114.784 292.711 115.808C291.559 116.832 290.183 117.344 288.583 117.344C286.919 117.344 285.511 116.832 284.359 115.808C283.207 114.784 282.631 113.12 282.631 110.816Z" fill="#202020"/>
</svg>
