<svg width="377" height="167" viewBox="0 0 377 167" fill="none" xmlns="http://www.w3.org/2000/svg">
<rect width="377" height="167" rx="83.5" fill="#99D27D"/>
<path d="M138.648 121H128.568L91.896 64.072H91.512C91.64 66.312 91.8 69.096 91.992 72.424C92.184 75.752 92.28 79.176 92.28 82.696V121H84.312V52.456H94.296L130.872 109.192H131.256C131.192 108.168 131.096 106.632 130.968 104.584C130.904 102.536 130.808 100.296 130.68 97.864C130.616 95.432 130.584 93.192 130.584 91.144V52.456H138.648V121ZM175.97 68.584C180.386 68.584 184.162 69.544 187.298 71.464C190.498 73.384 192.93 76.104 194.594 79.624C196.322 83.08 197.186 87.144 197.186 91.816V96.904H161.954C162.082 102.728 163.554 107.176 166.37 110.248C169.25 113.256 173.25 114.76 178.37 114.76C181.634 114.76 184.514 114.472 187.01 113.896C189.57 113.256 192.194 112.36 194.882 111.208V118.6C192.258 119.752 189.666 120.584 187.106 121.096C184.546 121.672 181.506 121.96 177.986 121.96C173.122 121.96 168.802 120.968 165.026 118.984C161.314 117 158.402 114.056 156.29 110.152C154.242 106.184 153.218 101.352 153.218 95.656C153.218 90.024 154.146 85.192 156.002 81.16C157.922 77.128 160.578 74.024 163.97 71.848C167.426 69.672 171.426 68.584 175.97 68.584ZM175.874 75.496C171.842 75.496 168.642 76.808 166.274 79.432C163.97 81.992 162.594 85.576 162.146 90.184H188.354C188.29 85.832 187.266 82.312 185.282 79.624C183.298 76.872 180.162 75.496 175.874 75.496ZM241.626 91.912C240.794 89.288 240.058 86.728 239.418 84.232C238.842 81.672 238.394 79.688 238.074 78.28H237.69C237.434 79.688 237.018 81.672 236.442 84.232C235.866 86.728 235.13 89.32 234.234 92.008L225.018 120.904H215.418L201.306 69.448H210.042L217.146 96.904C217.85 99.656 218.522 102.44 219.162 105.256C219.802 108.072 220.25 110.408 220.506 112.264H220.89C221.146 111.176 221.434 109.832 221.754 108.232C222.138 106.632 222.554 104.968 223.002 103.24C223.45 101.448 223.898 99.848 224.346 98.44L233.466 69.448H242.682L251.514 98.44C252.218 100.616 252.89 102.984 253.53 105.544C254.234 108.104 254.714 110.312 254.97 112.168H255.354C255.546 110.568 255.962 108.36 256.602 105.544C257.306 102.728 258.042 99.848 258.81 96.904L266.01 69.448H274.65L260.346 120.904H250.458L241.626 91.912ZM291.367 101.704H285.895L283.495 52.456H293.767L291.367 101.704ZM282.631 115.816C282.631 113.448 283.207 111.784 284.359 110.824C285.511 109.864 286.919 109.384 288.583 109.384C290.183 109.384 291.559 109.864 292.711 110.824C293.927 111.784 294.535 113.448 294.535 115.816C294.535 118.12 293.927 119.784 292.711 120.808C291.559 121.832 290.183 122.344 288.583 122.344C286.919 122.344 285.511 121.832 284.359 120.808C283.207 119.784 282.631 118.12 282.631 115.816Z" fill="black"/>
</svg>
