<svg width="503" height="167" viewBox="0 0 503 167" fill="none" xmlns="http://www.w3.org/2000/svg">
<rect width="503" height="167" rx="83.5" fill="#7DA4D2"/>
<path d="M99.456 47.456C108.416 47.456 114.944 49.216 119.04 52.736C123.136 56.256 125.184 61.216 125.184 67.616C125.184 71.392 124.32 74.944 122.592 78.272C120.928 81.536 118.08 84.192 114.048 86.24C110.08 88.288 104.672 89.312 97.824 89.312H89.952V116H81.312V47.456H99.456ZM98.688 54.848H89.952V81.92H96.864C103.392 81.92 108.256 80.864 111.456 78.752C114.656 76.64 116.256 73.056 116.256 68C116.256 63.584 114.848 60.288 112.032 58.112C109.216 55.936 104.768 54.848 98.688 54.848ZM162.285 63.584C163.245 63.584 164.269 63.648 165.357 63.776C166.509 63.84 167.501 63.968 168.333 64.16L167.277 71.936C166.445 71.744 165.517 71.584 164.493 71.456C163.533 71.328 162.605 71.264 161.709 71.264C159.085 71.264 156.621 72 154.317 73.472C152.013 74.88 150.157 76.896 148.749 79.52C147.405 82.08 146.733 85.088 146.733 88.544V116H138.285V64.544H145.197L146.157 73.952H146.541C148.205 71.136 150.349 68.704 152.973 66.656C155.597 64.608 158.701 63.584 162.285 63.584ZM220.802 90.176C220.802 98.688 218.626 105.28 214.274 109.952C209.986 114.624 204.162 116.96 196.802 116.96C192.258 116.96 188.194 115.936 184.61 113.888C181.09 111.776 178.306 108.736 176.258 104.768C174.21 100.736 173.186 95.872 173.186 90.176C173.186 81.664 175.33 75.104 179.618 70.496C183.906 65.888 189.73 63.584 197.09 63.584C201.762 63.584 205.858 64.64 209.378 66.752C212.962 68.8 215.746 71.808 217.73 75.776C219.778 79.68 220.802 84.48 220.802 90.176ZM181.922 90.176C181.922 96.256 183.106 101.088 185.474 104.672C187.906 108.192 191.746 109.952 196.994 109.952C202.178 109.952 205.986 108.192 208.418 104.672C210.85 101.088 212.066 96.256 212.066 90.176C212.066 84.096 210.85 79.328 208.418 75.872C205.986 72.416 202.146 70.688 196.898 70.688C191.65 70.688 187.842 72.416 185.474 75.872C183.106 79.328 181.922 84.096 181.922 90.176ZM233.519 50.624C233.519 48.768 233.999 47.424 234.959 46.592C235.919 45.696 237.103 45.248 238.511 45.248C239.791 45.248 240.911 45.696 241.871 46.592C242.895 47.424 243.407 48.768 243.407 50.624C243.407 52.416 242.895 53.76 241.871 54.656C240.911 55.552 239.791 56 238.511 56C237.103 56 235.919 55.552 234.959 54.656C233.999 53.76 233.519 52.416 233.519 50.624ZM228.143 139.04C226.543 139.04 225.135 138.912 223.919 138.656C222.703 138.464 221.647 138.208 220.751 137.888V131.072C221.711 131.328 222.703 131.552 223.727 131.744C224.751 131.936 225.871 132.032 227.087 132.032C229.135 132.032 230.831 131.456 232.175 130.304C233.519 129.216 234.191 127.104 234.191 123.968V64.544H242.639V123.68C242.639 128.48 241.487 132.224 239.183 134.912C236.879 137.664 233.199 139.04 228.143 139.04ZM278.813 63.584C283.229 63.584 287.005 64.544 290.141 66.464C293.341 68.384 295.773 71.104 297.437 74.624C299.165 78.08 300.029 82.144 300.029 86.816V91.904H264.797C264.925 97.728 266.397 102.176 269.213 105.248C272.093 108.256 276.093 109.76 281.213 109.76C284.477 109.76 287.357 109.472 289.853 108.896C292.413 108.256 295.037 107.36 297.725 106.208V113.6C295.101 114.752 292.509 115.584 289.949 116.096C287.389 116.672 284.349 116.96 280.829 116.96C275.965 116.96 271.645 115.968 267.869 113.984C264.157 112 261.245 109.056 259.133 105.152C257.085 101.184 256.061 96.352 256.061 90.656C256.061 85.024 256.989 80.192 258.845 76.16C260.765 72.128 263.421 69.024 266.813 66.848C270.269 64.672 274.269 63.584 278.813 63.584ZM278.717 70.496C274.685 70.496 271.485 71.808 269.117 74.432C266.813 76.992 265.437 80.576 264.989 85.184H291.197C291.133 80.832 290.109 77.312 288.125 74.624C286.141 71.872 283.005 70.496 278.717 70.496ZM333.769 116.96C329.225 116.96 325.161 116.032 321.577 114.176C318.057 112.32 315.273 109.44 313.225 105.536C311.241 101.632 310.249 96.64 310.249 90.56C310.249 84.224 311.305 79.072 313.417 75.104C315.529 71.136 318.377 68.224 321.961 66.368C325.609 64.512 329.737 63.584 334.345 63.584C336.969 63.584 339.497 63.872 341.929 64.448C344.361 64.96 346.345 65.6 347.881 66.368L345.289 73.376C343.753 72.8 341.961 72.256 339.913 71.744C337.865 71.232 335.945 70.976 334.153 70.976C324.041 70.976 318.985 77.472 318.985 90.464C318.985 96.672 320.201 101.44 322.633 104.768C325.129 108.032 328.809 109.664 333.673 109.664C336.489 109.664 338.953 109.376 341.065 108.8C343.241 108.224 345.225 107.52 347.017 106.688V114.176C345.289 115.072 343.369 115.744 341.257 116.192C339.209 116.704 336.713 116.96 333.769 116.96ZM376.438 110.048C377.718 110.048 379.03 109.952 380.374 109.76C381.718 109.504 382.806 109.248 383.638 108.992V115.424C382.742 115.872 381.462 116.224 379.798 116.48C378.134 116.8 376.534 116.96 374.998 116.96C372.31 116.96 369.814 116.512 367.51 115.616C365.27 114.656 363.446 113.024 362.038 110.72C360.63 108.416 359.926 105.184 359.926 101.024V71.072H352.63V67.04L360.022 63.68L363.382 52.736H368.374V64.544H383.254V71.072H368.374V100.832C368.374 103.968 369.11 106.304 370.582 107.84C372.118 109.312 374.07 110.048 376.438 110.048ZM427.445 101.792C427.445 106.784 425.589 110.56 421.877 113.12C418.165 115.68 413.173 116.96 406.901 116.96C403.317 116.96 400.213 116.672 397.589 116.096C395.029 115.52 392.757 114.72 390.773 113.696V106.016C392.821 107.04 395.285 108 398.165 108.896C401.109 109.728 404.085 110.144 407.093 110.144C411.381 110.144 414.485 109.472 416.405 108.128C418.325 106.72 419.285 104.864 419.285 102.56C419.285 101.28 418.933 100.128 418.229 99.104C417.525 98.08 416.245 97.056 414.389 96.032C412.597 95.008 410.005 93.856 406.613 92.576C403.285 91.296 400.437 90.016 398.069 88.736C395.701 87.456 393.877 85.92 392.597 84.128C391.317 82.336 390.677 80.032 390.677 77.216C390.677 72.864 392.437 69.504 395.957 67.136C399.541 64.768 404.213 63.584 409.973 63.584C413.109 63.584 416.021 63.904 418.709 64.544C421.461 65.12 424.021 65.952 426.389 67.04L423.509 73.76C421.333 72.864 419.061 72.096 416.693 71.456C414.325 70.816 411.893 70.496 409.397 70.496C405.941 70.496 403.285 71.072 401.429 72.224C399.637 73.312 398.741 74.816 398.741 76.736C398.741 78.144 399.157 79.36 399.989 80.384C400.821 81.344 402.197 82.304 404.117 83.264C406.101 84.16 408.725 85.248 411.989 86.528C415.253 87.744 418.037 88.992 420.341 90.272C422.645 91.552 424.405 93.12 425.621 94.976C426.837 96.768 427.445 99.04 427.445 101.792Z" fill="#202020"/>
</svg>
